<svg width="22" height="23" viewBox="0 0 22 23" fill="none" xmlns="http://www.w3.org/2000/svg">
<path fill-rule="evenodd" clip-rule="evenodd" d="M3.08472 20.6874H5.38752C5.73185 20.6874 6.00071 20.9813 6.00071 21.3437C6.00071 21.6956 5.72617 22 5.38752 22H1.61318C1.443 22 1.29126 21.9282 1.1813 21.8119C1.0708 21.6911 1 21.5319 1 21.3562V17.3935C1 17.032 1.27986 16.7497 1.62509 16.7497C1.96022 16.7497 2.25018 17.0379 2.25018 17.3935V19.7074L8.22567 13.4336C8.47009 13.177 8.85731 13.186 9.10142 13.4423C9.3384 13.6911 9.34922 14.1102 9.10966 14.3617L3.08472 20.6874ZM18.9152 20.6874H16.6125C16.2682 20.6874 15.9993 20.9813 15.9993 21.3437C15.9993 21.6956 16.2738 22 16.6125 22H20.3868C20.557 22 20.7087 21.9282 20.8187 21.8119C20.9292 21.6911 21 21.5319 21 21.3562V17.3935C21 17.032 20.7201 16.7497 20.3749 16.7497C20.0398 16.7497 19.7498 17.0379 19.7498 17.3935V19.7074L13.7743 13.4336C13.5299 13.177 13.1427 13.186 12.8986 13.4423C12.6616 13.6911 12.6507 14.1102 12.8903 14.3617L18.9152 20.6874ZM3.08472 2.31258H5.38752C5.73185 2.31258 6.00071 2.01875 6.00071 1.65629C6.00071 1.30443 5.72617 1 5.38752 1H1.61318C1.443 1 1.29126 1.07178 1.1813 1.18815C1.0708 1.30886 1 1.46811 1 1.64379V5.60653C1 5.96805 1.27986 6.25033 1.62509 6.25033C1.96022 6.25033 2.25018 5.96209 2.25018 5.60653V3.29261L8.22567 9.56639C8.47009 9.823 8.85731 9.81403 9.10142 9.55774C9.3384 9.30893 9.34922 8.88978 9.10966 8.63827L3.08472 2.31258ZM18.8163 2.31258H16.6125C16.2682 2.31258 15.9993 2.01875 15.9993 1.65629C15.9993 1.30443 16.2738 1 16.6125 1H20.3868C20.557 1 20.7087 1.07178 20.8187 1.18815C20.9292 1.30886 21 1.46811 21 1.64379V5.60653C21 5.96805 20.7201 6.25033 20.3749 6.25033C20.0398 6.25033 19.7498 5.96209 19.7498 5.60653V3.1888L13.7249 9.51449C13.4805 9.77111 13.0932 9.76212 12.8491 9.50582C12.6122 9.25702 12.6013 8.83787 12.8408 8.58636L18.8163 2.31258Z" fill="white" stroke="white" stroke-width="0.5"/>
</svg>
