<svg width="22" height="22" viewBox="0 0 22 22" fill="none" xmlns="http://www.w3.org/2000/svg">
<path d="M6.02672 14.9398L13.1658 21.3426V0L6.02672 6.40282C5.9079 6.50944 5.76326 6.56696 5.61478 6.56696H0.80957V14.7757H5.61478C5.76326 14.7757 5.9079 14.8332 6.02672 14.9398Z" fill="white"/>
<path d="M15.9387 14.3941C15.6068 14.3941 15.3076 14.1941 15.1805 13.8875C15.0535 13.5807 15.1238 13.2277 15.3585 12.9929C16.6403 11.7109 16.6403 9.63223 15.3585 8.35022C15.0473 8.02797 15.0519 7.51612 15.3683 7.19948C15.685 6.88284 16.197 6.87823 16.5191 7.18946C18.4418 9.11277 18.4418 12.2303 16.5191 14.1536C16.3651 14.3075 16.1565 14.3941 15.9387 14.3941Z" fill="white"/>
<path d="M19.0048 4.49219C20.2983 6.29766 21.0288 8.34717 21.0288 10.5198C21.0288 12.8141 20.2142 14.9711 18.7822 16.8484" stroke="white" stroke-width="1.6" stroke-linecap="round"/>
</svg>
