<svg width="48" height="48" viewBox="0 0 48 48" fill="none" xmlns="http://www.w3.org/2000/svg">
<path d="M3.46973 15.1755C3.46973 13.282 5.00475 11.7469 6.8983 11.7469L40.9155 11.7469C42.8091 11.7469 44.3441 13.282 44.3441 15.1755V32.6381C44.3441 34.5316 42.8091 36.0666 40.9155 36.0666H6.8983C5.00475 36.0666 3.46973 34.5316 3.46973 32.6381L3.46973 15.1755Z" fill="#E0077C"/>
<g clip-path="url(#clip0_237_31172)">
<path d="M20.0238 31.3677C20.0156 31.3432 19.1938 28.8919 17.9846 26.4735C17.2681 25.0403 16.5553 23.8944 15.8662 23.0675C14.9497 21.9676 14.0483 21.4099 13.1872 21.4099C12.3261 21.4099 11.4248 21.9676 10.5082 23.0675C9.81909 23.8944 9.10635 25.0403 8.38978 26.4735C7.18062 28.8919 6.35884 31.3432 6.35069 31.3677C6.30987 31.4902 6.33039 31.6249 6.40592 31.7297C6.48146 31.8345 6.60272 31.8965 6.73185 31.8965L19.6426 31.8965C19.7717 31.8965 19.893 31.8344 19.9685 31.7297C20.044 31.6249 20.0646 31.4902 20.0238 31.3677ZM9.95953 30.2827C9.73429 30.2827 9.5675 30.0986 9.55775 29.8809C9.54802 29.6639 9.74937 29.4791 9.95953 29.4791C10.1848 29.4791 10.3516 29.6632 10.3613 29.8809C10.371 30.0979 10.1697 30.2827 9.95953 30.2827ZM10.7665 28.0126C10.5412 28.0126 10.3744 27.8285 10.3647 27.6108C10.3549 27.3938 10.5563 27.209 10.7665 27.209C10.9917 27.209 11.1585 27.3931 11.1682 27.6108C11.178 27.8278 10.9766 28.0126 10.7665 28.0126ZM11.5734 25.4412C11.3481 25.4412 11.1813 25.2571 11.1716 25.0394C11.1619 24.8224 11.3632 24.6376 11.5734 24.6376C11.7986 24.6376 11.9654 24.8217 11.9752 25.0394C11.9849 25.2564 11.7835 25.4412 11.5734 25.4412ZM12.3803 29.4758C12.155 29.4758 11.9883 29.2917 11.9785 29.074C11.9688 28.857 12.1701 28.6722 12.3803 28.6722C12.6055 28.6722 12.7723 28.8563 12.7821 29.074C12.7918 29.291 12.5905 29.4758 12.3803 29.4758ZM13.1872 26.2481C12.962 26.2481 12.7952 26.064 12.7854 25.8463C12.7757 25.6293 12.977 25.4445 13.1872 25.4445C13.4125 25.4445 13.5792 25.6286 13.589 25.8463C13.5987 26.0633 13.3974 26.2481 13.1872 26.2481ZM13.9941 27.8619C13.7689 27.8619 13.6021 27.6778 13.5923 27.4601C13.5826 27.2431 13.784 27.0583 13.9941 27.0583C14.2194 27.0583 14.3862 27.2424 14.3959 27.4601C14.4056 27.6771 14.2043 27.8619 13.9941 27.8619ZM13.9941 24.6342C13.7689 24.6342 13.6021 24.4501 13.5923 24.2325C13.5826 24.0155 13.784 23.8307 13.9941 23.8307C14.2194 23.8307 14.3862 24.0148 14.3959 24.2325C14.4056 24.4494 14.2043 24.6342 13.9941 24.6342ZM14.8011 30.3865C14.5758 30.3865 14.409 30.2024 14.3993 29.9847C14.3895 29.7677 14.5909 29.5829 14.8011 29.5829C15.0263 29.5829 15.1931 29.767 15.2028 29.9847C15.2126 30.2017 15.0112 30.3865 14.8011 30.3865ZM15.608 28.6688C15.3827 28.6688 15.2159 28.4847 15.2062 28.2671C15.1965 28.0501 15.3978 27.8653 15.608 27.8653C15.8332 27.8653 16 28.0494 16.0098 28.2671C16.0195 28.484 15.8181 28.6688 15.608 28.6688ZM15.608 26.3787C15.3827 26.3787 15.2159 26.1946 15.2062 25.9769C15.1965 25.7599 15.3978 25.5751 15.608 25.5751C15.8332 25.5751 16 25.7592 16.0098 25.9769C16.0195 26.1939 15.8181 26.3787 15.608 26.3787ZM17.2218 30.2827C16.9966 30.2827 16.8298 30.0986 16.82 29.8809C16.8103 29.6639 17.0116 29.4791 17.2218 29.4791C17.447 29.4791 17.6138 29.6632 17.6236 29.8809C17.6333 30.0979 17.432 30.2827 17.2218 30.2827Z" fill="white"/>
</g>
<path d="M28.8997 31.3024C28.6317 31.7616 28.2927 32.0308 27.8827 32.11C27.4885 32.1891 27.1179 32.1258 26.771 31.92C26.4242 31.7141 26.1798 31.4212 26.0378 31.0411C25.9117 30.6452 25.9827 30.2177 26.2507 29.7585L34.5289 15.4359C34.7969 14.9608 35.128 14.6837 35.5222 14.6045C35.9164 14.5253 36.287 14.5887 36.6339 14.7945C36.9808 15.0004 37.2173 15.3013 37.3434 15.6971C37.4853 16.0772 37.4223 16.4968 37.1542 16.956L28.8997 31.3024ZM25.4702 24.9605C24.0511 24.9605 22.9473 24.4934 22.1589 23.5591C21.3863 22.609 21 21.3581 21 19.8063C21 18.2386 21.3942 17.0035 22.1826 16.1009C22.971 15.1825 24.0669 14.7233 25.4702 14.7233C26.8578 14.7233 27.9458 15.1904 28.7342 16.1247C29.5225 17.0431 29.9167 18.2703 29.9167 19.8063C29.9167 21.3581 29.5225 22.609 28.7342 23.5591C27.9615 24.4934 26.8735 24.9605 25.4702 24.9605ZM25.4702 22.3478C25.8329 22.3478 26.1088 22.1578 26.298 21.7777C26.4872 21.3977 26.5818 20.7405 26.5818 19.8063C26.5818 18.872 26.4793 18.2228 26.2744 17.8586C26.0851 17.4944 25.8171 17.3123 25.4702 17.3123C25.0918 17.3123 24.8079 17.4944 24.6187 17.8586C24.4295 18.207 24.3349 18.8562 24.3349 19.8063C24.3349 20.7722 24.4295 21.4373 24.6187 21.8015C24.8079 22.1657 25.0918 22.3478 25.4702 22.3478ZM37.9584 31.9912C36.555 31.9912 35.4592 31.5241 34.6708 30.5898C33.8981 29.6556 33.5118 28.4125 33.5118 26.8607C33.5118 25.2931 33.906 24.05 34.6944 23.1316C35.4828 22.2132 36.5708 21.754 37.9584 21.754C39.3617 21.754 40.4576 22.2211 41.246 23.1554C42.0344 24.0896 42.4286 25.3247 42.4286 26.8607C42.4286 28.4125 42.0344 29.6556 41.246 30.5898C40.4734 31.5241 39.3775 31.9912 37.9584 31.9912ZM37.9584 29.4022C38.321 29.4022 38.597 29.2122 38.7862 28.8322C38.9912 28.4521 39.0937 27.795 39.0937 26.8607C39.0937 25.9265 38.9912 25.2772 38.7862 24.913C38.597 24.5488 38.321 24.3667 37.9584 24.3667C37.5957 24.3667 37.3198 24.5409 37.1306 24.8893C36.9413 25.2376 36.8467 25.8948 36.8467 26.8607C36.8467 27.8108 36.9413 28.4759 37.1306 28.8559C37.3198 29.2201 37.5957 29.4022 37.9584 29.4022Z" fill="white" fill-opacity="0.3"/>
<rect x="6.42871" y="14.5352" width="7.23403" height="2.23727" fill="white" fill-opacity="0.3"/>
<defs>
<clipPath id="clip0_237_31172">
<rect width="13.7143" height="13.7143" fill="white" transform="translate(6.33008 19.7961)"/>
</clipPath>
</defs>
</svg>
