<svg width="112" height="112" viewBox="0 0 112 112" fill="none" xmlns="http://www.w3.org/2000/svg">
<path d="M7.65685 75.0963C4.53266 71.9721 4.53266 66.9068 7.65685 63.7826L63.7824 7.65702C66.9066 4.53283 71.9719 4.53282 75.0961 7.65702L103.908 36.4687C107.032 39.5929 107.032 44.6583 103.908 47.7825L47.7823 103.908C44.6581 107.032 39.5928 107.032 36.4686 103.908L7.65685 75.0963Z" fill="url(#paint0_linear_260_2705)"/>
<g clip-path="url(#clip0_260_2705)">
<path d="M41.6077 60.5945C41.6493 59.6207 40.8695 58.8105 39.8983 58.8116C38.9253 58.8109 38.1479 59.6221 38.1892 60.5942L38.4897 67.6979L41.3069 67.6977L41.6077 60.5945Z" fill="white"/>
<path d="M42.7501 78.5967C43.1912 77.3864 43.6078 76.243 44.4216 75.2145C44.7737 74.7691 45.1815 74.3703 45.6568 74.0104C45.3906 73.2225 44.7667 72.5969 43.9796 72.3281C43.9246 72.7629 43.724 73.1524 43.4286 73.4478C43.0785 73.7979 42.5953 74.0149 42.0622 74.0149L37.7345 74.015C36.7518 74.0154 35.938 73.2789 35.8179 72.3281C34.7619 72.6873 34.0006 73.6893 34.0006 74.8649L34.0006 81.6301C34.0004 81.9765 34.2814 82.2576 34.6279 82.2574L41.0701 82.2576C41.8961 80.9399 42.3372 79.7302 42.7501 78.5967Z" fill="white"/>
<path d="M42.1002 71.4488L42.0746 70.2017C42.0677 69.8575 41.7844 69.5832 41.44 69.5872L38.3162 69.6236C37.9677 69.6276 37.6892 69.9153 37.6963 70.2639L37.7219 71.511C37.7288 71.8552 38.0119 72.1297 38.3565 72.1256L41.4801 72.0893C41.8288 72.0852 42.1074 71.7976 42.1002 71.4488Z" fill="white"/>
<path d="M56.4526 73.2601L56.4268 73.2434C54.8612 72.226 53.7348 72.5725 50.7072 73.726C48.769 74.4634 46.97 74.9269 45.7964 76.5213C45.2304 77.288 44.9056 78.1796 44.5186 79.241C43.6518 81.6211 42.5718 84.5762 38.2572 88.0394C37.4372 88.6968 37.0783 89.7587 37.4579 90.4055L38.1417 91.571L56.4526 73.2601ZM49.5486 76.0381L49.9141 76.4036C50.282 76.7715 50.282 77.3667 49.9141 77.7346C49.5467 78.102 48.951 78.1025 48.5831 77.7346L48.2176 77.3691C47.8497 77.0012 47.8502 76.4055 48.2176 76.0381C48.5855 75.6702 49.1807 75.6702 49.5486 76.0381ZM45.6535 80.7947C45.2858 80.427 45.2861 79.8311 45.6535 79.4637C46.0212 79.096 46.6171 79.096 46.9847 79.4635L47.3506 79.8295C47.718 80.1969 47.7185 80.793 47.3506 81.1608C46.984 81.5275 46.3868 81.528 46.0195 81.1607C45.5247 80.6659 46.0925 81.2337 45.6535 80.7947Z" fill="white"/>
<path d="M44.4483 97.7312C44.772 98.0107 45.2625 97.9933 45.5649 97.6908L62.3173 80.9385C62.6199 80.6359 62.6372 80.1456 62.3577 79.8219L60.4969 77.5678L42.1943 95.8704L44.4483 97.7312Z" fill="white"/>
<path d="M59.4985 72.8765C58.911 73.464 38.0877 94.2874 37.503 94.8721C37.3289 95.0461 37.3284 95.3294 37.5028 95.5037L38.3849 96.3859C38.5588 96.5597 38.8426 96.5597 39.0166 96.3857L61.0122 74.3902C61.1862 74.2162 61.1862 73.9323 61.0123 73.7585L60.1302 72.8763C59.9558 72.702 59.6725 72.7025 59.4985 72.8765Z" fill="white"/>
</g>
<g opacity="0.89">
<g opacity="0.5">
<path d="M73.4592 30.4659C73.5864 30.9538 73.5387 31.362 73.316 31.6908C73.1039 32.0089 72.8123 32.2157 72.4411 32.3111C72.07 32.4066 71.7094 32.3748 71.3594 32.2157C71.0095 32.0354 70.7709 31.7014 70.6436 31.2136L66.6192 16.0543C66.4813 15.5559 66.5185 15.1476 66.7306 14.8295C66.9426 14.5114 67.2343 14.3046 67.6054 14.2091C67.9766 14.1137 68.3371 14.1561 68.6871 14.3364C69.037 14.4955 69.2756 14.8189 69.4029 15.3067L73.4592 30.4659ZM66.9055 28.5253C65.9511 29.4797 64.896 29.9092 63.7401 29.8138C62.5842 29.6971 61.4866 29.1192 60.4473 28.0799C59.3975 27.0301 58.8355 25.9378 58.7612 24.8031C58.6764 23.6578 59.1059 22.6133 60.0497 21.6694C60.9829 20.7362 62.0274 20.3174 63.1833 20.4128C64.3286 20.4976 65.4156 21.0544 66.4442 22.083C67.4835 23.1223 68.0561 24.2252 68.1622 25.3917C68.2682 26.5369 67.8493 27.5815 66.9055 28.5253ZM65.1558 26.7756C65.3997 26.5316 65.458 26.2188 65.3307 25.837C65.2035 25.4553 64.827 24.9516 64.2014 24.3259C63.5757 23.7002 63.072 23.3344 62.6902 23.2283C62.3191 23.1117 62.0168 23.17 61.7835 23.4033C61.529 23.6578 61.4601 23.9706 61.5767 24.3418C61.6828 24.7024 62.0539 25.2008 62.6902 25.837C63.3371 26.4839 63.8461 26.8657 64.2173 26.9823C64.5884 27.099 64.9013 27.0301 65.1558 26.7756ZM80.0128 24.8349C79.069 25.7787 78.0191 26.2029 76.8632 26.1075C75.7179 26.0014 74.6257 25.4288 73.5864 24.3895C72.5366 23.3397 71.9692 22.2421 71.8844 21.0968C71.7995 19.9515 72.2237 18.9123 73.1569 17.9791C74.1007 17.0353 75.1506 16.6111 76.3065 16.7065C77.4624 16.8019 78.5546 17.364 79.5833 18.3926C80.6225 19.4319 81.1899 20.5295 81.2853 21.6854C81.3914 22.8306 80.9672 23.8805 80.0128 24.8349ZM78.2789 23.1011C78.5228 22.8572 78.5812 22.5443 78.4539 22.1626C78.3373 21.7702 77.9661 21.2612 77.3404 20.6355C76.7148 20.0098 76.211 19.644 75.8293 19.5379C75.4581 19.4213 75.1506 19.4849 74.9067 19.7288C74.6628 19.9727 74.5938 20.2749 74.6999 20.6355C74.8059 20.9961 75.1824 21.4998 75.8293 22.1467C76.4655 22.7829 76.9746 23.1647 77.3563 23.2919C77.7275 23.4086 78.035 23.345 78.2789 23.1011Z" fill="#8D5205"/>
<rect width="1.22983" height="4.15685" transform="matrix(0.707107 -0.707106 0.707107 0.707106 80.8633 55.6057)" fill="#8D5205"/>
<rect width="1.22983" height="4.15685" transform="matrix(0.707106 -0.707107 0.707106 0.707107 82.6367 53.8311)" fill="#8D5205"/>
<rect x="84.4121" y="52.0557" width="1.22983" height="4.15685" transform="rotate(-45 84.4121 52.0557)" fill="#8D5205"/>
<rect width="1.22983" height="4.15685" transform="matrix(0.707107 -0.707106 0.707107 0.707106 86.1875 50.2803)" fill="#8D5205"/>
<rect width="1.22983" height="4.15685" transform="matrix(0.707106 -0.707107 0.707106 0.707107 87.9609 48.5059)" fill="#8D5205"/>
<rect width="1.22983" height="4.15685" transform="matrix(0.707106 -0.707107 0.707106 0.707107 89.7383 46.7305)" fill="#8D5205"/>
<rect x="91.5117" y="44.9551" width="1.22983" height="4.15685" transform="rotate(-45 91.5117 44.9551)" fill="#8D5205"/>
<rect x="12.0225" y="68.6184" width="5.05159" height="5.22029" transform="rotate(-45 12.0225 68.6184)" fill="#8D5205"/>
<rect x="17.3799" y="63.2607" width="23.8722" height="5.22029" transform="rotate(-45 17.3799 63.2607)" fill="#8D5205"/>
</g>
</g>
<defs>
<linearGradient id="paint0_linear_260_2705" x1="104" y1="77.5" x2="56" y2="16.5" gradientUnits="userSpaceOnUse">
<stop stop-color="#EAB808"/>
<stop offset="0.832509" stop-color="#FFDC98"/>
</linearGradient>
<clipPath id="clip0_260_2705">
<rect width="32" height="32" fill="white" transform="translate(20 78.001) rotate(-45)"/>
</clipPath>
</defs>
</svg>
