<svg width="48" height="48" viewBox="0 0 48 48" fill="none" xmlns="http://www.w3.org/2000/svg">
<path d="M3.46973 15.1755C3.46973 13.282 5.00475 11.7469 6.8983 11.7469L40.9155 11.7469C42.8091 11.7469 44.3441 13.282 44.3441 15.1755V32.6381C44.3441 34.5316 42.8091 36.0666 40.9155 36.0666H6.8983C5.00475 36.0666 3.46973 34.5316 3.46973 32.6381L3.46973 15.1755Z" fill="#6BBE00"/>
<path fill-rule="evenodd" clip-rule="evenodd" d="M13.1875 20.6532C14.4297 20.6532 15.5837 21.0307 16.5411 21.6772C15.7505 22.6538 14.5419 23.2782 13.1875 23.2782C11.8331 23.2782 10.6245 22.6538 9.83389 21.6772C10.7913 21.0307 11.9453 20.6532 13.1875 20.6532ZM13.1875 24.4032C14.8922 24.4032 16.4137 23.6187 17.4106 22.3911C18.5079 23.4784 19.1875 24.9864 19.1875 26.6532C19.1875 28.32 18.5079 29.828 17.4106 30.9153C16.4137 29.6877 14.8922 28.9032 13.1875 28.9032C11.4828 28.9032 9.96134 29.6877 8.96438 30.9153C7.86713 29.828 7.1875 28.32 7.1875 26.6532C7.1875 24.9864 7.86713 23.4784 8.96438 22.3911C9.96134 23.6187 11.4828 24.4032 13.1875 24.4032ZM16.5411 31.6292C15.5837 32.2757 14.4297 32.6532 13.1875 32.6532C11.9453 32.6532 10.7913 32.2757 9.83389 31.6292C10.6245 30.6526 11.8331 30.0282 13.1875 30.0282C14.5419 30.0282 15.7505 30.6526 16.5411 31.6292Z" fill="white"/>
<path d="M28.8997 31.3025C28.6317 31.7617 28.2927 32.0309 27.8827 32.1101C27.4885 32.1893 27.1179 32.1259 26.771 31.9201C26.4242 31.7142 26.1798 31.4213 26.0378 31.0412C25.9117 30.6454 25.9827 30.2178 26.2507 29.7586L34.5289 15.436C34.7969 14.9609 35.128 14.6838 35.5222 14.6046C35.9164 14.5255 36.287 14.5888 36.6339 14.7947C36.9808 15.0005 37.2173 15.3014 37.3434 15.6972C37.4853 16.0773 37.4223 16.4969 37.1542 16.9561L28.8997 31.3025ZM25.4702 24.9606C24.0511 24.9606 22.9473 24.4935 22.1589 23.5593C21.3863 22.6092 21 21.3582 21 19.8064C21 18.2387 21.3942 17.0036 22.1826 16.101C22.971 15.1826 24.0669 14.7234 25.4702 14.7234C26.8578 14.7234 27.9458 15.1905 28.7342 16.1248C29.5225 17.0432 29.9167 18.2704 29.9167 19.8064C29.9167 21.3582 29.5225 22.6092 28.7342 23.5593C27.9615 24.4935 26.8735 24.9606 25.4702 24.9606ZM25.4702 22.3479C25.8329 22.3479 26.1088 22.1579 26.298 21.7778C26.4872 21.3978 26.5818 20.7407 26.5818 19.8064C26.5818 18.8721 26.4793 18.2229 26.2744 17.8587C26.0851 17.4945 25.8171 17.3124 25.4702 17.3124C25.0918 17.3124 24.8079 17.4945 24.6187 17.8587C24.4295 18.2071 24.3349 18.8563 24.3349 19.8064C24.3349 20.7723 24.4295 21.4374 24.6187 21.8016C24.8079 22.1658 25.0918 22.3479 25.4702 22.3479ZM37.9584 31.9913C36.555 31.9913 35.4592 31.5242 34.6708 30.5899C33.8981 29.6557 33.5118 28.4126 33.5118 26.8608C33.5118 25.2932 33.906 24.0501 34.6944 23.1317C35.4828 22.2133 36.5708 21.7541 37.9584 21.7541C39.3617 21.7541 40.4576 22.2212 41.246 23.1555C42.0344 24.0897 42.4286 25.3248 42.4286 26.8608C42.4286 28.4126 42.0344 29.6557 41.246 30.5899C40.4734 31.5242 39.3775 31.9913 37.9584 31.9913ZM37.9584 29.4023C38.321 29.4023 38.597 29.2123 38.7862 28.8323C38.9912 28.4522 39.0937 27.7951 39.0937 26.8608C39.0937 25.9266 38.9912 25.2773 38.7862 24.9131C38.597 24.5489 38.321 24.3668 37.9584 24.3668C37.5957 24.3668 37.3198 24.541 37.1306 24.8894C36.9413 25.2378 36.8467 25.8949 36.8467 26.8608C36.8467 27.8109 36.9413 28.476 37.1306 28.856C37.3198 29.2202 37.5957 29.4023 37.9584 29.4023Z" fill="white" fill-opacity="0.3"/>
<rect x="6.42871" y="14.5352" width="7.23403" height="2.23727" fill="white" fill-opacity="0.3"/>
</svg>
