<svg width="112" height="112" viewBox="0 0 112 112" fill="none" xmlns="http://www.w3.org/2000/svg">
<path d="M7.65685 75.0963C4.53266 71.9721 4.53266 66.9068 7.65685 63.7826L63.7824 7.65702C66.9066 4.53283 71.9719 4.53282 75.0961 7.65702L103.908 36.4687C107.032 39.5929 107.032 44.6583 103.908 47.7825L47.7823 103.908C44.6581 107.032 39.5928 107.032 36.4686 103.908L7.65685 75.0963Z" fill="url(#paint0_linear_260_2651)"/>
<g clip-path="url(#clip0_260_2651)">
<path d="M25.4688 78.0011C24.7398 77.2721 24.7398 76.0902 25.4688 75.3613L39.9879 60.8421C40.7169 60.1132 41.8988 60.1132 42.6278 60.8421C43.3567 61.5711 43.3567 62.753 42.6278 63.482L28.1086 78.0011C27.3797 78.7301 26.1978 78.7301 25.4688 78.0011Z" fill="white"/>
<path d="M42.6279 95.1602C41.8989 94.4313 41.8989 93.2494 42.6279 92.5204L57.147 78.0012C57.876 77.2723 59.0579 77.2723 59.7869 78.0012C60.5159 78.7302 60.5159 79.9121 59.7869 80.6411L45.2678 95.1602C44.5388 95.8892 43.3569 95.8892 42.6279 95.1602Z" fill="white"/>
<rect x="42.5804" y="85.9677" width="12.3333" height="2.79998" rx="1.39999" transform="rotate(-45 42.5804 85.9677)" fill="white"/>
<rect x="39.2803" y="82.6676" width="12.3333" height="2.79998" rx="1.39999" transform="rotate(-45 39.2803 82.6676)" fill="white"/>
<rect x="35.981" y="79.3682" width="12.3333" height="2.79998" rx="1.39999" transform="rotate(-45 35.981 79.3682)" fill="white"/>
<rect x="32.6809" y="76.0682" width="12.3333" height="2.79998" rx="1.39999" transform="rotate(-45 32.6809 76.0682)" fill="white"/>
<rect x="30.701" y="78.0481" width="7.46661" height="1.86665" transform="rotate(45 30.701 78.0481)" fill="white"/>
<ellipse cx="35.3206" cy="83.9874" rx="1.86665" ry="1.86665" transform="rotate(-45 35.3206 83.9874)" fill="white"/>
</g>
<g opacity="0.89">
<g opacity="0.5">
<path d="M73.4592 30.4659C73.5864 30.9538 73.5387 31.362 73.316 31.6908C73.1039 32.0089 72.8123 32.2157 72.4411 32.3111C72.07 32.4066 71.7094 32.3748 71.3594 32.2157C71.0095 32.0354 70.7709 31.7014 70.6436 31.2136L66.6192 16.0543C66.4813 15.5559 66.5185 15.1476 66.7306 14.8295C66.9426 14.5114 67.2343 14.3046 67.6054 14.2091C67.9766 14.1137 68.3371 14.1561 68.6871 14.3364C69.037 14.4955 69.2756 14.8189 69.4029 15.3067L73.4592 30.4659ZM66.9055 28.5253C65.9511 29.4797 64.896 29.9092 63.7401 29.8138C62.5842 29.6971 61.4866 29.1192 60.4473 28.0799C59.3975 27.0301 58.8355 25.9378 58.7612 24.8031C58.6764 23.6578 59.1059 22.6133 60.0497 21.6694C60.9829 20.7362 62.0274 20.3174 63.1833 20.4128C64.3286 20.4976 65.4156 21.0544 66.4442 22.083C67.4835 23.1223 68.0561 24.2252 68.1622 25.3917C68.2682 26.5369 67.8493 27.5815 66.9055 28.5253ZM65.1558 26.7756C65.3997 26.5316 65.458 26.2188 65.3307 25.837C65.2035 25.4553 64.827 24.9516 64.2014 24.3259C63.5757 23.7002 63.072 23.3344 62.6902 23.2283C62.3191 23.1117 62.0168 23.17 61.7835 23.4033C61.529 23.6578 61.4601 23.9706 61.5767 24.3418C61.6828 24.7024 62.0539 25.2008 62.6902 25.837C63.3371 26.4839 63.8461 26.8657 64.2173 26.9823C64.5884 27.099 64.9013 27.0301 65.1558 26.7756ZM80.0128 24.8349C79.069 25.7787 78.0191 26.2029 76.8632 26.1075C75.7179 26.0014 74.6257 25.4288 73.5864 24.3895C72.5366 23.3397 71.9692 22.2421 71.8844 21.0968C71.7995 19.9515 72.2237 18.9123 73.1569 17.9791C74.1007 17.0353 75.1506 16.6111 76.3065 16.7065C77.4624 16.8019 78.5546 17.364 79.5833 18.3926C80.6225 19.4319 81.1899 20.5295 81.2853 21.6854C81.3914 22.8306 80.9672 23.8805 80.0128 24.8349ZM78.2789 23.1011C78.5228 22.8572 78.5812 22.5443 78.4539 22.1626C78.3373 21.7702 77.9661 21.2612 77.3404 20.6355C76.7148 20.0098 76.211 19.644 75.8293 19.5379C75.4581 19.4213 75.1506 19.4849 74.9067 19.7288C74.6628 19.9727 74.5938 20.2749 74.6999 20.6355C74.8059 20.9961 75.1824 21.4998 75.8293 22.1467C76.4655 22.7829 76.9746 23.1647 77.3563 23.2919C77.7275 23.4086 78.035 23.345 78.2789 23.1011Z" fill="#5534B2"/>
<rect width="1.22983" height="4.15685" transform="matrix(0.707107 -0.707106 0.707107 0.707106 80.8633 55.6057)" fill="#5534B2"/>
<rect width="1.22983" height="4.15685" transform="matrix(0.707106 -0.707107 0.707106 0.707107 82.6367 53.8311)" fill="#5534B2"/>
<rect x="84.4121" y="52.0557" width="1.22983" height="4.15685" transform="rotate(-45 84.4121 52.0557)" fill="#5534B2"/>
<rect width="1.22983" height="4.15685" transform="matrix(0.707107 -0.707106 0.707107 0.707106 86.1875 50.2803)" fill="#5534B2"/>
<rect width="1.22983" height="4.15685" transform="matrix(0.707106 -0.707107 0.707106 0.707107 87.9609 48.5059)" fill="#5534B2"/>
<rect width="1.22983" height="4.15685" transform="matrix(0.707106 -0.707107 0.707106 0.707107 89.7383 46.7305)" fill="#5534B2"/>
<rect x="91.5117" y="44.9551" width="1.22983" height="4.15685" transform="rotate(-45 91.5117 44.9551)" fill="#5534B2"/>
<rect x="12.0225" y="68.6184" width="5.05159" height="5.22029" transform="rotate(-45 12.0225 68.6184)" fill="#5534B2"/>
<rect x="17.3799" y="63.2607" width="23.8722" height="5.22029" transform="rotate(-45 17.3799 63.2607)" fill="#5534B2"/>
</g>
</g>
<defs>
<linearGradient id="paint0_linear_260_2651" x1="37.5" y1="37.5002" x2="66.9741" y2="81.7536" gradientUnits="userSpaceOnUse">
<stop stop-color="white"/>
<stop offset="1" stop-color="#A282FF"/>
</linearGradient>
<clipPath id="clip0_260_2651">
<rect width="32" height="32" fill="white" transform="translate(20 78.001) rotate(-45)"/>
</clipPath>
</defs>
</svg>
