<svg width="112" height="112" viewBox="0 0 112 112" fill="none" xmlns="http://www.w3.org/2000/svg">
<path d="M7.65685 75.0963C4.53266 71.9721 4.53266 66.9068 7.65685 63.7826L63.7824 7.65702C66.9066 4.53283 71.9719 4.53282 75.0961 7.65702L103.908 36.4687C107.032 39.5929 107.032 44.6583 103.908 47.7825L47.7823 103.908C44.6581 107.032 39.5928 107.032 36.4686 103.908L7.65685 75.0963Z" fill="url(#paint0_linear_260_2723)"/>
<g clip-path="url(#clip0_260_2723)">
<path d="M32.7981 68.3626C32.4851 68.3521 32.1873 68.4991 32.0049 68.7539C31.8224 69.0086 31.7792 69.3375 31.8897 69.6307L38.896 88.6002C38.5578 88.7981 38.2325 89.025 37.9428 89.3147C36.1153 91.1422 36.1153 94.1162 37.9428 95.9438C39.7704 97.7714 42.7444 97.7714 44.572 95.9438C46.3995 94.1162 46.3995 91.1422 44.572 89.3147C44.0266 88.7694 43.3743 88.4071 42.6857 88.1872L36.2279 70.9266C35.7171 69.3942 34.3199 68.4138 32.7981 68.3626ZM43.2461 94.618C42.1495 95.7146 40.3653 95.7146 39.2687 94.618C38.172 93.5214 38.172 91.7371 39.2687 90.6405C40.3653 89.5439 42.1495 89.5439 43.2461 90.6405C44.3428 91.7371 44.3428 93.5214 43.2461 94.618Z" fill="white"/>
<path d="M45.8978 81.3597C45.6081 81.6494 45.3811 81.9747 45.1833 82.3129L42.0573 81.1583L43.767 85.7271L44.7702 86.1025C44.9901 86.7912 45.3525 87.4435 45.8978 87.9889C47.7253 89.8164 50.6993 89.8164 52.5269 87.9889C54.3545 86.1613 54.3545 83.1873 52.5269 81.3597C50.6993 79.5322 47.7253 79.5322 45.8978 81.3597ZM51.2011 86.663C50.1044 87.7597 48.3202 87.7597 47.2236 86.663C46.127 85.5664 46.127 83.7822 47.2236 82.6856C48.3202 81.5889 50.1044 81.5889 51.2011 82.6856C52.2977 83.7822 52.2977 85.5664 51.2011 86.663Z" fill="white"/>
<path d="M42.0087 58.7323C41.4256 59.3154 41.2143 59.5268 41.1465 59.5945C41.1257 59.6154 41.1183 59.6227 41.1179 59.6231C40.9943 59.7467 40.3945 60.3465 37.9429 62.7981C37.5765 63.1645 37.5765 63.7575 37.9429 64.124C38.3093 64.4904 38.9023 64.4904 39.2687 64.124L41.3458 62.0468L42.6717 63.3727L40.5945 65.4498C40.2281 65.8162 40.2281 66.4092 40.5945 66.7756C40.9609 67.142 41.5539 67.142 41.9204 66.7756L43.9975 64.6985L45.3233 66.0243L43.2462 68.1014C42.8798 68.4678 42.8798 69.0608 43.2462 69.4273C43.6126 69.7937 44.2056 69.7937 44.572 69.4273L46.6491 67.3501L47.975 68.676L45.8978 70.7531C45.5314 71.1195 45.5314 71.7125 45.8978 72.0789C46.2642 72.4453 46.8572 72.4453 47.2237 72.0789L49.3008 70.0018L50.6266 71.3276L48.5495 73.4047C48.1831 73.7712 48.1831 74.3641 48.5495 74.7306C48.9159 75.097 49.5089 75.097 49.8753 74.7306L51.9524 72.6534L53.2783 73.9793L51.2011 76.0564C50.8347 76.4228 50.8347 77.0158 51.2011 77.3822C51.5675 77.7486 52.1605 77.7486 52.527 77.3822L54.6041 75.3051L55.9299 76.6309L53.8528 78.708C53.4864 79.0745 53.4864 79.6674 53.8528 80.0339C54.2192 80.4003 54.8122 80.4003 55.1786 80.0339L57.2557 77.9567L58.5816 79.2826L56.5044 81.3597C56.138 81.7261 56.138 82.3191 56.5044 82.6855C56.8708 83.0519 57.4638 83.0519 57.8303 82.6855C60.278 80.2377 60.8803 79.6355 61.0052 79.5106C61.0272 79.4886 61.0344 79.4814 61.0342 79.4815C61.1027 79.4131 61.3146 79.2012 61.8961 78.6197C62.9927 77.5231 62.9927 75.7389 61.8961 74.6422L45.9862 58.7323C44.8895 57.6357 43.1053 57.6357 42.0087 58.7323Z" fill="white"/>
<path d="M26.2138 75.3066C25.9207 75.1961 25.5917 75.2393 25.3371 75.4218C25.0823 75.6042 24.9353 75.9019 24.9458 76.215C24.9969 77.7368 25.9774 79.134 27.5098 79.6448L34.5645 82.2843L32.8995 77.7759L26.2138 75.3066Z" fill="white"/>
</g>
<g opacity="0.89">
<g opacity="0.5">
<path d="M73.4592 30.4659C73.5864 30.9538 73.5387 31.362 73.316 31.6908C73.1039 32.0089 72.8123 32.2157 72.4411 32.3111C72.07 32.4066 71.7094 32.3748 71.3594 32.2157C71.0095 32.0354 70.7709 31.7014 70.6436 31.2136L66.6192 16.0543C66.4813 15.5559 66.5185 15.1476 66.7306 14.8295C66.9426 14.5114 67.2343 14.3046 67.6054 14.2091C67.9766 14.1137 68.3371 14.1561 68.6871 14.3364C69.037 14.4955 69.2756 14.8189 69.4029 15.3067L73.4592 30.4659ZM66.9055 28.5253C65.9511 29.4797 64.896 29.9092 63.7401 29.8138C62.5842 29.6971 61.4866 29.1192 60.4473 28.0799C59.3975 27.0301 58.8355 25.9378 58.7612 24.8031C58.6764 23.6578 59.1059 22.6133 60.0497 21.6694C60.9829 20.7362 62.0274 20.3174 63.1833 20.4128C64.3286 20.4976 65.4156 21.0544 66.4442 22.083C67.4835 23.1223 68.0561 24.2252 68.1622 25.3917C68.2682 26.5369 67.8493 27.5815 66.9055 28.5253ZM65.1558 26.7756C65.3997 26.5316 65.458 26.2188 65.3307 25.837C65.2035 25.4553 64.827 24.9516 64.2014 24.3259C63.5757 23.7002 63.072 23.3344 62.6902 23.2283C62.3191 23.1117 62.0168 23.17 61.7835 23.4033C61.529 23.6578 61.4601 23.9706 61.5767 24.3418C61.6828 24.7024 62.0539 25.2008 62.6902 25.837C63.3371 26.4839 63.8461 26.8657 64.2173 26.9823C64.5884 27.099 64.9013 27.0301 65.1558 26.7756ZM80.0128 24.8349C79.069 25.7787 78.0191 26.2029 76.8632 26.1075C75.7179 26.0014 74.6257 25.4288 73.5864 24.3895C72.5366 23.3397 71.9692 22.2421 71.8844 21.0968C71.7995 19.9515 72.2237 18.9123 73.1569 17.9791C74.1007 17.0353 75.1506 16.6111 76.3065 16.7065C77.4624 16.8019 78.5546 17.364 79.5833 18.3926C80.6225 19.4319 81.1899 20.5295 81.2853 21.6854C81.3914 22.8306 80.9672 23.8805 80.0128 24.8349ZM78.2789 23.1011C78.5228 22.8572 78.5812 22.5443 78.4539 22.1626C78.3373 21.7702 77.9661 21.2612 77.3404 20.6355C76.7148 20.0098 76.211 19.644 75.8293 19.5379C75.4581 19.4213 75.1506 19.4849 74.9067 19.7288C74.6628 19.9727 74.5938 20.2749 74.6999 20.6355C74.8059 20.9961 75.1824 21.4998 75.8293 22.1467C76.4655 22.7829 76.9746 23.1647 77.3563 23.2919C77.7275 23.4086 78.035 23.345 78.2789 23.1011Z" fill="#091A23"/>
<rect width="1.22983" height="4.15685" transform="matrix(0.707107 -0.707106 0.707107 0.707106 80.8633 55.6057)" fill="#091A23"/>
<rect width="1.22983" height="4.15685" transform="matrix(0.707106 -0.707107 0.707106 0.707107 82.6367 53.8311)" fill="#091A23"/>
<rect x="84.4121" y="52.0557" width="1.22983" height="4.15685" transform="rotate(-45 84.4121 52.0557)" fill="#091A23"/>
<rect width="1.22983" height="4.15685" transform="matrix(0.707107 -0.707106 0.707107 0.707106 86.1875 50.2803)" fill="#091A23"/>
<rect width="1.22983" height="4.15685" transform="matrix(0.707106 -0.707107 0.707106 0.707107 87.9609 48.5059)" fill="#091A23"/>
<rect width="1.22983" height="4.15685" transform="matrix(0.707106 -0.707107 0.707106 0.707107 89.7383 46.7305)" fill="#091A23"/>
<rect x="91.5117" y="44.9551" width="1.22983" height="4.15685" transform="rotate(-45 91.5117 44.9551)" fill="#091A23"/>
<rect x="12.0225" y="68.6184" width="5.05159" height="5.22029" transform="rotate(-45 12.0225 68.6184)" fill="#091A23"/>
<rect x="17.3799" y="63.2607" width="23.8722" height="5.22029" transform="rotate(-45 17.3799 63.2607)" fill="#091A23"/>
</g>
</g>
<defs>
<linearGradient id="paint0_linear_260_2723" x1="109.565" y1="42.1248" x2="48.3743" y2="-19.0664" gradientUnits="userSpaceOnUse">
<stop stop-color="#5C7684"/>
<stop offset="1" stop-color="#C4CCCD"/>
</linearGradient>
<clipPath id="clip0_260_2723">
<rect width="32" height="32" fill="white" transform="translate(20 78.001) rotate(-45)"/>
</clipPath>
</defs>
</svg>
