<svg width="112" height="112" viewBox="0 0 112 112" fill="none" xmlns="http://www.w3.org/2000/svg">
<path d="M7.65685 75.0963C4.53266 71.9721 4.53266 66.9068 7.65685 63.7826L63.7824 7.65702C66.9066 4.53283 71.9719 4.53282 75.0961 7.65702L103.908 36.4687C107.032 39.5929 107.032 44.6583 103.908 47.7825L47.7823 103.908C44.6581 107.032 39.5928 107.032 36.4686 103.908L7.65685 75.0963Z" fill="url(#paint0_linear_260_2669)"/>
<path d="M7.65685 75.0963C4.53266 71.9721 4.53266 66.9068 7.65685 63.7826L63.7824 7.65702C66.9066 4.53283 71.9719 4.53282 75.0961 7.65702L103.908 36.4687C107.032 39.5929 107.032 44.6583 103.908 47.7825L47.7823 103.908C44.6581 107.032 39.5928 107.032 36.4686 103.908L7.65685 75.0963Z" fill="url(#paint1_linear_260_2669)" fill-opacity="0.7"/>
<g clip-path="url(#clip0_260_2669)">
<path d="M55.2669 81.3597C55.6329 81.7257 55.6329 82.3196 55.2669 82.6856L47.312 90.6405C46.9461 91.0064 46.3521 91.0064 45.9862 90.6405L42.6716 87.3259L39.0163 90.9812L44.8119 95.1205C45.9353 95.923 47.4592 95.7966 48.435 94.8208L59.4473 83.8085C60.4231 82.8327 60.5495 81.3089 59.7469 80.1855L55.6077 74.3899L51.9524 78.0452L55.2669 81.3597Z" fill="white"/>
<path d="M34.0537 78.7081C33.6878 78.3422 33.6878 77.7482 34.0537 77.3823L42.0087 69.4273C42.3746 69.0614 42.9686 69.0614 43.3345 69.4273L45.3232 71.416L48.9162 67.8231L44.4703 64.8594C43.3588 64.1183 41.8664 64.2663 40.922 65.2107L40.0199 66.1127L37.9428 64.0356C36.8462 62.939 35.0619 62.939 33.9653 64.0356L28.662 69.3389C27.5655 70.4355 27.5655 72.2198 28.662 73.3164L30.7392 75.3935L29.8372 76.2955C28.8927 77.24 28.7447 78.7324 29.4858 79.8439L32.4495 84.2898L36.0425 80.6968L34.0537 78.7081ZM29.9879 71.9906C29.6223 71.625 29.6223 71.0303 29.9879 70.6647L35.2912 65.3614C35.6567 64.9959 36.2515 64.9959 36.617 65.3614L38.6941 67.4386L32.065 74.0677L29.9879 71.9906Z" fill="white"/>
<path d="M53.2782 82.0226C52.26 81.0044 43.7228 72.4673 42.6716 71.416L41.3458 72.7419L51.9524 83.3485L53.2782 82.0226Z" fill="white"/>
<path d="M47.9749 87.3259C45.6017 84.9527 39.4402 78.7912 37.3683 76.7193L36.0425 78.0452L46.6491 88.6518L47.9749 87.3259Z" fill="white"/>
<path d="M50.6265 84.6743C49.4365 83.4842 41.1892 75.237 40.0199 74.0677L38.6941 75.3935L49.3007 86.0001L50.6265 84.6743Z" fill="white"/>
<path d="M37.3683 82.0226L32.7279 86.663C32.362 87.029 32.362 87.6229 32.7279 87.9889L35.3796 90.6405C35.7455 91.0064 36.3395 91.0064 36.7054 90.6405L41.3458 86.0001L37.3683 82.0226Z" fill="white"/>
<path d="M51.2894 68.1015L46.649 72.7419L50.6265 76.7193L55.2669 72.079C55.6328 71.713 55.6328 71.1191 55.2669 70.7531L52.6153 68.1015C52.2493 67.7356 51.6554 67.7356 51.2894 68.1015Z" fill="white"/>
</g>
<g opacity="0.89">
<g opacity="0.5">
<path d="M73.4592 30.4659C73.5864 30.9538 73.5387 31.362 73.316 31.6908C73.1039 32.0089 72.8123 32.2157 72.4411 32.3111C72.07 32.4066 71.7094 32.3748 71.3594 32.2157C71.0095 32.0354 70.7709 31.7014 70.6436 31.2136L66.6192 16.0543C66.4813 15.5559 66.5185 15.1476 66.7306 14.8295C66.9426 14.5114 67.2343 14.3046 67.6054 14.2091C67.9766 14.1137 68.3371 14.1561 68.6871 14.3364C69.037 14.4955 69.2756 14.8189 69.4029 15.3067L73.4592 30.4659ZM66.9055 28.5253C65.9511 29.4797 64.896 29.9092 63.7401 29.8138C62.5842 29.6971 61.4866 29.1192 60.4473 28.0799C59.3975 27.0301 58.8355 25.9378 58.7612 24.8031C58.6764 23.6578 59.1059 22.6133 60.0497 21.6694C60.9829 20.7362 62.0274 20.3174 63.1833 20.4128C64.3286 20.4976 65.4156 21.0544 66.4442 22.083C67.4835 23.1223 68.0561 24.2252 68.1622 25.3917C68.2682 26.5369 67.8493 27.5815 66.9055 28.5253ZM65.1558 26.7756C65.3997 26.5316 65.458 26.2188 65.3307 25.837C65.2035 25.4553 64.827 24.9516 64.2014 24.3259C63.5757 23.7002 63.072 23.3344 62.6902 23.2283C62.3191 23.1117 62.0168 23.17 61.7835 23.4033C61.529 23.6578 61.4601 23.9706 61.5767 24.3418C61.6828 24.7024 62.0539 25.2008 62.6902 25.837C63.3371 26.4839 63.8461 26.8657 64.2173 26.9823C64.5884 27.099 64.9013 27.0301 65.1558 26.7756ZM80.0128 24.8349C79.069 25.7787 78.0191 26.2029 76.8632 26.1075C75.7179 26.0014 74.6257 25.4288 73.5864 24.3895C72.5366 23.3397 71.9692 22.2421 71.8844 21.0968C71.7995 19.9515 72.2237 18.9123 73.1569 17.9791C74.1007 17.0353 75.1506 16.6111 76.3065 16.7065C77.4624 16.8019 78.5546 17.364 79.5833 18.3926C80.6225 19.4319 81.1899 20.5295 81.2853 21.6854C81.3914 22.8306 80.9672 23.8805 80.0128 24.8349ZM78.2789 23.1011C78.5228 22.8572 78.5812 22.5443 78.4539 22.1626C78.3373 21.7702 77.9661 21.2612 77.3404 20.6355C76.7148 20.0098 76.211 19.644 75.8293 19.5379C75.4581 19.4213 75.1506 19.4849 74.9067 19.7288C74.6628 19.9727 74.5938 20.2749 74.6999 20.6355C74.8059 20.9961 75.1824 21.4998 75.8293 22.1467C76.4655 22.7829 76.9746 23.1647 77.3563 23.2919C77.7275 23.4086 78.035 23.345 78.2789 23.1011Z" fill="#5F0000"/>
<rect width="1.22983" height="4.15685" transform="matrix(0.707107 -0.707106 0.707107 0.707106 80.8633 55.6057)" fill="#5F0000"/>
<rect width="1.22983" height="4.15685" transform="matrix(0.707106 -0.707107 0.707106 0.707107 82.6367 53.8311)" fill="#5F0000"/>
<rect x="84.4121" y="52.0557" width="1.22983" height="4.15685" transform="rotate(-45 84.4121 52.0557)" fill="#5F0000"/>
<rect width="1.22983" height="4.15685" transform="matrix(0.707107 -0.707106 0.707107 0.707106 86.1875 50.2803)" fill="#5F0000"/>
<rect width="1.22983" height="4.15685" transform="matrix(0.707106 -0.707107 0.707106 0.707107 87.9609 48.5059)" fill="#5F0000"/>
<rect width="1.22983" height="4.15685" transform="matrix(0.707106 -0.707107 0.707106 0.707107 89.7383 46.7305)" fill="#5F0000"/>
<rect x="91.5117" y="44.9551" width="1.22983" height="4.15685" transform="rotate(-45 91.5117 44.9551)" fill="#5F0000"/>
<rect x="12.0225" y="68.6184" width="5.05159" height="5.22029" transform="rotate(-45 12.0225 68.6184)" fill="#5F0000"/>
<rect x="17.3799" y="63.2607" width="23.8722" height="5.22029" transform="rotate(-45 17.3799 63.2607)" fill="#5F0000"/>
</g>
</g>
<defs>
<linearGradient id="paint0_linear_260_2669" x1="75.2674" y1="70.5263" x2="73.0967" y2="15.9767" gradientUnits="userSpaceOnUse">
<stop stop-color="#FE7003"/>
<stop offset="0.97671" stop-color="#FFE200"/>
</linearGradient>
<linearGradient id="paint1_linear_260_2669" x1="56" y1="97.5" x2="5.9995" y2="51" gradientUnits="userSpaceOnUse">
<stop stop-color="#FF6A00"/>
<stop offset="0.97671" stop-color="#FF6A00" stop-opacity="0.32"/>
</linearGradient>
<clipPath id="clip0_260_2669">
<rect width="32" height="32" fill="white" transform="translate(20 78.001) rotate(-45)"/>
</clipPath>
</defs>
</svg>
