<svg width="363" height="159" viewBox="0 0 363 159" fill="none" xmlns="http://www.w3.org/2000/svg">
<g clip-path="url(#clip0_4052_696)">
<path d="M59.8825 30.7628C63.0067 27.6386 68.072 27.6386 71.1962 30.7628L127.322 86.8884C130.446 90.0126 130.446 95.0779 127.322 98.2021L98.51 127.014C95.3858 130.138 90.3205 130.138 87.1963 127.014L31.0707 70.8882C27.9465 67.7641 27.9465 62.6987 31.0707 59.5745L59.8825 30.7628Z" fill="#5BC4FF"/>
<g clip-path="url(#clip1_4052_696)">
<path fill-rule="evenodd" clip-rule="evenodd" d="M46.4875 60.4413C45.957 60.4413 45.4483 60.652 45.0732 61.0271L38.7726 67.3278C37.9915 68.1088 37.9915 69.3752 38.7726 70.1562L52.5455 83.9291C53.3265 84.7102 54.5929 84.7102 55.3739 83.9291L61.6746 77.6285C62.0497 77.2534 62.2604 76.7447 62.2604 76.2142L62.2604 60.4413L46.4875 60.4413ZM47.9225 74.7791C50.0063 76.8629 53.3848 76.8629 55.4686 74.7791C57.5524 72.6953 57.5524 69.3168 55.4686 67.233C53.3848 65.1492 50.0063 65.1492 47.9225 67.233C45.8387 69.3168 45.8387 72.6953 47.9225 74.7791Z" fill="white"/>
<rect x="68.2554" y="54.4482" width="3.39162" height="22.344" rx="1.69581" transform="rotate(90 68.2554 54.4482)" fill="white"/>
<rect width="3.39162" height="22.4083" rx="1.69581" transform="matrix(-1 1.26441e-07 4.21468e-08 1 68.2578 54.4507)" fill="white"/>
</g>
<path d="M75.2318 99.3283C74.0319 99.6437 73.0284 99.5285 72.2214 98.9827C71.4404 98.463 70.9335 97.7471 70.7008 96.8351C70.4681 95.9231 70.5482 95.0366 70.9411 94.1754C71.3861 93.3141 72.2086 92.7258 73.4085 92.4104L110.698 82.4375C111.924 82.0959 112.927 82.1851 113.709 82.7048C114.49 83.2246 114.996 83.9405 115.229 84.8524C115.462 85.7644 115.356 86.6511 114.911 87.5123C114.518 88.3735 113.721 88.9618 112.521 89.2772L75.2318 99.3283ZM80.037 83.2064C77.6956 80.8649 76.6452 78.2731 76.8858 75.4309C77.1787 72.5886 78.6052 69.8872 81.1656 67.3268C83.7521 64.7403 86.4403 63.3529 89.2303 63.1645C92.0464 62.9499 94.6122 64.0004 96.9276 66.3158C99.2169 68.6051 100.241 71.171 100.001 74.0132C99.7861 76.8293 98.4117 79.5045 95.8775 82.0387C93.3171 84.5991 90.6028 86.0126 87.7344 86.2794C84.9182 86.5461 82.3524 85.5218 80.037 83.2064ZM84.3478 78.8955C84.9462 79.4939 85.7149 79.6357 86.6542 79.3208C87.5934 79.006 88.8337 78.0778 90.3752 76.5364C91.9166 74.9949 92.8187 73.7547 93.0814 72.8156C93.3701 71.9025 93.2283 71.1597 92.6559 70.5874C92.0316 69.963 91.2628 69.7952 90.3497 70.0839C89.4628 70.3465 88.2355 71.2616 86.6679 72.8291C85.0742 74.4228 84.133 75.6762 83.8443 76.5893C83.5556 77.5024 83.7234 78.2712 84.3478 78.8955ZM89.0414 115.411C86.726 113.095 85.6886 110.517 85.9293 107.674C86.1959 104.858 87.6095 102.17 90.1698 99.6095C92.7563 97.023 95.4576 95.6225 98.2737 95.408C101.09 95.1934 103.643 96.2309 105.932 98.5202C108.247 100.836 109.285 103.414 109.044 106.257C108.803 109.099 107.416 111.787 104.882 114.321C102.321 116.882 99.6201 118.282 96.7778 118.523C93.9616 118.79 91.3828 117.752 89.0414 115.411ZM93.313 111.139C93.9114 111.738 94.6802 111.879 95.6194 111.564C96.5846 111.276 97.838 110.361 99.3794 108.819C100.921 107.278 101.823 106.037 102.086 105.098C102.374 104.185 102.22 103.429 101.621 102.831C101.023 102.233 100.28 102.065 99.3932 102.327C98.5062 102.59 97.2659 103.518 95.6722 105.112C94.1046 106.679 93.1634 107.933 92.8485 108.872C92.5598 109.785 92.7147 110.541 93.313 111.139Z" fill="white" fill-opacity="0.3"/>
<rect x="65.821" y="34.5884" width="16.8794" height="5.22029" transform="rotate(45 65.821 34.5884)" fill="white" fill-opacity="0.3"/>
</g>
<g clip-path="url(#clip2_4052_696)">
<path d="M110.882 30.7628C114.007 27.6386 119.072 27.6386 122.196 30.7628L178.322 86.8884C181.446 90.0126 181.446 95.0779 178.322 98.2021L149.51 127.014C146.386 130.138 141.321 130.138 138.196 127.014L82.0707 70.8882C78.9465 67.7641 78.9465 62.6987 82.0707 59.5745L110.882 30.7628Z" fill="#6BBE00"/>
<g clip-path="url(#clip3_4052_696)">
<path fill-rule="evenodd" clip-rule="evenodd" d="M117.877 55.8341C119.927 57.8836 121.208 60.4104 121.721 63.0567C118.805 63.3636 115.781 62.3998 113.546 60.1651C111.312 57.9304 110.348 54.9062 110.655 51.9904C113.301 52.5033 115.828 53.7846 117.877 55.8341ZM111.69 62.0212C114.503 64.8338 118.307 66.0499 121.978 65.6693C121.994 69.2736 120.627 72.883 117.877 75.6331C115.127 78.3831 111.518 79.7499 107.914 79.7334C108.294 76.063 107.078 72.2585 104.265 69.4459C101.453 66.6333 97.6483 65.4173 93.9779 65.7978C93.9615 62.1935 95.3283 58.5841 98.0783 55.8341C100.828 53.0841 104.438 51.7173 108.042 51.7337C107.661 55.4041 108.877 59.2087 111.69 62.0212ZM105.301 79.4767C102.655 78.9638 100.128 77.6826 98.0783 75.6331C96.0288 73.5836 94.7476 71.0567 94.2346 68.4104C97.1504 68.1035 100.175 69.0674 102.409 71.302C104.644 73.5367 105.608 76.5609 105.301 79.4767Z" fill="white"/>
</g>
<path d="M126.232 99.3283C125.032 99.6437 124.028 99.5285 123.221 98.9827C122.44 98.463 121.934 97.7471 121.701 96.8351C121.468 95.9231 121.548 95.0366 121.941 94.1754C122.386 93.3141 123.209 92.7258 124.409 92.4104L161.698 82.4375C162.924 82.0959 163.927 82.1851 164.709 82.7048C165.49 83.2246 165.996 83.9405 166.229 84.8524C166.462 85.7644 166.356 86.6511 165.911 87.5123C165.518 88.3735 164.721 88.9618 163.521 89.2772L126.232 99.3283ZM131.037 83.2064C128.696 80.8649 127.645 78.2731 127.886 75.4309C128.179 72.5886 129.605 69.8872 132.166 67.3268C134.752 64.7403 137.44 63.3529 140.23 63.1645C143.046 62.9499 145.612 64.0004 147.928 66.3158C150.217 68.6051 151.241 71.171 151.001 74.0132C150.786 76.8293 149.412 79.5045 146.877 82.0387C144.317 84.5991 141.603 86.0126 138.734 86.2794C135.918 86.5461 133.352 85.5218 131.037 83.2064ZM135.348 78.8955C135.946 79.4939 136.715 79.6357 137.654 79.3208C138.593 79.006 139.834 78.0778 141.375 76.5364C142.917 74.9949 143.819 73.7547 144.081 72.8156C144.37 71.9025 144.228 71.1597 143.656 70.5874C143.032 69.963 142.263 69.7952 141.35 70.0839C140.463 70.3465 139.235 71.2616 137.668 72.8291C136.074 74.4228 135.133 75.6762 134.844 76.5893C134.556 77.5024 134.723 78.2712 135.348 78.8955ZM140.041 115.411C137.726 113.095 136.689 110.517 136.929 107.674C137.196 104.858 138.609 102.17 141.17 99.6095C143.756 97.023 146.458 95.6225 149.274 95.408C152.09 95.1934 154.643 96.2309 156.932 98.5202C159.247 100.836 160.285 103.414 160.044 106.257C159.803 109.099 158.416 111.787 155.882 114.321C153.321 116.882 150.62 118.282 147.778 118.523C144.962 118.79 142.383 117.752 140.041 115.411ZM144.313 111.139C144.911 111.738 145.68 111.879 146.619 111.564C147.585 111.276 148.838 110.361 150.379 108.819C151.921 107.278 152.823 106.037 153.086 105.098C153.374 104.185 153.22 103.429 152.621 102.831C152.023 102.233 151.28 102.065 150.393 102.327C149.506 102.59 148.266 103.518 146.672 105.112C145.105 106.679 144.163 107.933 143.849 108.872C143.56 109.785 143.715 110.541 144.313 111.139Z" fill="white" fill-opacity="0.3"/>
<rect x="116.821" y="34.5884" width="16.8794" height="5.22029" transform="rotate(45 116.821 34.5884)" fill="white" fill-opacity="0.3"/>
</g>
<g clip-path="url(#clip4_4052_696)">
<path d="M161.882 30.7628C165.007 27.6386 170.072 27.6386 173.196 30.7628L229.322 86.8884C232.446 90.0126 232.446 95.0779 229.322 98.2021L200.51 127.014C197.386 130.138 192.321 130.138 189.196 127.014L133.071 70.8882C129.947 67.7641 129.947 62.6987 133.071 59.5745L161.882 30.7628Z" fill="#AA75FF"/>
<g clip-path="url(#clip5_4052_696)">
<path d="M158.978 48.5748C159.707 47.8458 160.889 47.8458 161.618 48.5748L176.137 63.0939C176.866 63.8229 176.866 65.0048 176.137 65.7338V65.7338C175.408 66.4628 174.226 66.4628 173.497 65.7338L158.978 51.2146C158.249 50.4857 158.249 49.3038 158.978 48.5748V48.5748Z" fill="white"/>
<path d="M141.819 65.734C142.547 65.005 143.729 65.005 144.458 65.734L158.977 80.2531C159.706 80.9821 159.706 82.164 158.977 82.893V82.893C158.249 83.6219 157.067 83.6219 156.338 82.893L141.819 68.3738C141.09 67.6449 141.09 66.463 141.819 65.734V65.734Z" fill="white"/>
<rect x="151.011" y="65.6865" width="12.3333" height="2.79998" rx="1.39999" transform="rotate(45 151.011 65.6865)" fill="white"/>
<rect x="154.311" y="62.3862" width="12.3333" height="2.79998" rx="1.39999" transform="rotate(45 154.311 62.3862)" fill="white"/>
<rect x="157.611" y="59.0869" width="12.3333" height="2.79998" rx="1.39999" transform="rotate(45 157.611 59.0869)" fill="white"/>
<rect x="160.911" y="55.7871" width="12.3333" height="2.79998" rx="1.39999" transform="rotate(45 160.911 55.7871)" fill="white"/>
<rect x="158.931" y="53.8071" width="7.46661" height="1.86665" transform="rotate(135 158.931 53.8071)" fill="white"/>
<ellipse cx="152.991" cy="58.4265" rx="1.86665" ry="1.86665" transform="rotate(45 152.991 58.4265)" fill="white"/>
</g>
<path d="M177.232 99.3283C176.032 99.6437 175.028 99.5285 174.221 98.9827C173.44 98.463 172.934 97.7471 172.701 96.8351C172.468 95.9231 172.548 95.0366 172.941 94.1754C173.386 93.3141 174.209 92.7258 175.409 92.4104L212.698 82.4375C213.924 82.0959 214.927 82.1851 215.709 82.7048C216.49 83.2246 216.996 83.9405 217.229 84.8524C217.462 85.7644 217.356 86.6511 216.911 87.5123C216.518 88.3735 215.721 88.9618 214.521 89.2772L177.232 99.3283ZM182.037 83.2064C179.696 80.8649 178.645 78.2731 178.886 75.4309C179.179 72.5886 180.605 69.8872 183.166 67.3268C185.752 64.7403 188.44 63.3529 191.23 63.1645C194.046 62.9499 196.612 64.0004 198.928 66.3158C201.217 68.6051 202.241 71.171 202.001 74.0132C201.786 76.8293 200.412 79.5045 197.877 82.0387C195.317 84.5991 192.603 86.0126 189.734 86.2794C186.918 86.5461 184.352 85.5218 182.037 83.2064ZM186.348 78.8955C186.946 79.4939 187.715 79.6357 188.654 79.3208C189.593 79.006 190.834 78.0778 192.375 76.5364C193.917 74.9949 194.819 73.7547 195.081 72.8156C195.37 71.9025 195.228 71.1597 194.656 70.5874C194.032 69.963 193.263 69.7952 192.35 70.0839C191.463 70.3465 190.235 71.2616 188.668 72.8291C187.074 74.4228 186.133 75.6762 185.844 76.5893C185.556 77.5024 185.723 78.2712 186.348 78.8955ZM191.041 115.411C188.726 113.095 187.689 110.517 187.929 107.674C188.196 104.858 189.609 102.17 192.17 99.6095C194.756 97.023 197.458 95.6225 200.274 95.408C203.09 95.1934 205.643 96.2309 207.932 98.5202C210.247 100.836 211.285 103.414 211.044 106.257C210.803 109.099 209.416 111.787 206.882 114.321C204.321 116.882 201.62 118.282 198.778 118.523C195.962 118.79 193.383 117.752 191.041 115.411ZM195.313 111.139C195.911 111.738 196.68 111.879 197.619 111.564C198.585 111.276 199.838 110.361 201.379 108.819C202.921 107.278 203.823 106.037 204.086 105.098C204.374 104.185 204.22 103.429 203.621 102.831C203.023 102.233 202.28 102.065 201.393 102.327C200.506 102.59 199.266 103.518 197.672 105.112C196.105 106.679 195.163 107.933 194.849 108.872C194.56 109.785 194.715 110.541 195.313 111.139Z" fill="white" fill-opacity="0.3"/>
<rect x="167.821" y="34.5884" width="16.8794" height="5.22029" transform="rotate(45 167.821 34.5884)" fill="white" fill-opacity="0.3"/>
</g>
<g clip-path="url(#clip6_4052_696)">
<path d="M212.882 30.7628C216.007 27.6386 221.072 27.6386 224.196 30.7628L280.322 86.8884C283.446 90.0126 283.446 95.0779 280.322 98.2021L251.51 127.014C248.386 130.138 243.321 130.138 240.196 127.014L184.071 70.8882C180.947 67.7641 180.947 62.6987 184.071 59.5745L212.882 30.7628Z" fill="#FEB803"/>
<g clip-path="url(#clip7_4052_696)">
<path d="M227.371 69.5963C227.481 68.4452 227.13 67.3259 226.381 66.4448L225.776 65.7331C226.07 65.3872 226.381 65.0215 226.381 65.0216C227.13 64.1404 227.481 63.0211 227.371 61.87C227.26 60.7188 226.702 59.6872 225.799 58.9645C225.003 58.3282 224.005 57.9993 222.987 58.0385C221.969 58.0777 220.999 58.4824 220.255 59.1779L218.114 61.1785L201.841 61.1787L199.701 59.1781C198.957 58.4825 197.986 58.0778 196.968 58.0386C195.951 57.9995 194.952 58.3284 194.157 58.9647C193.254 59.6871 192.695 60.7189 192.585 61.8701C192.474 63.0213 192.826 64.1406 193.575 65.0217L194.18 65.7334C193.885 66.0794 193.575 66.4449 193.575 66.445C192.826 67.3262 192.474 68.4454 192.585 69.5966C192.68 70.5873 193.107 71.4897 193.8 72.1825C193.912 72.2947 194.031 72.4013 194.157 72.502C194.952 73.1383 195.951 73.4672 196.969 73.428C197.986 73.3888 198.957 72.9842 199.701 72.2886L201.841 70.288L218.114 70.2879L220.255 72.2885C220.999 72.984 221.969 73.3887 222.987 73.4279C224.005 73.4671 225.003 73.1383 225.799 72.5019C226.702 71.7794 227.26 70.7476 227.371 69.5963V69.5963Z" fill="white"/>
</g>
<path d="M228.232 99.3283C227.032 99.6437 226.028 99.5285 225.221 98.9827C224.44 98.463 223.934 97.7471 223.701 96.8351C223.468 95.9231 223.548 95.0366 223.941 94.1754C224.386 93.3141 225.209 92.7258 226.409 92.4104L263.698 82.4375C264.924 82.0959 265.927 82.1851 266.709 82.7048C267.49 83.2246 267.996 83.9405 268.229 84.8524C268.462 85.7644 268.356 86.6511 267.911 87.5123C267.518 88.3735 266.721 88.9618 265.521 89.2772L228.232 99.3283ZM233.037 83.2064C230.696 80.8649 229.645 78.2731 229.886 75.4309C230.179 72.5886 231.605 69.8872 234.166 67.3268C236.752 64.7403 239.44 63.3529 242.23 63.1645C245.046 62.9499 247.612 64.0004 249.928 66.3158C252.217 68.6051 253.241 71.171 253.001 74.0132C252.786 76.8293 251.412 79.5045 248.877 82.0387C246.317 84.5991 243.603 86.0126 240.734 86.2794C237.918 86.5461 235.352 85.5218 233.037 83.2064ZM237.348 78.8955C237.946 79.4939 238.715 79.6357 239.654 79.3208C240.593 79.006 241.834 78.0778 243.375 76.5364C244.917 74.9949 245.819 73.7547 246.081 72.8156C246.37 71.9025 246.228 71.1597 245.656 70.5874C245.032 69.963 244.263 69.7952 243.35 70.0839C242.463 70.3465 241.235 71.2616 239.668 72.8291C238.074 74.4228 237.133 75.6762 236.844 76.5893C236.556 77.5024 236.723 78.2712 237.348 78.8955ZM242.041 115.411C239.726 113.095 238.689 110.517 238.929 107.674C239.196 104.858 240.609 102.17 243.17 99.6095C245.756 97.023 248.458 95.6225 251.274 95.408C254.09 95.1934 256.643 96.2309 258.932 98.5202C261.247 100.836 262.285 103.414 262.044 106.257C261.803 109.099 260.416 111.787 257.882 114.321C255.321 116.882 252.62 118.282 249.778 118.523C246.962 118.79 244.383 117.752 242.041 115.411ZM246.313 111.139C246.911 111.738 247.68 111.879 248.619 111.564C249.585 111.276 250.838 110.361 252.379 108.819C253.921 107.278 254.823 106.037 255.086 105.098C255.374 104.185 255.22 103.429 254.621 102.831C254.023 102.233 253.28 102.065 252.393 102.327C251.506 102.59 250.266 103.518 248.672 105.112C247.105 106.679 246.163 107.933 245.849 108.872C245.56 109.785 245.715 110.541 246.313 111.139Z" fill="white" fill-opacity="0.3"/>
<rect x="218.821" y="34.5884" width="16.8794" height="5.22029" transform="rotate(45 218.821 34.5884)" fill="white" fill-opacity="0.3"/>
</g>
<g clip-path="url(#clip8_4052_696)">
<path d="M263.882 30.7628C267.007 27.6386 272.072 27.6386 275.196 30.7628L331.322 86.8884C334.446 90.0126 334.446 95.0779 331.322 98.2021L302.51 127.014C299.386 130.138 294.321 130.138 291.196 127.014L235.071 70.8882C231.947 67.7641 231.947 62.6987 235.071 59.5745L263.882 30.7628Z" fill="#E0077C"/>
<g clip-path="url(#clip9_4052_696)">
<path d="M264.479 84.7915C264.506 84.7376 267.195 79.3372 269.19 73.3522C270.372 69.8052 271.087 66.7385 271.314 64.2372C271.617 60.9103 271.05 58.503 269.629 57.0822C268.208 55.6615 265.801 55.0945 262.474 55.3969C259.973 55.6243 256.906 56.3391 253.359 57.5214C247.374 59.5165 241.974 62.2051 241.92 62.2321C241.65 62.3669 241.462 62.6229 241.414 62.9204C241.365 63.2179 241.463 63.5204 241.676 63.7335L262.978 85.0351C263.191 85.2481 263.493 85.3458 263.791 85.2976C264.088 85.2493 264.344 85.061 264.479 84.7915V84.7915ZM249.664 66.3962C249.293 66.0245 249.321 65.4456 249.664 65.0703C250.006 64.6963 250.643 64.7236 250.99 65.0703C251.362 65.442 251.333 66.0209 250.99 66.3962C250.648 66.7702 250.011 66.7429 249.664 66.3962ZM254.741 63.9821C254.369 63.6104 254.398 63.0315 254.741 62.6562C255.083 62.2822 255.72 62.3095 256.067 62.6562C256.438 63.0279 256.41 63.6068 256.067 63.9821C255.725 64.3561 255.088 64.3288 254.741 63.9821ZM260.315 61.0708C259.943 60.6991 259.972 60.1202 260.315 59.7449C260.657 59.3709 261.294 59.3982 261.641 59.7449C262.012 60.1166 261.984 60.6955 261.641 61.0708C261.299 61.4448 260.662 61.4175 260.315 61.0708ZM254.99 69.0589C254.618 68.6872 254.646 68.1083 254.99 67.733C255.332 67.359 255.969 67.3863 256.315 67.733C256.687 68.1047 256.658 68.6836 256.315 69.0589C255.973 69.4329 255.336 69.4056 254.99 69.0589ZM261.646 65.0648C261.275 64.6932 261.303 64.1142 261.646 63.739C261.988 63.3649 262.625 63.3922 262.972 63.739C263.344 64.1106 263.315 64.6896 262.972 65.0648C262.63 65.4389 261.993 65.4116 261.646 65.0648ZM260.315 69.0589C259.943 68.6872 259.972 68.1083 260.315 67.733C260.657 67.359 261.294 67.3863 261.641 67.733C262.012 68.1047 261.984 68.6836 261.641 69.0589C261.299 69.4329 260.662 69.4056 260.315 69.0589ZM265.64 63.7335C265.269 63.3618 265.297 62.7829 265.64 62.4076C265.982 62.0336 266.619 62.0609 266.966 62.4076C267.338 62.7793 267.309 63.3582 266.966 63.7335C266.624 64.1075 265.987 64.0802 265.64 63.7335ZM257.481 74.5555C257.109 74.1839 257.138 73.6049 257.481 73.2297C257.823 72.8556 258.46 72.8829 258.807 73.2297C259.178 73.6013 259.15 74.1803 258.807 74.5555C258.465 74.9296 257.828 74.9023 257.481 74.5555ZM261.646 73.0529C261.275 72.6813 261.303 72.1023 261.646 71.7271C261.988 71.353 262.625 71.3803 262.972 71.7271C263.344 72.0987 263.315 72.6777 262.972 73.0529C262.63 73.427 261.993 73.3997 261.646 73.0529ZM265.425 69.2743C265.053 68.9027 265.082 68.3237 265.425 67.9485C265.767 67.5744 266.404 67.6017 266.751 67.9485C267.122 68.3201 267.094 68.8991 266.751 69.2743C266.409 69.6484 265.772 69.6211 265.425 69.2743ZM261.646 78.3783C261.275 78.0067 261.303 77.4277 261.646 77.0525C261.988 76.6784 262.625 76.7057 262.972 77.0525C263.344 77.4241 263.315 78.0031 262.972 78.3783C262.63 78.7524 261.993 78.7251 261.646 78.3783Z" fill="white"/>
</g>
<path d="M279.232 99.3283C278.032 99.6437 277.028 99.5285 276.221 98.9827C275.44 98.463 274.933 97.7471 274.701 96.8351C274.468 95.9231 274.548 95.0366 274.941 94.1754C275.386 93.3141 276.208 92.7258 277.408 92.4104L314.698 82.4375C315.924 82.0959 316.927 82.1851 317.708 82.7048C318.489 83.2246 318.996 83.9405 319.229 84.8524C319.462 85.7644 319.355 86.6511 318.91 87.5123C318.517 88.3735 317.721 88.9618 316.521 89.2772L279.232 99.3283ZM284.037 83.2064C281.695 80.8649 280.645 78.2731 280.886 75.4309C281.178 72.5886 282.605 69.8872 285.165 67.3268C287.752 64.7403 290.44 63.3529 293.23 63.1645C296.046 62.9499 298.612 64.0004 300.927 66.3158C303.217 68.6051 304.241 71.171 304 74.0132C303.786 76.8293 302.411 79.5045 299.877 82.0387C297.317 84.5991 294.603 86.0126 291.734 86.2794C288.918 86.5461 286.352 85.5218 284.037 83.2064ZM288.348 78.8955C288.946 79.4939 289.715 79.6357 290.654 79.3208C291.593 79.006 292.833 78.0778 294.375 76.5364C295.916 74.9949 296.818 73.7547 297.081 72.8156C297.37 71.9025 297.228 71.1597 296.656 70.5874C296.031 69.963 295.263 69.7952 294.349 70.0839C293.463 70.3465 292.235 71.2616 290.668 72.8291C289.074 74.4228 288.133 75.6762 287.844 76.5893C287.555 77.5024 287.723 78.2712 288.348 78.8955ZM293.041 115.411C290.726 113.095 289.688 110.517 289.929 107.674C290.196 104.858 291.609 102.17 294.17 99.6095C296.756 97.023 299.457 95.6225 302.273 95.408C305.09 95.1934 307.642 96.2309 309.932 98.5202C312.247 100.836 313.284 103.414 313.044 106.257C312.803 109.099 311.416 111.787 308.881 114.321C306.321 116.882 303.62 118.282 300.778 118.523C297.961 118.79 295.383 117.752 293.041 115.411ZM297.313 111.139C297.911 111.738 298.68 111.879 299.619 111.564C300.584 111.276 301.838 110.361 303.379 108.819C304.921 107.278 305.823 106.037 306.085 105.098C306.374 104.185 306.219 103.429 305.621 102.831C305.023 102.233 304.28 102.065 303.393 102.327C302.506 102.59 301.266 103.518 299.672 105.112C298.104 106.679 297.163 107.933 296.848 108.872C296.56 109.785 296.714 110.541 297.313 111.139Z" fill="white" fill-opacity="0.3"/>
<rect x="269.821" y="34.5884" width="16.8794" height="5.22029" transform="rotate(45 269.821 34.5884)" fill="white" fill-opacity="0.3"/>
</g>
<defs>
<clipPath id="clip0_4052_696">
<rect width="112" height="112" fill="white" transform="translate(79.1963) rotate(45)"/>
</clipPath>
<clipPath id="clip1_4052_696">
<rect width="32" height="32" fill="white" transform="translate(56.9778 43.106) rotate(45)"/>
</clipPath>
<clipPath id="clip2_4052_696">
<rect width="112" height="112" fill="white" transform="translate(130.196) rotate(45)"/>
</clipPath>
<clipPath id="clip3_4052_696">
<rect width="32" height="32" fill="white" transform="translate(107.978 43.106) rotate(45)"/>
</clipPath>
<clipPath id="clip4_4052_696">
<rect width="112" height="112" fill="white" transform="translate(181.196) rotate(45)"/>
</clipPath>
<clipPath id="clip5_4052_696">
<rect width="32" height="32" fill="white" transform="translate(158.978 43.106) rotate(45)"/>
</clipPath>
<clipPath id="clip6_4052_696">
<rect width="112" height="112" fill="white" transform="translate(232.196) rotate(45)"/>
</clipPath>
<clipPath id="clip7_4052_696">
<rect width="32" height="32" fill="white" transform="translate(209.978 43.106) rotate(45)"/>
</clipPath>
<clipPath id="clip8_4052_696">
<rect width="112" height="112" fill="white" transform="translate(283.196) rotate(45)"/>
</clipPath>
<clipPath id="clip9_4052_696">
<rect width="32" height="32" fill="white" transform="translate(260.978 43.106) rotate(45)"/>
</clipPath>
</defs>
</svg>
