<svg width="332" height="319" viewBox="0 0 332 319" fill="none" xmlns="http://www.w3.org/2000/svg">
<path fill-rule="evenodd" clip-rule="evenodd" d="M186.934 152.942C182.111 159.824 164.031 182.999 159.336 204.317C152.356 236.012 162.623 271.438 176.027 289.658C169.944 295.544 167.653 309.592 170.406 314.654C172.937 319.307 210.574 316.935 210.574 316.935C221.327 314.654 240.144 312.455 260.318 315.494C260.318 315.494 297.546 319.307 300.077 314.654C302.83 309.592 300.539 295.544 294.456 289.658C306.34 271.409 313.677 236.201 308.577 204.317C304.661 179.837 290.417 163.4 284.098 153.834C277.779 144.267 276.006 137.462 275.51 127.071C275.334 123.377 275.141 119.316 274.753 114.697L196.989 115.389C196.633 119.631 196.448 123.279 196.283 126.55C195.762 136.859 191.757 146.059 186.934 152.942Z" fill="#333333"/>
<path d="M160.908 208.541C160.908 172.456 184.605 147.002 184.605 147.002C192.8 132.518 192.352 124.507 193.889 102.838H274.158C275.7 124.507 275.247 132.518 283.441 147.002C283.441 147.002 307.823 167.976 308.93 208.541C310.037 249.107 286.74 268.82 232.079 268.82C177.419 268.82 160.908 244.626 160.908 208.541Z" fill="#4D4D4D"/>
<path d="M167.122 212.012C168.477 174.021 188.739 146.998 188.739 146.998C196.266 132.515 188.685 124.504 190.102 102.834L278.327 104.399C279.744 126.068 271.984 132.51 279.511 146.998C279.511 146.998 302.078 174.245 302.92 212.124C303.761 250.003 287.636 309.143 233.872 309.143C180.109 309.143 165.767 250.003 167.122 212.012Z" fill="#333333"/>
<path d="M201.338 229.271C204.502 251.551 218.783 275.096 236.055 275.096C253.327 275.096 269.222 249.755 271.333 228.375C273.443 206.995 256.016 187.136 236.056 187.655C216.095 188.175 198.174 206.991 201.338 229.271Z" fill="#FCE1B4"/>
<path d="M252.426 268.753C251.606 285.036 266.739 312.54 278.177 304.024C278.177 304.024 291.915 273.855 293.909 257.172C299.327 211.889 253.81 241.262 252.426 268.753Z" fill="black"/>
<path d="M252.354 256.205C246.642 288.395 247.116 295.938 247.116 295.938C239.104 307.432 283.362 312.475 279.351 299.538C279.351 299.538 290.329 260.95 292.323 244.267C296.535 209.024 258.066 224.014 252.354 256.205Z" fill="#333333"/>
<path d="M243.729 301.078C241.936 306.455 243.729 318.104 263.442 317.208C283.156 316.311 282.26 303.766 280.468 301.078C278.675 298.39 276.652 294.161 264.223 293.139C251.793 292.117 245.521 295.701 243.729 301.078Z" fill="#FCE1B4"/>
<path fill-rule="evenodd" clip-rule="evenodd" d="M273.182 307.516C273.346 309.023 273.046 310.907 272.39 312.632C271.707 314.447 270.587 316.068 269.275 316.975C268.619 317.43 267.717 317.265 267.253 316.605C266.816 315.945 266.98 315.04 267.636 314.584C268.51 313.97 269.193 312.827 269.685 311.597C270.149 310.321 270.395 308.931 270.286 307.815C270.204 307.018 270.778 306.303 271.598 306.221C272.39 306.138 273.1 306.719 273.182 307.516Z" fill="#1A1A1A"/>
<path fill-rule="evenodd" clip-rule="evenodd" d="M263.563 309.217C263.208 310.351 262.962 311.435 262.798 312.477C262.607 313.629 262.525 314.728 262.525 315.787C262.525 316.589 261.869 317.236 261.076 317.231C260.257 317.226 259.628 316.571 259.628 315.769C259.628 314.57 259.738 313.324 259.929 312.019C260.12 310.855 260.393 309.644 260.776 308.376C261.022 307.608 261.814 307.174 262.579 307.406C263.344 307.638 263.781 308.45 263.563 309.217Z" fill="#1A1A1A"/>
<path fill-rule="evenodd" clip-rule="evenodd" d="M254.737 307.167C254.3 308.048 254.163 309.41 254.19 310.709C254.19 311.517 254.272 312.305 254.436 312.952C254.518 313.336 254.573 313.666 254.737 313.829C255.311 314.406 255.283 315.326 254.71 315.883C254.136 316.44 253.207 316.424 252.66 315.847C252.004 315.188 251.458 313.578 251.321 311.696C251.157 309.662 251.431 307.329 252.114 305.904C252.469 305.182 253.343 304.879 254.054 305.227C254.791 305.576 255.092 306.445 254.737 307.167Z" fill="#1A1A1A"/>
<path d="M217.469 268.753C218.29 285.036 203.157 312.54 191.719 304.024C191.719 304.024 177.98 273.855 175.987 257.172C170.568 211.889 216.085 241.262 217.469 268.753Z" fill="black"/>
<path d="M217.542 256.205C223.253 288.395 222.78 295.938 222.78 295.938C230.792 307.432 186.534 312.475 190.545 299.538C190.545 299.538 179.567 260.95 177.573 244.267C173.361 209.024 211.83 224.014 217.542 256.205Z" fill="#333333"/>
<path d="M226.167 301.078C227.96 306.455 226.167 318.104 206.454 317.208C186.74 316.311 187.636 303.766 189.428 301.078C191.221 298.39 193.244 294.161 205.673 293.139C218.103 292.117 224.375 295.701 226.167 301.078Z" fill="#FCE1B4"/>
<path fill-rule="evenodd" clip-rule="evenodd" d="M196.713 307.516C196.549 309.023 196.85 310.907 197.505 312.632C198.189 314.447 199.309 316.068 200.621 316.975C201.276 317.43 202.178 317.265 202.643 316.605C203.08 315.945 202.916 315.04 202.26 314.584C201.386 313.97 200.703 312.827 200.211 311.597C199.746 310.321 199.5 308.931 199.609 307.815C199.691 307.018 199.118 306.303 198.298 306.221C197.506 306.138 196.795 306.719 196.713 307.516Z" fill="#1A1A1A"/>
<path fill-rule="evenodd" clip-rule="evenodd" d="M206.333 309.217C206.688 310.351 206.934 311.435 207.098 312.477C207.289 313.629 207.371 314.728 207.371 315.787C207.371 316.589 208.027 317.236 208.819 317.231C209.639 317.226 210.267 316.571 210.267 315.769C210.267 314.57 210.158 313.324 209.967 312.019C209.776 310.855 209.502 309.644 209.12 308.376C208.874 307.608 208.082 307.174 207.316 307.406C206.551 307.638 206.114 308.45 206.333 309.217Z" fill="#1A1A1A"/>
<path fill-rule="evenodd" clip-rule="evenodd" d="M215.159 307.167C215.596 308.048 215.733 309.41 215.706 310.709C215.706 311.517 215.624 312.305 215.46 312.952C215.378 313.336 215.323 313.666 215.159 313.829C214.585 314.406 214.613 315.326 215.186 315.883C215.76 316.44 216.689 316.424 217.236 315.847C217.891 315.188 218.438 313.578 218.575 311.696C218.739 309.662 218.465 307.329 217.782 305.904C217.427 305.182 216.553 304.879 215.842 305.227C215.105 305.576 214.804 306.445 215.159 307.167Z" fill="#1A1A1A"/>
<g opacity="0.6">
<path d="M234.574 157.435C240.299 157.435 244.938 161.877 244.938 167.36C244.938 172.842 240.299 177.285 234.574 177.285C228.85 177.285 224.21 172.842 224.21 167.36C224.21 161.877 228.85 157.435 234.574 157.435ZM234.565 160.38C235.045 160.38 235.439 160.008 235.439 159.546C235.439 159.085 235.049 158.713 234.565 158.713C234.081 158.713 233.691 159.085 233.691 159.546C233.691 160.008 234.081 160.38 234.565 160.38Z" fill="#1A1A1A"/>
<mask id="mask0_614_19138" style="mask-type:luminance" maskUnits="userSpaceOnUse" x="224" y="157" width="21" height="21">
<path d="M234.574 157.439C240.299 157.439 244.938 161.882 244.938 167.364C244.938 172.847 240.299 177.289 234.574 177.289C228.85 177.289 224.21 172.847 224.21 167.364C224.21 161.882 228.85 157.439 234.574 157.439ZM234.565 160.385C235.045 160.385 235.439 160.013 235.439 159.551C235.439 159.089 235.049 158.717 234.565 158.717C234.081 158.717 233.691 159.089 233.691 159.551C233.691 160.013 234.081 160.385 234.565 160.385Z" fill="white"/>
</mask>
<g mask="url(#mask0_614_19138)">
<path d="M224.21 157.44H234.574V177.182H224.21V157.44Z" fill="#1A1A1A"/>
<path d="M234.574 157.44H244.938V177.182H234.574V157.44Z" fill="#1A1A1A"/>
<path d="M230.387 167.069C230.75 166.89 230.813 166.549 230.437 166.356C230.235 166.289 229.666 166.186 229.101 166.078C227.935 165.854 227.563 165.007 227.59 163.936C227.59 163.81 227.805 163.698 227.94 163.707C229.343 163.747 230.343 164.101 230.733 162.792C230.988 162.053 231.391 161.685 231.607 161.717C231.889 161.717 231.723 162.501 231.799 162.792C231.835 162.792 232.239 161.658 232.633 161.712C232.938 161.766 232.813 162.183 232.844 163.321C232.862 163.873 232.911 165.509 234.059 165.899C234.83 166.168 236.143 166.047 237.215 165.89C237.793 165.782 238.698 165.177 239.147 164.29C239.223 164.142 239.362 164.16 239.407 164.317C239.59 164.935 239.366 165.872 238.81 166.513C239.573 167.064 241.379 168.418 241.953 169.848C242.025 170.072 241.321 170.561 241.115 170.427C240.178 169.66 238.734 168.477 238.187 168.481C238.107 168.589 239.815 169.364 240.944 171.462C241.012 171.691 240.191 172.291 239.989 172.152C239.035 171.256 238.537 170.687 237.192 170.081C236.242 169.687 234.565 169.445 233.014 169.803C231.683 170.113 230.741 170.633 229.271 171.668C228.751 172.054 228.303 171.35 228.433 171.005C229.105 169.638 231.504 168.589 231.418 168.378C231.351 168.217 229.8 169.006 228.469 169.781C228.11 169.911 227.536 169.297 227.711 169.023C228.509 168.015 229.536 167.526 230.392 167.069" fill="#1A1A1A"/>
</g>
</g>
<path d="M207.405 141.551C181.44 131.72 161.788 109.306 166.262 83.5348C172.524 47.462 196.848 20.5923 234.579 20.5923C272.311 20.5923 298.983 52.2496 302.892 83.5348C305.945 107.97 289.318 129.376 265.949 139.776C265.949 139.776 234.265 151.722 207.405 141.551Z" fill="#4D4D4D"/>
<path d="M207.934 141.765C183.269 132.436 164.599 111.161 168.848 86.7027C174.797 52.4678 197.901 26.9698 233.745 26.9698C269.59 26.9698 294.931 57.0134 298.642 86.7027C301.543 109.897 286.198 130.701 264 140.572C264 140.572 233.454 151.416 207.938 141.765H207.934Z" fill="#333333"/>
<path d="M288.13 46.6726C288.13 46.6726 274.583 29.2705 248.466 22.0756C248.466 22.0756 267.563 -0.042346 277.756 0.934898C291.33 2.2349 287.686 47.4571 287.686 47.4571" fill="#4D4D4D"/>
<path d="M285.542 44.2689C285.542 44.2689 273.421 29.0634 250.052 22.7785C250.052 22.7785 267.141 3.45333 276.259 4.30506C288.402 5.44368 285.144 44.9548 285.144 44.9548" fill="#333333"/>
<path d="M258.79 26.0861C258.79 26.0861 269.181 10.7909 276.452 6.88196C276.452 6.88196 276.824 12.4585 278.684 20.5903C280.787 29.7799 281.199 37.8624 279.756 38.7365C278.312 39.6106 269.015 25.3958 258.79 26.0861Z" fill="#FFB7E0"/>
<path d="M288.583 47.5289C288.591 47.4168 289.488 36.0261 288.708 24.6219C287.632 8.89636 283.974 0.625658 277.842 0.0384156C267.312 -0.97469 248.578 20.5695 247.785 21.4885L249.148 22.6674C249.336 22.4478 268.06 0.917038 277.667 1.83601C288.076 2.83566 287.78 35.0578 286.785 47.3899L288.583 47.5333V47.5289Z" fill="black"/>
<path d="M259.906 26.8437C262.179 23.1723 264.657 19.5503 267.302 16.1254C270.001 12.7365 272.776 9.26679 276.452 6.88196C274.47 7.83679 272.726 9.23093 271.05 10.6564C266.056 15.0406 261.753 20.0927 257.669 25.3241L259.906 26.8437Z" fill="black"/>
<path d="M180.288 46.676C180.288 46.676 193.835 29.2739 219.952 22.0791C219.952 22.0791 200.855 -0.038928 190.661 0.938315C177.087 2.23832 180.732 47.4605 180.732 47.4605" fill="#4D4D4D"/>
<path d="M182.874 44.2724C182.874 44.2724 194.996 29.0668 218.365 22.782C218.365 22.782 201.276 3.45675 192.158 4.30848C180.014 5.4471 183.273 44.9582 183.273 44.9582" fill="#333333"/>
<path d="M209.628 26.0893C209.628 26.0893 199.237 10.7941 191.966 6.88513C191.966 6.88513 191.594 12.4617 189.733 20.5934C187.631 29.7831 187.219 37.8655 188.662 38.7397C190.105 39.6138 199.403 25.399 209.628 26.0893Z" fill="#FFB7E0"/>
<path d="M179.836 47.53L181.629 47.3865C180.638 35.0544 180.342 2.82781 190.747 1.83264C200.344 0.918154 219.078 22.4489 219.266 22.6641L220.629 21.4851C219.835 20.5661 201.124 -0.98254 190.572 0.0350488C184.44 0.622291 180.782 8.893 179.706 24.6185C178.926 36.0227 179.822 47.4134 179.831 47.5255L179.836 47.53Z" fill="black"/>
<path d="M210.744 25.3272C208.028 21.8083 205.19 18.4596 202.133 15.2455C199.076 12.121 195.888 8.89341 191.962 6.88513C193.831 8.0372 195.395 9.57928 196.897 11.1482C201.326 15.9179 205.065 21.3465 208.507 26.8469L210.744 25.3272Z" fill="black"/>
<mask id="mask1_614_19138" style="mask-type:luminance" maskUnits="userSpaceOnUse" x="213" y="20" width="43" height="34">
<path d="M234.597 53.4691C222.936 53.4691 213.483 46.009 213.483 36.8066C213.483 27.6042 222.936 20.1442 234.597 20.1442C246.258 20.1442 255.711 27.6042 255.711 36.8066C255.711 46.009 246.258 53.4691 234.597 53.4691Z" fill="white"/>
</mask>
<g mask="url(#mask1_614_19138)">
<path d="M240.245 40.6908H241.164C243.513 40.6908 245.459 38.7856 245.418 36.4366C245.266 27.5339 245.418 19.568 245.418 19.568C245.418 17.219 243.513 15.3138 241.164 15.3138H240.245C237.896 15.3138 235.991 17.219 235.991 19.568V36.4366C235.991 38.7856 237.896 40.6908 240.245 40.6908Z" fill="#FCE1B4"/>
<path d="M227.945 17.1515H229.079C231.369 17.1515 233.226 19.008 233.226 21.298V38.3819C233.226 40.672 231.369 42.5284 229.079 42.5284H227.945C225.655 42.5284 223.799 40.672 223.799 38.3819V21.298C223.799 19.008 225.655 17.1515 227.945 17.1515Z" fill="#FCE1B4"/>
</g>
<path d="M285.593 72.6334C284.463 83.4727 273.669 88.6817 262.825 87.5475C251.981 86.4134 245.203 79.3754 246.333 68.5361C247.462 57.6968 255.953 47.9602 266.792 49.0899C277.631 50.2195 286.722 61.7896 285.588 72.6289L285.593 72.6334Z" fill="#FFE60B"/>
<path d="M273.731 71.372C272.965 78.7058 266.187 82.3907 258.853 81.6241C251.519 80.8576 247.799 75.6262 248.565 68.2968C249.332 60.963 253.81 55.8706 261.144 56.6327C268.478 57.3992 274.498 64.0382 273.731 71.372Z" fill="black"/>
<g opacity="0.5">
<path d="M253.689 77.971C251.958 76.4917 250.291 73.8872 251.228 73.3628C251.676 73.1117 251.797 74.0934 253.527 75.5772C255.258 77.0566 257.369 77.3166 257.154 78.37C256.881 79.7059 255.419 79.4548 253.689 77.971Z" fill="white"/>
</g>
<path d="M273.207 61.8433C273.965 63.2599 273.01 65.2457 271.078 66.2768C269.146 67.3123 266.963 67.003 266.21 65.5864C265.457 64.1699 266.407 62.184 268.339 61.153C270.271 60.1174 272.45 60.4268 273.207 61.8433Z" fill="white"/>
<path d="M183.928 72.6334C185.057 83.4727 195.852 88.6817 206.696 87.5475C217.535 86.4179 224.318 79.3754 223.188 68.5361C222.058 57.6968 213.568 47.9602 202.729 49.0899C191.889 50.2195 182.798 61.7896 183.932 72.6289L183.928 72.6334Z" fill="#FFE60B"/>
<path d="M194.888 71.8237C195.655 79.1575 202.433 82.8423 209.767 82.0758C217.1 81.3092 220.821 76.0778 220.055 68.7485C219.288 61.4147 214.81 56.3223 207.476 57.0843C200.142 57.8509 194.122 64.4899 194.888 71.8237Z" fill="black"/>
<g opacity="0.5">
<path d="M198.403 76.6731C197 74.88 195.879 71.9976 196.901 71.6703C197.39 71.5134 197.313 72.4996 198.717 74.2972C200.12 76.0903 202.141 76.7627 201.72 77.7534C201.187 79.0086 199.806 78.4707 198.403 76.6776V76.6731Z" fill="white"/>
</g>
<path d="M219.714 62.2913C220.471 63.7079 219.516 65.6937 217.584 66.7248C215.652 67.7558 213.469 67.451 212.716 66.0344C211.958 64.6179 212.913 62.632 214.845 61.601C216.777 60.5654 218.956 60.8748 219.714 62.2913Z" fill="white"/>
<g opacity="0.8">
<path d="M286.878 88.3266L287.716 88.9719C288.126 89.2876 288.202 89.8758 287.887 90.2859L282.451 97.3475C282.135 97.7575 281.547 97.834 281.137 97.5184L280.298 96.873C279.888 96.5574 279.812 95.9691 280.127 95.5591L285.564 88.4975C285.879 88.0875 286.468 88.011 286.878 88.3266Z" fill="#F4BDC7"/>
<path d="M281.411 87.0175L282.25 87.6629C282.66 87.9785 282.736 88.5668 282.42 88.9768L278.967 93.4631C278.651 93.8731 278.063 93.9496 277.653 93.634L276.815 92.9886C276.405 92.673 276.328 92.0847 276.644 91.6747L280.097 87.1884C280.413 86.7784 281.001 86.7019 281.411 87.0175Z" fill="#F4BDC7"/>
</g>
<g opacity="0.8">
<path d="M181.412 87.3053L186.849 94.367C187.164 94.777 187.088 95.3652 186.678 95.6809L185.839 96.3262C185.429 96.6419 184.841 96.5654 184.526 96.1554L179.089 89.0937C178.774 88.6837 178.85 88.0955 179.26 87.7798L180.099 87.1345C180.509 86.8188 181.097 86.8953 181.412 87.3053Z" fill="#F4BDC7"/>
<path d="M186.874 85.9916L190.328 90.4779C190.643 90.888 190.567 91.4762 190.157 91.7919L189.318 92.4372C188.908 92.7528 188.32 92.6763 188.005 92.2663L184.551 87.78C184.235 87.37 184.312 86.7817 184.722 86.4661L185.56 85.8207C185.97 85.5051 186.558 85.5816 186.874 85.9916Z" fill="#F4BDC7"/>
</g>
<path opacity="0.6" d="M173.868 113.498C173.868 113.498 200.949 135.701 236.793 135.701C272.637 135.701 294.495 111.526 294.495 111.526C289.259 123.696 280.088 132.061 267.123 138.584C261.574 143.739 248.968 153.596 234.063 153.202C219.53 152.821 209.937 145.24 205.36 140.534C191.696 134.701 180.171 125.158 173.868 113.493V113.498Z" fill="#1A1A1A"/>
<path opacity="0.6" d="M191.894 134.249C191.894 134.249 204.414 148.11 234.597 149.338C263.291 150.504 278.214 134.249 278.214 134.249C282.217 145.963 253.532 157.452 234.754 157.622C213.483 157.815 188.518 142.856 191.894 134.249Z" fill="#1A1A1A"/>
<path d="M258.602 142.216C265.057 140.454 271.405 138.016 277.161 134.555C291.232 126.109 302.273 111.634 304.264 95.0258C306.626 72.1054 294.038 48.0016 276.34 33.8854C258.149 18.9802 232.239 15.3177 210.305 23.4315C188.052 31.3302 172.779 52.1751 167.163 74.5396C165.181 81.9989 163.85 89.8169 165.213 97.5003C167.745 113.405 178.441 125.388 191.71 133.672C198.174 137.729 205.123 141.068 212.43 143.26C212.465 143.269 212.506 143.251 212.519 143.211C198.546 137.908 184.861 129.705 175.635 117.677C169.027 108.662 165.423 97.2717 166.894 86.0962C167.391 82.38 168.221 78.6996 169.184 75.0775C178.405 39.9012 207.431 17.3708 244.262 22.7233C270.432 26.574 291.77 47.7864 299.158 72.7241C301.26 79.8158 302.47 87.302 301.538 94.6896C299.682 110.594 289.067 124.11 276.273 133.21C270.782 136.872 264.69 139.594 258.49 141.853C258.266 141.916 258.378 142.27 258.598 142.207L258.602 142.216Z" fill="black"/>
<g opacity="0.7">
<path d="M241.334 84.7008C241.469 87.525 238.322 89.9636 234.305 90.1563C230.289 90.3446 226.927 88.2108 226.792 85.3912C226.658 82.567 229.805 80.1284 233.821 79.9356C237.838 79.7474 241.2 81.8812 241.334 84.7053V84.7008Z" fill="#1A1A1A"/>
</g>
<path d="M289.587 94.5426C289.945 94.8071 290.385 94.9505 290.811 95.0895C294.025 96.1385 297.23 97.1561 300.372 98.4112C304.12 99.904 307.877 101.621 311.373 103.705C313.157 104.768 314.879 105.933 316.515 107.211C317.268 107.803 318.039 108.403 318.707 109.085C319.42 109.811 319.998 110.676 320.823 111.29C321.262 111.613 321.764 111.609 322.23 111.308C324.463 109.865 319.904 106.31 318.935 105.512C316.058 103.154 312.964 101.231 309.598 99.6216C303.699 96.8019 297.306 95.0178 290.802 94.3992C290.38 94.3588 289.932 94.3274 289.555 94.5157C289.569 94.5247 289.578 94.5336 289.591 94.5426H289.587Z" fill="black"/>
<path d="M294.066 90.5382C294.491 90.6772 294.949 90.6727 295.397 90.6727C298.777 90.6503 302.143 90.601 305.519 90.7938C309.545 91.0224 313.651 91.4617 317.627 92.3314C319.653 92.7751 321.657 93.331 323.611 94.0303C324.512 94.3531 325.436 94.6758 326.288 95.1107C327.193 95.5724 328.014 96.2134 328.995 96.5317C329.511 96.6976 329.986 96.5362 330.336 96.1014C331.994 94.0258 326.548 92.0938 325.373 91.65C321.899 90.3231 318.353 89.4803 314.655 89.0186C308.168 88.2117 301.538 88.5434 295.168 90.0138C294.756 90.1079 294.321 90.22 294.021 90.5203C294.034 90.5248 294.052 90.5293 294.066 90.5338V90.5382Z" fill="black"/>
<path d="M292.797 86.4881C293.25 86.4657 293.685 86.3043 294.106 86.143C297.302 84.9281 300.476 83.6864 303.744 82.6778C307.644 81.4719 311.696 80.4319 315.771 79.8536C317.851 79.5578 319.949 79.374 322.052 79.3471C323.02 79.3336 324.011 79.3157 324.97 79.4278C325.992 79.5488 327.001 79.8626 328.041 79.8178C328.592 79.7954 328.982 79.4726 329.161 78.9347C330 76.3795 324.15 76.4781 322.881 76.4692C319.115 76.4423 315.453 76.895 311.786 77.7692C305.349 79.2978 299.181 81.9605 293.662 85.6095C293.304 85.8471 292.932 86.1071 292.752 86.4926C292.766 86.4926 292.784 86.4926 292.797 86.4926V86.4881Z" fill="black"/>
<path d="M178.916 94.5426C178.557 94.8071 178.118 94.9505 177.692 95.0895C174.478 96.1385 171.273 97.1561 168.13 98.4112C164.383 99.904 160.626 101.621 157.13 103.705C155.345 104.768 153.624 105.933 151.988 107.211C151.235 107.803 150.464 108.403 149.796 109.085C149.083 109.811 148.505 110.676 147.68 111.29C147.241 111.613 146.739 111.609 146.272 111.308C144.04 109.865 148.599 106.31 149.567 105.512C152.445 103.154 155.538 101.231 158.905 99.6216C164.804 96.8019 171.197 95.0178 177.701 94.3992C178.122 94.3588 178.571 94.3274 178.947 94.5157C178.934 94.5247 178.925 94.5336 178.911 94.5426H178.916Z" fill="black"/>
<path d="M174.434 90.5382C174.008 90.6772 173.551 90.6727 173.102 90.6727C169.722 90.6503 166.356 90.601 162.98 90.7938C158.955 91.0224 154.848 91.4617 150.872 92.3314C148.846 92.7751 146.842 93.331 144.888 94.0303C143.987 94.3531 143.063 94.6758 142.212 95.1107C141.306 95.5724 140.486 96.2134 139.504 96.5317C138.988 96.6976 138.513 96.5362 138.164 96.1014C136.505 94.0258 141.952 92.0938 143.126 91.65C146.6 90.3231 150.146 89.4803 153.844 89.0186C160.331 88.2117 166.961 88.5434 173.331 90.0138C173.743 90.1079 174.178 90.22 174.479 90.5203C174.465 90.5248 174.447 90.5293 174.434 90.5338V90.5382Z" fill="black"/>
<path d="M175.702 86.4881C175.249 86.4657 174.814 86.3043 174.393 86.143C171.197 84.9281 168.023 83.6864 164.755 82.6778C160.855 81.4719 156.802 80.4319 152.728 79.8536C150.648 79.5578 148.55 79.374 146.447 79.3471C145.479 79.3336 144.488 79.3157 143.529 79.4278C142.507 79.5488 141.498 79.8626 140.458 79.8178C139.907 79.7954 139.517 79.4726 139.338 78.9347C138.499 76.3795 144.349 76.4781 145.618 76.4692C149.383 76.4423 153.046 76.895 156.713 77.7692C163.15 79.2978 169.318 81.9605 174.837 85.6095C175.195 85.8471 175.567 86.1071 175.747 86.4926C175.733 86.4926 175.715 86.4926 175.702 86.4926V86.4881Z" fill="black"/>
<path d="M211.296 39.5425C210.484 36.149 209.48 32.8094 207.902 29.6894C207.822 29.5325 207.629 29.4742 207.472 29.5549C207.324 29.6311 207.261 29.8059 207.324 29.9538C208.498 33.1142 209.113 36.5032 209.521 39.8383C209.695 41.0801 211.533 40.7752 211.296 39.5425Z" fill="black"/>
<path d="M206.687 39.1752C205.513 37.1803 204.123 35.3334 202.344 33.8451C202.048 33.6031 201.649 34.011 201.9 34.2979C203.289 35.9386 204.303 37.9245 205.051 39.9238C205.531 41.1296 207.288 40.3272 206.687 39.1752Z" fill="black"/>
<path d="M201.631 40.4645C200.532 39.3707 199.223 38.5773 197.775 38.0842C197.43 37.9676 197.193 38.4517 197.493 38.6535C198.062 39.039 198.578 39.4828 199.035 39.9804C199.456 40.4376 199.905 41.0114 200.187 41.5359C200.416 41.9842 200.967 42.159 201.415 41.9304C201.967 41.6614 202.079 40.8814 201.635 40.4645H201.631Z" fill="black"/>
<path d="M260.454 40.4836C260.857 37.1484 261.471 33.7639 262.646 30.6081C262.713 30.4422 262.628 30.2584 262.462 30.1956C262.31 30.1374 262.139 30.2046 262.068 30.3481C260.875 32.6746 260.041 35.1536 259.324 37.6594C259.091 38.4977 258.871 39.327 258.674 40.1967C258.562 40.6808 258.867 41.165 259.356 41.277C259.88 41.3981 260.404 41.0215 260.454 40.4881V40.4836Z" fill="black"/>
<path d="M264.923 40.5717C265.667 38.5769 266.68 36.5955 268.065 34.9593C268.182 34.8248 268.168 34.6231 268.034 34.5066C267.913 34.4035 267.743 34.4079 267.626 34.5066C266.738 35.2328 265.954 36.08 265.237 36.9721C264.51 37.8911 263.874 38.8055 263.282 39.8321C263.036 40.2669 263.188 40.8183 263.623 41.0649C264.107 41.3473 264.748 41.1052 264.923 40.5762V40.5717Z" fill="black"/>
<path d="M269.787 42.192C270.423 41.0668 271.383 40.0537 272.468 39.3141C272.62 39.2155 272.66 39.0137 272.562 38.8658C272.481 38.7448 272.329 38.6999 272.194 38.7403C271.136 39.0899 270.123 39.6458 269.231 40.3317C268.917 40.5782 268.63 40.8113 268.317 41.1386C267.402 42.1786 269.097 43.3889 269.787 42.1875V42.192Z" fill="black"/>
<path d="M189.98 132.377C189.98 132.377 203.012 145.126 234.436 146.255C264.309 147.331 279.842 132.377 279.842 132.377C284.011 143.149 254.147 153.719 234.597 153.876C212.457 154.051 186.466 140.293 189.98 132.377Z" fill="#FC8A3D"/>
<path d="M191.208 133.41C191.208 133.41 209.569 147.898 234.44 148.562C263.452 149.337 278.214 133.872 278.214 133.872C282.262 143.891 253.267 153.726 234.287 153.869C212.788 154.035 187.797 140.771 191.212 133.406L191.208 133.41Z" fill="#FF6927"/>
<mask id="mask2_614_19138" style="mask-type:luminance" maskUnits="userSpaceOnUse" x="224" y="156" width="21" height="21">
<path d="M234.457 156.159C240.182 156.159 244.821 160.602 244.821 166.084C244.821 171.567 240.182 176.009 234.457 176.009C228.733 176.009 224.093 171.567 224.093 166.084C224.093 160.602 228.733 156.159 234.457 156.159ZM234.448 159.104C234.928 159.104 235.322 158.732 235.322 158.271C235.322 157.809 234.932 157.437 234.448 157.437C233.964 157.437 233.574 157.809 233.574 158.271C233.574 158.732 233.964 159.104 234.448 159.104Z" fill="white"/>
</mask>
<g mask="url(#mask2_614_19138)">
<path d="M224.093 156.159H234.457V175.901H224.093V156.159Z" fill="#F4BDC7"/>
<path d="M234.457 156.159H244.821V175.901H234.457V156.159Z" fill="#FF6927"/>
<path d="M230.27 165.792C230.633 165.612 230.696 165.272 230.319 165.079C230.118 165.012 229.548 164.909 228.983 164.801C227.818 164.577 227.446 163.73 227.473 162.658C227.473 162.533 227.688 162.421 227.822 162.43C229.225 162.47 230.225 162.824 230.615 161.515C230.871 160.776 231.274 160.408 231.489 160.439C231.772 160.439 231.606 161.224 231.682 161.515C231.718 161.515 232.121 160.381 232.516 160.435C232.821 160.489 232.695 160.906 232.726 162.044C232.744 162.596 232.794 164.232 233.941 164.622C234.712 164.891 236.026 164.77 237.097 164.613C237.675 164.505 238.581 163.9 239.029 163.012C239.105 162.864 239.244 162.882 239.289 163.039C239.473 163.658 239.249 164.595 238.693 165.236C239.455 165.787 241.262 167.141 241.835 168.571C241.907 168.795 241.203 169.284 240.997 169.149C240.06 168.383 238.617 167.199 238.07 167.204C237.989 167.311 239.697 168.087 240.827 170.185C240.894 170.413 240.074 171.014 239.872 170.875C238.917 169.979 238.42 169.409 237.075 168.804C236.124 168.41 234.448 168.168 232.897 168.526C231.565 168.836 230.624 169.356 229.154 170.391C228.634 170.777 228.185 170.073 228.315 169.728C228.988 168.36 231.386 167.311 231.301 167.101C231.234 166.939 229.683 167.728 228.351 168.504C227.993 168.634 227.419 168.02 227.594 167.746C228.392 166.738 229.418 166.249 230.274 165.792" fill="black"/>
</g>
<path d="M234.008 153.875H234.909V157.622H234.008V153.875Z" fill="black"/>
<path d="M226.348 109.733C226.348 109.733 233.113 121.424 242.787 110.177C242.787 110.177 236.511 108.232 234.328 104.847C234.328 104.847 232.207 109.325 226.348 109.733Z" fill="#74294E"/>
<path d="M228.397 112.287C230.835 114.676 235.287 117.182 240.899 112.121C241.406 111.664 239.487 109.853 236.461 109.759C235.3 109.723 234.435 110.431 234.435 110.431C234.435 110.431 233.503 109.732 232.593 109.723C229.8 109.701 227.312 111.225 228.392 112.287H228.397Z" fill="#E4587F"/>
<path d="M229.971 108.193C230.208 108.525 230.19 108.875 229.939 109.52C229.823 109.816 229.8 110.811 229.572 110.816C229.123 110.829 228.895 109.897 228.68 109.386C228.541 109.054 228.299 108.686 228.653 108.471C229.209 108.139 229.747 107.879 229.971 108.193Z" fill="#F2F2F2"/>
<path d="M238.972 108.41C238.735 108.742 238.753 109.091 239.004 109.737C239.12 110.033 239.143 111.028 239.371 111.032C239.82 111.046 240.048 110.113 240.263 109.602C240.402 109.271 240.479 109.06 240.29 108.688C240.012 108.145 239.197 108.096 238.972 108.41Z" fill="#F2F2F2"/>
<path d="M231.306 114.318C231.544 113.977 231.526 113.618 231.275 112.955C231.158 112.654 231.136 111.632 230.907 111.623C230.459 111.61 230.23 112.569 230.015 113.089C229.876 113.43 229.8 113.65 229.988 114.026C230.266 114.582 231.082 114.636 231.306 114.313V114.318Z" fill="#F2F2F2"/>
<path d="M237.81 114.318C237.573 113.977 237.591 113.618 237.842 112.955C237.958 112.655 237.981 111.633 238.209 111.624C238.658 111.61 238.886 112.569 239.101 113.089C239.24 113.43 239.317 113.65 239.128 114.026C238.85 114.582 238.034 114.636 237.81 114.313V114.318Z" fill="#F2F2F2"/>
<path d="M251.295 104.184C249.053 107.493 244.853 110.16 240.837 108.636C238.506 107.793 236.618 106.112 234.991 104.234C234.175 103.341 232.844 104.543 233.66 105.448C237.533 109.676 243.194 112.347 248.345 108.55C249.82 107.475 251.035 106.157 251.999 104.615C252.12 104.422 252.061 104.166 251.869 104.05C251.671 103.924 251.416 103.991 251.295 104.189V104.184Z" fill="black"/>
<path d="M216.764 104.616C221.83 112.345 229.137 111.937 235.103 105.45C235.448 105.091 235.435 104.522 235.076 104.177C234.704 103.818 234.103 103.85 233.772 104.24C232.673 105.504 231.468 106.669 230.091 107.553C225.443 110.753 220.435 108.471 217.472 104.186C217.19 103.724 216.486 104.141 216.769 104.616H216.764Z" fill="black"/>
<path d="M235.224 104.843L234.646 93.1475C234.637 92.9682 234.485 92.8292 234.305 92.8382C234.14 92.8471 234.005 92.9816 233.996 93.1475L233.418 104.843C233.395 106.085 235.238 106.094 235.22 104.843H235.224Z" fill="black"/>
<path d="M234.265 94.1917C235.386 94.1917 236.345 92.9679 237.502 91.8248C238.609 90.731 239.936 89.7313 240.33 88.9648C241.034 87.602 240.012 85.0424 234.261 85.0424C228.509 85.0424 227.25 87.5975 227.792 88.9603C228.097 89.7224 229.585 90.7893 230.71 91.8248C232.042 93.0531 233.091 94.1962 234.256 94.1917H234.265Z" fill="#FFB7E0"/>
<path opacity="0.5" d="M237.959 87.1027C238.695 86.7889 237.672 85.6548 234.055 85.6548C230.437 85.6548 229.5 86.7351 230.074 87.1027C230.603 87.4389 232.262 87.2417 234.055 87.2372C235.462 87.2372 236.973 87.5286 237.959 87.1027Z" fill="white"/>
<path d="M234.417 115.74C237.389 115.74 240.37 114.019 243.298 110.617C243.54 110.334 243.508 109.908 243.226 109.666C242.944 109.424 242.518 109.456 242.276 109.738C239.42 113.06 236.583 114.615 233.839 114.364C229.643 113.979 226.963 109.442 226.936 109.397C226.747 109.075 226.335 108.967 226.012 109.151C225.689 109.335 225.577 109.751 225.766 110.074C225.887 110.285 228.814 115.252 233.709 115.709C233.947 115.731 234.184 115.74 234.426 115.74H234.417Z" fill="black"/>
<path fill-rule="evenodd" clip-rule="evenodd" d="M297.493 288.534C301.108 293.901 304.806 300.496 305.544 305.559C305.944 308.303 305.941 310.935 305.417 313.163C303.765 317.208 296.092 317.999 290.324 318.104C271.311 318.452 252.726 317.872 234.037 314.563C221.446 316.779 205.624 318.304 193.549 318.528C192.002 318.556 190.366 318.638 188.694 318.722C177.251 319.297 164.154 319.955 166.925 304.089C167.695 299.681 171.043 294.303 174.627 288.545L174.731 288.379C150.528 253.229 151.395 197.995 173.837 162.188C179.662 152.897 184.491 145.163 189.966 134.41L191.92 138.891C162.188 182.798 145.051 229.481 180.011 288.379L178.94 290.009C174.947 296.093 172.9 301.124 172.221 305.014C171.544 308.889 172.254 311.373 173.399 312.82C173.394 312.814 173.393 312.81 173.393 312.81C180.722 313.945 186.914 314.887 194.564 314.745C197.033 314.699 199.616 314.682 202.27 314.665H202.272C212.479 314.599 223.731 314.527 233.568 312.77L234.048 312.684L234.528 312.773C239.479 313.685 247.515 313.811 256.329 313.95C261.255 314.027 266.426 314.108 271.436 314.333C273.122 314.408 274.846 314.512 276.593 314.616L276.596 314.616C283.848 315.051 291.496 315.51 298.448 314.1C298.855 314.018 299.043 313.952 299.09 313.935C299.105 313.93 299.106 313.93 299.095 313.935C299.342 313.805 299.851 313.343 300.183 311.932C300.506 310.561 300.561 308.648 300.224 306.335C299.318 300.126 296.347 294.622 292.682 289.632C310.112 252.691 317.206 190.863 282.478 147.925C282.401 147.845 282.334 147.755 282.28 147.656C280.627 144.734 278.268 139.473 278.268 139.473L279.571 137.098C279.571 137.098 282.66 142.909 284.517 146.204C320.097 184.008 318.102 255.379 297.493 288.534Z" fill="black"/>
<path fill-rule="evenodd" clip-rule="evenodd" d="M124 156.798C134.054 165.123 145.111 185.063 149.805 206.381C156.785 238.076 148.311 269.918 134.906 288.138C140.99 294.023 143.28 308.072 140.527 313.134C137.996 317.786 100.36 315.415 100.36 315.415C89.6069 313.134 70.7895 310.934 50.6152 313.973C50.6152 313.973 15.1794 317.786 12.6487 313.134C9.89561 308.072 12.1862 294.023 18.2697 288.138C6.38517 269.889 0.840715 238.265 5.94088 206.381C9.85686 181.901 30.4198 157.69 30.4198 157.69C34.5711 148.811 34.928 141.319 35.423 130.927C35.599 127.233 35.7924 123.172 36.18 118.553L117.529 119.245C117.885 123.487 118.07 127.136 118.235 130.406C118.756 140.715 119.087 147.267 124 156.798Z" fill="#442723"/>
<path d="M140.784 211.421C138.68 183.693 117.268 157.399 117.268 157.399C110.385 145.626 117.552 139.737 116.26 122.123L37.0413 122.172C39.4511 140.855 45.0249 146.065 38.1419 157.839C38.1419 157.839 15.6953 183.693 14.1778 211.318C12.6603 238.944 28.7034 293.408 76.1656 293.909C123.628 294.411 142.887 239.148 140.784 211.421Z" fill="#F0C897"/>
<path fill-rule="evenodd" clip-rule="evenodd" d="M118.301 160.094C118.301 160.094 137.879 191.121 137.994 213.263C138.074 228.561 131.59 243.312 128.924 251.371C122.543 270.661 105.918 296.639 105.918 296.639C105.918 296.639 114.747 297.676 113.906 305.391C112.523 318.059 91.4205 316.548 82.8434 315.003C80.1736 314.533 78.3446 313.87 78.1007 313.131C52.868 318.999 39.4111 314.143 38.523 305.391C37.6348 296.639 47.9715 296.639 47.9715 296.639C47.9715 296.639 31.3509 270.661 25.5322 251.371C23.1954 243.624 16.9163 228.116 17.2702 212.664C17.7769 190.546 37.227 159.645 37.227 159.645C40.8312 153.508 39.4828 149.57 37.7437 144.491C36.3201 140.334 34.6347 135.412 35.1901 127.893L117.196 125.07C117.692 131.81 116.901 136.996 116.21 141.517C115.19 148.201 114.391 153.433 118.301 160.094Z" fill="#FBDFB5"/>
<path d="M78.6951 261.988C78.6951 261.988 79.3131 308.273 82.8575 314.989C80.1877 314.519 78.3587 313.856 78.1149 313.117C77.3581 313.633 75.6132 314.108 73.3007 314.486C78.1149 302.275 74.5621 262.244 74.5621 262.244C74.5621 262.244 66.5736 253.555 65.5813 248.812C65.5813 248.812 70.6519 253.647 75.9622 254.688C81.2724 255.729 88.8068 249.748 88.8068 249.748C88.8068 249.748 83.1812 257.689 78.6951 261.988Z" fill="#F0C897"/>
<path fill-rule="evenodd" clip-rule="evenodd" d="M28.6318 157.912C4.70105 183.246 -0.511968 219.536 4.48025 254.482C6.18704 266.43 11.6488 280.468 15.2331 288.533C11.618 293.9 7.92038 300.495 7.18206 305.558C6.78183 308.302 6.78492 310.934 7.30914 313.162C8.96085 317.207 16.6336 317.998 22.4019 318.103C41.4151 318.451 58.2077 317.871 76.8971 314.562C89.4874 316.778 105.31 318.303 117.385 318.527C129.517 318.751 147.185 322.272 144.009 304.088C143.232 299.638 139.826 294.198 136.202 288.377C138.539 284.984 143.829 276.407 148.747 261.651C152.034 251.791 154.181 239.497 153.841 228.859C152.973 201.652 144.086 176.584 124.688 156.158C119.158 144.744 117.326 138.664 115.888 120.811C115.839 120.203 115.306 119.755 114.694 119.795C114.086 119.843 113.629 120.376 113.678 120.988C115.142 139.143 117.13 145.662 122.771 157.281C122.824 157.392 122.891 157.489 122.975 157.574L122.978 157.577C154.773 190.624 160.18 251.807 130.923 288.377L131.994 290.008C135.987 296.092 138.034 301.123 138.713 305.013C139.39 308.888 138.68 311.372 137.535 312.819C137.54 312.813 137.541 312.809 137.541 312.809C130.211 313.944 124.019 314.886 116.37 314.744C104.404 314.522 89.7608 314.983 77.3654 312.769L76.8855 312.683L76.406 312.772C68.6867 314.193 55.2648 313.706 41.2901 314.332C32.6061 314.721 22.9054 315.848 14.2779 314.099C13.8712 314.017 13.6829 313.951 13.6358 313.934C13.621 313.929 13.6201 313.928 13.6308 313.934C13.3844 313.804 12.8745 313.342 12.5426 311.931C12.2199 310.559 12.1649 308.647 12.5022 306.334C13.4076 300.125 16.3791 294.621 20.0435 289.631C-1.47615 250.895 -1.39928 191.791 30.327 159.345C30.398 159.274 30.4557 159.194 30.5045 159.11C34.8358 151.277 35.1997 143.702 35.7012 133.225L35.7046 133.154C35.8768 129.572 36.072 125.513 36.4512 120.994C36.5044 120.382 36.0518 119.849 35.4394 119.796C34.8314 119.747 34.2944 120.195 34.2412 120.808C33.8567 125.377 33.6615 129.462 33.489 133.072L33.4867 133.118L33.4857 133.139C32.9804 143.627 32.6453 150.581 28.6318 157.912Z" fill="black"/>
<path d="M58.9596 38.2422C41.4125 23.846 40.1921 14.4068 24.8817 5.39367C16.1348 0.245825 7.50776 -0.402093 5.23117 4.47504C2.79038 9.7072 7.21931 13.7767 7.21931 13.7767C1.34366 15.037 1.95608 22.2573 5.31993 25.2395C2.95902 51.813 14.8124 72.8082 25.4054 76.5138C31.9911 65.2551 36.096 58.4564 39.7306 54.3292C47.7719 45.2051 58.9551 38.2422 58.9551 38.2422H58.9596Z" fill="#442723"/>
<path d="M59.8078 39.3153C43.6409 25.2164 42.5492 15.9325 28.4282 7.1235C20.3603 2.09104 12.3856 1.4875 10.2598 6.29807C7.97882 11.4592 12.0616 15.4444 12.0616 15.4444C6.62085 16.7091 7.15783 23.814 10.2598 26.7341C7.96994 52.8994 15.9757 73.4464 25.7566 77.0499C31.8941 65.942 38.5819 59.3031 41.9635 55.2248C49.4367 46.216 59.8034 39.3153 59.8034 39.3153H59.8078Z" fill="#ECAFA9"/>
<path d="M58.9602 38.2432C41.8747 25.2671 40.3969 13.5424 25.7122 5.70972C17.3248 1.23199 11.103 1.16986 9.30568 6.11356C7.37968 11.4167 11.7198 15.1134 11.7198 15.1134C6.37674 16.7421 7.39299 23.7937 10.6858 26.4964C10.1666 52.7548 19.5437 72.716 29.5465 75.6538C34.9206 64.1555 41.1469 57.0816 44.2444 52.7858C51.092 43.289 58.9602 38.2432 58.9602 38.2432Z" fill="#EDC5C3"/>
<path d="M22.7922 4.24854C20.3958 3.19679 20.6842 2.72638 18.6917 2.4823C30.4651 7.21299 31.3438 15.9421 34.0154 27.5736C36.6425 39.0231 34.397 44.5837 32.8083 47.7256C31.2107 47.3351 29.2003 47.2685 27.7314 49.4697C26.4933 51.3247 27.0436 52.7758 27.5717 54.369C22.912 54.5199 22.5525 58.4429 22.4993 62.7831C22.4505 66.7283 22.2019 73.2696 21.2745 72.99C21.523 73.0965 21.6428 72.9012 21.8913 72.99C31.721 68.6055 33.9222 63.7106 33.9222 63.7106L57.7576 37.674C41.5862 20.4066 32.6219 8.57096 22.7966 4.25298L22.7922 4.24854Z" fill="#694E4A"/>
<path d="M21.5932 3.4749C19.5474 2.43645 15.8152 1.87286 14.1067 1.64209C24.176 6.29734 28.8269 15.1862 30.9969 26.8976C33.136 38.427 31.1523 44.063 29.7544 47.2493C28.3831 46.8721 26.6612 46.8233 25.3743 49.0599C24.2914 50.946 24.7485 52.4016 25.1879 54.0081C21.1805 54.2078 22.5873 58.3926 22.4941 62.7772C22.4098 66.7579 21.1495 73.7785 20.3551 73.5033C20.5681 73.6054 19.898 72.7799 20.111 72.8643C28.605 68.3421 30.5443 63.3718 30.5443 63.3718L52.0898 38.8264C40.2764 22.4953 29.9896 7.72631 21.5888 3.47046L21.5932 3.4749Z" fill="#442723"/>
<path d="M24.7493 10.3401C31.1353 17.8621 34.3926 33.2835 32.0584 42.8647C31.6412 44.4889 31.0687 46.0821 30.3187 47.5598C30.1812 47.835 29.8617 47.9637 29.5776 47.8749C28.77 47.8394 28.091 47.9193 27.5984 48.2033C26.5954 48.7891 25.8099 50.2847 25.7212 51.474C25.6635 52.1485 25.7833 52.9429 25.8454 53.826L25.8632 54.0878C25.8854 54.4029 25.6502 54.6736 25.3351 54.6958C23.6887 54.9221 23.3692 56.3689 23.2271 57.9088C23.0851 59.5641 22.9298 61.4146 22.881 63.2652C22.7789 66.5181 22.2819 70.9737 21.9979 74.2354C21.9579 74.7325 21.5186 75.0964 21.0216 75.052C20.4935 75.0076 20.1163 74.4973 20.2272 73.9825C20.5778 72.2162 20.8219 70.4145 21.0349 68.6261C21.2346 66.8332 21.3899 65.027 21.3766 63.2608C21.3588 61.4768 20.884 59.6928 21.0304 57.7224C21.1014 55.4902 22.4772 52.9518 25.1487 53.329L24.523 54.1944C24.1325 53.4266 23.7641 52.5524 23.6887 51.4962C23.4535 48.2388 26.6753 44.8927 29.9238 46.6279L29.156 46.9918C30.3232 44.0673 30.8912 41.0052 31.0022 37.8766C31.1708 31.6015 30.088 25.2244 28.3572 19.189C27.4342 16.1624 26.2449 13.2069 24.6162 10.4332C24.5629 10.3578 24.6872 10.2646 24.7449 10.3401H24.7493Z" fill="black"/>
<path d="M57.9525 38.1729C57.1803 37.9377 57.0427 38.0176 56.3948 37.4229C54.4821 35.8031 52.6227 34.1212 50.8298 32.3727C46.0414 27.7751 41.9454 22.4365 37.6141 17.4795C33.3582 12.5668 28.2548 8.45298 22.5256 5.4264C18.5227 3.25632 8.71071 -0.27173 6.14123 5.12019C5.0229 7.46779 5.65307 10.2237 7.21073 12.2207C7.42819 12.5091 7.69445 12.8198 7.90747 13.0283C8.31131 13.4277 8.32018 14.0801 7.92078 14.4839C7.78321 14.6215 7.61014 14.7147 7.43706 14.7635C5.36905 15.1629 3.95783 16.7428 3.82914 18.8463C3.66494 20.8611 4.4948 23.1288 5.99922 24.4823C6.24773 24.7042 6.36312 25.0193 6.33649 25.3299C5.25811 41.3637 8.71959 59.8205 20.2046 71.6871C21.8244 73.2803 23.675 74.6738 25.7518 75.5569L24.5448 76.0007C26.7193 72.2907 28.8938 68.5762 31.1482 64.9017C33.4425 61.2051 35.7324 57.5261 38.5504 54.1711C43.9202 48.0115 50.3106 42.8548 57.056 38.2838L57.735 37.8356C57.7572 37.8268 58.2054 37.525 58.2542 37.5028L58.2986 37.4762C58.0679 37.6004 57.9259 37.9466 57.9614 38.1818L57.9525 38.1729ZM59.9717 38.306C59.9229 38.6256 59.6522 39.0383 59.3371 39.2025L59.1729 39.309C58.9909 39.4199 58.3741 39.8371 58.1788 39.9613C51.602 44.4169 45.3225 49.4804 40.0904 55.4759C37.3789 58.7066 35.1023 62.3589 32.8701 65.9579C30.629 69.6102 28.4589 73.3114 26.2888 77.0214C26.0492 77.4518 25.5299 77.6338 25.0817 77.4651C20.1513 75.9119 16.428 71.9046 13.579 67.7863C5.37793 55.3072 2.83951 39.8104 4.32173 25.148L4.659 25.9956C2.62205 24.1228 1.62799 21.4113 1.81438 18.6777C1.97414 15.7576 4.14422 13.3124 7.01547 12.7887L6.54506 14.5239C6.15898 14.1555 5.88827 13.8405 5.59982 13.4721C3.54512 10.947 2.75963 7.28584 4.14866 4.2637C6.65601 -1.35899 14.1692 -0.324984 18.8955 1.32144C23.7282 2.99005 28.0861 5.77699 32.0713 8.93226C37.3434 13.1082 41.4261 18.5312 45.7086 23.5992C48.8905 27.3624 52.2588 30.9304 55.8978 34.2366C57.2646 35.5235 58.9066 36.6774 59.9717 38.3149V38.306Z" fill="black"/>
<path d="M94.0847 38.2347C111.632 23.8385 112.852 14.3993 128.163 5.3861C136.909 0.238256 145.537 -0.409662 147.813 4.46748C150.254 9.69964 145.825 13.7691 145.825 13.7691C151.701 15.0294 151.088 22.2497 147.724 25.2319C150.085 51.8054 138.232 72.8007 127.639 76.5062C121.053 65.2475 116.948 58.4488 113.314 54.3217C105.272 45.1976 94.0892 38.2347 94.0892 38.2347H94.0847Z" fill="#442723"/>
<path d="M93.2375 39.3078C109.404 25.2089 110.496 15.9251 124.617 7.11605C132.685 2.08359 140.66 1.48005 142.786 6.29062C145.067 11.4518 140.984 15.4369 140.984 15.4369C146.425 16.7017 145.888 23.8066 142.786 26.7267C145.075 52.8919 137.07 73.4389 127.289 77.0424C121.151 65.9346 114.464 59.2957 111.082 55.2173C103.609 46.2086 93.242 39.3078 93.242 39.3078H93.2375Z" fill="#ECAFA9"/>
<path d="M94.0847 38.2321C111.17 25.256 112.648 13.5313 127.333 5.69862C135.72 1.22088 141.942 1.15875 143.739 6.10245C145.665 11.4056 141.325 15.1023 141.325 15.1023C146.668 16.731 145.652 23.7826 142.359 26.4852C142.878 52.7437 133.501 72.7049 123.498 75.6427C118.124 64.1444 111.898 57.0705 108.8 52.7747C101.953 43.2779 94.0847 38.2321 94.0847 38.2321Z" fill="#EDC5C3"/>
<path d="M130.253 4.24085C132.649 3.18909 132.361 2.71869 134.354 2.47461C122.58 7.2053 121.701 15.9344 119.03 27.5659C116.403 39.0154 118.648 44.576 120.237 47.7179C121.834 47.3274 123.845 47.2608 125.314 49.462C126.552 51.317 126.002 52.7681 125.473 54.3613C130.133 54.5122 130.493 58.4352 130.546 62.7754C130.595 66.7206 130.843 73.2619 131.771 72.9823C131.522 73.0888 131.402 72.8935 131.154 72.9823C121.324 68.5978 119.123 63.7029 119.123 63.7029L95.2876 37.6663C111.459 20.3989 120.423 8.56326 130.249 4.24529L130.253 4.24085Z" fill="#694E4A"/>
<path d="M131.451 3.46391C133.497 2.42547 137.229 1.86187 138.938 1.6311C128.869 6.28635 124.218 15.1753 122.048 26.8866C119.909 38.416 121.892 44.052 123.29 47.2383C124.662 46.8611 126.383 46.8123 127.67 49.0489C128.753 50.935 128.296 52.3906 127.857 53.9971C131.864 54.1968 130.457 58.3816 130.55 62.7662C130.635 66.7469 131.895 73.7675 132.689 73.4923C132.476 73.5944 133.147 72.769 132.934 72.8533C124.44 68.3312 122.5 63.3608 122.5 63.3608L100.955 38.8154C112.768 22.4843 123.055 7.71532 131.456 3.45948L131.451 3.46391Z" fill="#442723"/>
<path d="M128.424 10.4197C125.184 15.958 123.618 22.1754 122.663 28.4549C121.74 34.65 121.514 41.0893 123.888 46.9782L123.121 46.6143C125.819 45.1942 128.508 47.2001 129.205 49.9027C129.622 51.3228 129.156 53.0269 128.517 54.1808L127.891 53.3154C129.014 53.1201 130.367 53.666 131.038 54.6423C132.813 57.336 131.699 60.4647 131.663 63.2472C131.646 65.9099 131.983 68.6435 132.356 71.3018C132.502 72.1938 132.635 73.0902 132.817 73.9689C132.915 74.4526 132.604 74.9275 132.12 75.0251C131.601 75.136 131.091 74.7544 131.046 74.2218C130.754 70.929 130.265 66.5178 130.163 63.2516C130.115 61.4011 129.964 59.5505 129.817 57.8952C129.666 56.3597 129.404 55.0594 127.825 54.6778C127.474 54.731 127.155 54.4337 127.181 54.0787L127.199 53.8124C127.261 52.9249 127.381 52.1349 127.323 51.4604C127.234 50.2666 126.449 48.7755 125.446 48.1897C124.953 47.9057 124.274 47.8258 123.467 47.8613C123.169 47.9501 122.859 47.8125 122.726 47.5463C121.976 46.0685 121.403 44.4753 120.986 42.8511C119.166 35.0006 120.791 26.2271 123.476 18.7583C124.638 15.7184 126.227 12.8161 128.295 10.3265C128.353 10.251 128.477 10.3398 128.424 10.4197Z" fill="black"/>
<path d="M93.073 38.3008C94.1425 36.6632 95.7801 35.5094 97.1469 34.2225C100.79 30.9163 104.159 27.3483 107.336 23.5851C111.619 18.5215 115.701 13.0986 120.973 8.91815C124.959 5.76288 129.316 2.98038 134.149 1.30734C138.88 -0.347963 146.393 -1.37309 148.896 4.24959C150.281 7.27617 149.5 10.9329 147.445 13.458C147.156 13.8219 146.886 14.1414 146.5 14.5098L146.029 12.7746C148.887 13.2983 151.075 15.7435 151.23 18.6636C151.417 21.3972 150.423 24.1087 148.386 25.9815L148.723 25.1339C150.205 39.7963 147.662 55.2931 139.466 67.7722C136.621 71.8949 132.893 75.8978 127.963 77.451C127.501 77.6241 126.987 77.4244 126.756 77.0072C124.586 73.3017 122.411 69.5961 120.175 65.9438C117.942 62.3448 115.666 58.6925 112.954 55.4618C107.727 49.4663 101.443 44.4028 94.8659 39.9472L94.2046 39.5079L93.8718 39.2904L93.7076 39.1839C93.397 39.0197 93.1129 38.607 93.073 38.2875V38.3008ZM95.0922 38.1677C95.1321 37.928 94.9724 37.5863 94.7549 37.4621L94.7993 37.4887C95.0789 37.6751 95.7046 38.0745 95.9975 38.2742C102.743 42.8451 109.133 48.0018 114.503 54.1615C117.317 57.5209 119.611 61.1998 121.905 64.8921C124.16 68.571 126.339 72.281 128.509 75.991L127.302 75.5472C129.379 74.6597 131.229 73.2662 132.849 71.6775C144.334 59.8108 147.795 41.354 146.717 25.3202C146.686 24.9918 146.824 24.6768 147.054 24.4726C148.559 23.1191 149.389 20.8558 149.224 18.8366C149.091 16.7375 147.685 15.1533 145.616 14.7539C145.066 14.6163 144.729 14.0571 144.867 13.5068C145.035 12.961 145.519 12.7169 145.843 12.2154C147.4 10.2229 148.035 7.46256 146.912 5.11496C144.347 -0.285833 134.5 3.25997 130.528 5.42117C124.799 8.44775 119.7 12.5571 115.439 17.4742C111.104 22.4357 107.008 27.7699 102.224 32.3675C100.426 34.116 98.5714 35.8023 96.6587 37.4177C96.0064 38.0123 95.8644 37.9325 95.1011 38.1677H95.0922Z" fill="black"/>
<path d="M97.3858 157.112C111.982 153.592 126.928 142.312 134.224 131.892C140.814 122.475 145.962 113.062 141.946 101.781C128.757 64.6945 112.426 32.6714 76.0356 32.6714C39.6456 32.6714 23.1947 69.9 10.1565 101.781C6.05598 111.811 11.4213 120.46 16.7954 129.269C21.3398 136.72 27.8677 143.212 35.6561 148.303C38.838 150.384 45.7876 153.814 52.928 155.993C52.928 155.993 70.2132 163.666 97.3858 157.112Z" fill="#694E4A"/>
<path d="M96.6409 157.225C110.704 153.844 125.105 143.006 132.134 132.995C138.485 123.951 143.442 114.906 139.577 104.065C126.867 68.4337 111.135 37.6665 76.0673 37.6665C40.9999 37.6665 25.1525 73.4351 12.5935 104.065C8.63946 113.704 13.8139 122.011 18.9884 130.47C23.3685 137.628 29.6569 143.867 37.1612 148.758C40.2277 150.759 46.9243 154.052 53.8029 156.147C53.8029 156.147 70.458 163.518 96.6409 157.221V157.225Z" fill="#442723"/>
<path d="M112.533 101.736C93.3568 102.038 82.3821 93.1669 80.9132 80.3195C79.4443 67.472 83.8644 34.2152 83.8644 34.2152H67.9637C67.9637 34.2152 72.3838 67.4765 70.9149 80.3195C69.446 93.1669 61.9727 104.772 42.9878 102.025C28.1789 99.8813 19.006 103.285 16.7782 112.334C14.1777 122.887 18.256 138.938 45.5174 152.993C62.665 161.837 87.7208 164.22 107.86 152.633C134.446 137.336 140.939 122.106 137.943 112.329C135.196 103.369 127.59 101.497 112.537 101.732L112.533 101.736Z" fill="#FBDFB5"/>
<path opacity="0.7" d="M20.6438 132C24.873 139.886 32.2131 146.76 46.2987 154.162C54.837 158.649 64.3827 163.641 76.0674 163.641C87.7521 163.641 95.8112 158.817 104.576 154.788C120.312 147.554 126.862 140.995 133.106 131.463C133.106 131.463 110.301 153.985 76.4224 153.976C42.3446 153.963 20.6438 132.004 20.6438 132.004V132Z" fill="#F0C897"/>
<path d="M83.0521 88.376C89.5268 103.132 106.284 104.641 114.822 102.022C124.51 99.0489 128.1 84.0137 120.432 69.2403C111.836 52.674 99.0992 49.7672 91.0401 53.5438C82.9855 57.3248 76.3555 73.1278 83.0477 88.376H83.0521Z" fill="#F0C897"/>
<path d="M60.4588 55.7936C60.4588 55.7936 60.4988 55.838 60.4588 55.8336H60.3878C59.4603 55.7759 58.5151 55.6161 57.5876 55.5673C56.1808 55.4564 54.6986 55.4963 53.2829 55.8025C53.0211 55.8824 52.3155 56.0643 52.0448 56.1398C51.6498 56.2996 51.1838 56.4593 50.7756 56.6013C49.6262 57.1028 48.5744 57.7063 47.4073 58.2611C46.4443 58.7093 45.2993 58.2877 44.8556 57.3291C44.3585 56.3084 45.002 55.3854 45.5168 54.5466C48.0818 50.2952 53.0078 47.5127 58.0092 47.739C59.9751 47.8234 61.9233 48.3692 63.5964 49.4298C67.7368 51.6798 64.7635 57.7108 60.4544 55.7981L60.4588 55.7936Z" fill="black"/>
<path d="M88.4614 49.4192C92.9747 46.5568 99.05 47.5154 103.133 50.7017C104.806 52.0331 106.19 53.7061 107.158 55.6055C108.028 57.2031 106.284 59.027 104.659 58.2549C103.492 57.7001 102.436 57.0922 101.282 56.5907C100.87 56.4487 100.408 56.2889 100.013 56.1292C99.7379 56.0493 99.0367 55.8762 98.7749 55.7919C97.3592 55.4857 95.877 55.4457 94.4702 55.5567C93.5427 55.6055 92.5975 55.7653 91.67 55.8229H91.599C91.559 55.8274 91.6034 55.7963 91.599 55.783C87.2987 57.7001 84.3166 51.6692 88.457 49.4148L88.4614 49.4192Z" fill="black"/>
<path d="M66.0771 85.2224C63.694 96.7118 54.0108 98.5402 46.1292 97.808C37.1871 96.9781 30.344 88.0848 33.304 76.7285C36.6235 63.9964 46.7417 60.3086 54.49 61.9151C62.2384 63.5216 68.4647 73.7285 66.0816 85.218L66.0771 85.2224Z" fill="#320F06"/>
<path d="M65.5627 86.8857C63.2196 98.1844 53.8558 100.017 46.2406 99.3249C37.6046 98.5438 31.0189 89.8235 33.9213 78.6536C37.1742 66.1302 46.9639 62.469 54.4461 64.0222C61.9282 65.5754 67.9059 75.5827 65.5627 86.8857Z" fill="white"/>
<path d="M63.3174 86.8362C61.032 94.6644 54.291 97.194 49.0632 96.0135C42.8237 94.6068 37.8356 89.0063 39.9746 80.7653C42.3755 71.5258 49.5958 68.8232 55.1164 69.9681C60.637 71.1131 65.705 78.6618 63.3174 86.8362Z" fill="#009245"/>
<path d="M62.4467 89.139L41.6157 76.5135C44.8021 70.4958 50.7487 69.0757 55.4039 70.0387C60.9246 71.1837 66.5872 78.9986 62.4423 89.1345L62.4467 89.139Z" fill="#00682F"/>
<path d="M60.0289 85.73C58.7952 91.6856 53.8604 92.6486 49.8486 92.2847C45.2999 91.8719 41.8296 87.2788 43.3562 81.3943C45.0691 74.7953 50.2303 72.8649 54.1711 73.6814C58.1163 74.498 61.2627 79.7745 60.0289 85.73Z" fill="#1A1A1A"/>
<path d="M48.7698 79.853C48.2151 80.9003 45.4281 80.5186 42.548 78.992C39.6679 77.4654 37.7818 75.3797 38.3365 74.3323C38.8913 73.285 41.6782 73.6711 44.5583 75.1933C47.4385 76.7154 49.3245 78.8056 48.7698 79.853Z" fill="white"/>
<path d="M61.4403 87.6866C61.001 88.8404 59.7273 89.4218 58.5913 88.9913C57.4552 88.5608 56.8916 87.2783 57.3265 86.1245C57.7658 84.9706 59.0395 84.3893 60.1756 84.8198C61.3116 85.2502 61.8752 86.5328 61.4403 87.6866Z" fill="white"/>
<path d="M85.9224 85.2224C88.3055 96.7118 97.9887 98.5402 105.87 97.808C114.812 96.9781 121.655 88.0848 118.695 76.7285C115.376 63.9964 105.258 60.3086 97.5095 61.9151C89.7611 63.5216 83.5348 73.7285 85.9179 85.218L85.9224 85.2224Z" fill="#320F06"/>
<path d="M86.4376 86.8857C88.7808 98.1844 98.1445 100.017 105.76 99.3249C114.396 98.5438 120.981 89.8235 118.079 78.6536C114.826 66.1302 105.036 62.469 97.5543 64.0222C90.0722 65.5754 84.0945 75.5827 86.4376 86.8857Z" fill="white"/>
<path d="M88.6829 86.8362C90.9684 94.6644 97.7094 97.194 102.937 96.0135C109.177 94.6068 114.165 89.0063 112.026 80.7653C109.625 71.5258 102.405 68.8232 96.884 69.9681C91.3634 71.1131 86.2954 78.6618 88.6829 86.8362Z" fill="#009245"/>
<path d="M89.5475 89.1366L110.374 76.5066C107.188 70.4934 101.246 69.0733 96.5859 70.0408C91.0652 71.1857 85.4026 79.0007 89.5475 89.1366Z" fill="#00682F"/>
<path d="M91.972 85.73C93.2057 91.6856 98.1406 92.6486 102.152 92.2847C106.701 91.8719 110.171 87.2788 108.645 81.3943C106.932 74.7953 101.771 72.8649 97.8299 73.6814C93.8847 74.498 90.7383 79.7745 91.972 85.73Z" fill="#1A1A1A"/>
<path d="M103.169 79.7384C103.688 80.7236 106.448 80.2887 109.328 78.7621C112.209 77.2355 114.121 75.203 113.602 74.2178C113.078 73.2326 110.322 73.6675 107.442 75.1941C104.562 76.7207 102.65 78.7532 103.169 79.7384Z" fill="white"/>
<path d="M90.5611 87.6866C91.0005 88.8404 92.2741 89.4218 93.4102 88.9913C94.5463 88.5608 95.1098 87.2783 94.6749 86.1245C94.2356 84.9706 92.962 84.3893 91.8259 84.8198C90.6898 85.2502 90.1262 86.5328 90.5611 87.6866Z" fill="white"/>
<g opacity="0.8">
<path d="M83.8598 33.3199C81.1128 32.8938 79.0448 32.6764 76.0316 32.6764C73.0183 32.6764 70.7595 32.9427 67.9592 33.4486L68.5716 38.2369C70.968 37.8597 73.4621 37.6645 76.0671 37.6645C78.6721 37.6645 80.9265 37.8198 83.2164 38.1171L83.8598 33.3199Z" fill="#F0C897"/>
</g>
<path d="M55.9868 158.324C50.4839 156.744 45.2917 154.272 40.2237 151.645C31.7032 147.252 23.9281 141.221 18.2345 133.375C15.9534 130.237 14.0585 126.967 12.1458 123.603C10.2952 120.239 8.61775 116.644 7.90327 112.699C7.26422 109.255 7.53049 105.603 8.72426 102.297C10.2864 98.2896 11.9594 94.3533 13.6413 90.3903C25.0553 63.2177 43.2814 30.3115 77.1284 31.5541C84.8635 31.6827 92.6385 33.4046 99.557 36.9193C123.339 49.0656 134.531 78.5547 143.025 102.35C146.895 114.195 140.194 125.227 133.169 134.307C128.239 140.191 122.159 144.94 115.768 149.107C109.351 153.181 102.517 156.7 95.2391 158.937C95.1681 158.959 95.1326 158.848 95.2036 158.826C108.521 154.077 123.224 144.487 132.224 133.543C134.447 130.61 136.586 127.317 138.37 124.104C142.746 116.312 144.046 108.585 140.478 100.211C129.832 70.8108 113.501 33.7907 77.0885 33.8306C44.2177 32.8987 27.1012 65.0106 15.8159 91.3223C14.3159 94.7971 12.8558 98.2896 11.418 101.8C9.96684 105.102 9.50975 108.741 10.1621 112.3C11.3248 118.615 15.1236 124.326 18.4386 129.798C24.9843 140.089 34.8496 147.98 45.7488 153.394C49.1038 155.133 52.512 156.798 56.0888 158.031C56.1687 158.058 56.2131 158.147 56.1865 158.226C56.1599 158.306 56.0755 158.346 56.0001 158.324H55.9868Z" fill="black"/>
<path opacity="0.7" d="M120.138 146.702C120.138 146.702 104.611 163.299 77.0297 163.179C49.8482 163.059 34.2583 148.153 34.2583 148.153C29.6474 162.412 54.9118 172.401 76.4661 172.379C96.9066 172.357 125.504 161.227 120.138 146.702Z" fill="#F0C897"/>
<path d="M121.559 144.92C121.559 144.92 104.566 161.22 76.6349 160.852C48.7434 160.483 32.2082 146.762 32.2082 146.762C26.5012 160.758 53.585 170.397 76.0447 170.375C97.3461 170.353 125.988 160.696 121.559 144.924V144.92Z" fill="#FC8A3D"/>
<path d="M121.727 145.089C121.727 145.089 100.55 162.374 74.4826 163.035C49.9194 163.661 32.1505 146.758 32.1505 146.758C30.1357 163.417 55.1161 170.393 77.3849 170.367C100.821 170.34 125.011 155.425 121.727 145.084V145.089Z" fill="#FF6927"/>
<g opacity="0.6">
<path d="M76.2228 173.702C70.4049 173.702 65.6875 178.22 65.6875 183.794C65.6875 189.367 70.4049 193.885 76.2273 193.885C82.0497 193.885 86.7626 189.367 86.7626 183.794C86.7626 178.22 82.0452 173.702 76.2228 173.702ZM76.2317 176.698C75.7435 176.698 75.3441 176.316 75.3441 175.85C75.3441 175.384 75.7391 175.002 76.2317 175.002C76.7243 175.002 77.1193 175.384 77.1193 175.85C77.1193 176.316 76.7243 176.698 76.2317 176.698Z" fill="#F0C897"/>
<mask id="mask3_614_19138" style="mask-type:luminance" maskUnits="userSpaceOnUse" x="65" y="173" width="22" height="21">
<path d="M76.2214 173.701C70.4034 173.701 65.686 178.218 65.686 183.792C65.686 189.366 70.4034 193.884 76.2258 193.884C82.0482 193.884 86.7611 189.366 86.7611 183.792C86.7611 178.218 82.0438 173.701 76.2214 173.701ZM76.2302 176.696C75.7421 176.696 75.3427 176.314 75.3427 175.848C75.3427 175.382 75.7376 175.001 76.2302 175.001C76.7228 175.001 77.1178 175.382 77.1178 175.848C77.1178 176.314 76.7228 176.696 76.2302 176.696Z" fill="white"/>
</mask>
<g mask="url(#mask3_614_19138)">
<path d="M86.7565 173.7H76.2212V193.768H86.7565V173.7Z" fill="#F0C897"/>
<path d="M76.2214 173.7H65.686V193.768H76.2214V173.7Z" fill="#F0C897"/>
<path d="M80.4773 183.491C80.109 183.309 80.0469 182.963 80.4285 182.764C80.6327 182.693 81.2096 182.591 81.7865 182.48C82.9714 182.253 83.3486 181.392 83.322 180.301C83.322 180.172 83.1045 180.057 82.967 180.07C81.538 180.11 80.5262 180.469 80.1268 179.138C79.8694 178.388 79.4567 178.015 79.2392 178.046C78.9507 178.046 79.1238 178.841 79.044 179.142C79.004 179.142 78.5957 177.993 78.1963 178.042C77.8857 178.099 78.0144 178.521 77.9833 179.679C77.9656 180.243 77.9123 181.907 76.7496 182.298C75.9641 182.573 74.6283 182.449 73.5411 182.289C72.9553 182.182 72.0322 181.565 71.5751 180.66C71.4997 180.509 71.3577 180.527 71.3089 180.687C71.1225 181.312 71.3488 182.267 71.9124 182.919C71.1402 183.483 69.303 184.858 68.7172 186.309C68.6417 186.54 69.3607 187.033 69.5692 186.9C70.5189 186.119 71.9878 184.92 72.547 184.92C72.6313 185.027 70.8917 185.817 69.7423 187.951C69.6758 188.182 70.5101 188.795 70.7142 188.653C71.6861 187.738 72.192 187.161 73.5588 186.545C74.5263 186.141 76.2304 185.897 77.8058 186.265C79.1549 186.58 80.1179 187.108 81.609 188.16C82.1415 188.555 82.5942 187.836 82.461 187.485C81.7776 186.096 79.3413 185.031 79.43 184.818C79.4966 184.654 81.072 185.457 82.43 186.243C82.7939 186.376 83.3752 185.75 83.2022 185.471C82.39 184.446 81.3472 183.949 80.4773 183.483" fill="#F0C897"/>
</g>
</g>
<mask id="mask4_614_19138" style="mask-type:luminance" maskUnits="userSpaceOnUse" x="65" y="172" width="22" height="21">
<path d="M76.342 172.402C70.524 172.402 65.8066 176.92 65.8066 182.494C65.8066 188.067 70.524 192.585 76.3464 192.585C82.1688 192.585 86.8817 188.067 86.8817 182.494C86.8817 176.92 82.1643 172.402 76.342 172.402ZM76.3508 175.397C75.8627 175.397 75.4633 175.016 75.4633 174.55C75.4633 174.084 75.8583 173.702 76.3508 173.702C76.8434 173.702 77.2384 174.084 77.2384 174.55C77.2384 175.016 76.8434 175.397 76.3508 175.397Z" fill="white"/>
</mask>
<g mask="url(#mask4_614_19138)">
<path d="M86.8771 172.403H76.3418V192.47H86.8771V172.403Z" fill="#F4BDC7"/>
<path d="M76.342 172.406H65.8066V192.474H76.342V172.406Z" fill="#FF6927"/>
<path d="M80.598 182.191C80.2296 182.009 80.1675 181.662 80.5491 181.463C80.7533 181.392 81.3302 181.29 81.9071 181.179C83.092 180.952 83.4692 180.091 83.4426 179C83.4426 178.871 83.2251 178.756 83.0876 178.769C81.6586 178.809 80.6468 179.168 80.2474 177.837C79.99 177.087 79.5773 176.714 79.3598 176.745C79.0714 176.745 79.2444 177.54 79.1645 177.841C79.1246 177.841 78.7163 176.692 78.3169 176.741C78.0063 176.799 78.135 177.22 78.1039 178.378C78.0862 178.942 78.0329 180.606 76.8702 180.997C76.0847 181.272 74.7489 181.148 73.6617 180.988C73.0759 180.881 72.1528 180.264 71.6957 179.359C71.6203 179.208 71.4783 179.226 71.4295 179.386C71.2431 180.012 71.4694 180.966 72.033 181.618C71.2608 182.182 69.4236 183.557 68.8378 185.009C68.7624 185.239 69.4813 185.732 69.6899 185.599C70.6395 184.818 72.1085 183.619 72.6676 183.619C72.7519 183.726 71.0123 184.516 69.8629 186.65C69.7964 186.881 70.6307 187.494 70.8348 187.352C71.8067 186.437 72.3126 185.861 73.6794 185.244C74.6469 184.84 76.351 184.596 77.9264 184.964C79.2755 185.279 80.2385 185.807 81.7296 186.859C82.2621 187.254 82.7148 186.535 82.5816 186.185C81.8982 184.795 79.4619 183.73 79.5506 183.517C79.6172 183.353 81.1926 184.156 82.5506 184.942C82.9145 185.075 83.4958 184.449 83.3228 184.17C82.5106 183.145 81.4678 182.648 80.598 182.182" fill="black"/>
</g>
<path d="M76.7982 170.08H75.884V173.887H76.7982V170.08Z" fill="black"/>
<g opacity="0.3">
<path d="M37.7387 113.36L37.2363 112.194C37.0335 111.724 36.4878 111.507 36.0174 111.71L27.1578 115.529C26.6874 115.732 26.4704 116.277 26.6732 116.748L27.1757 117.913C27.3784 118.384 27.9242 118.601 28.3946 118.398L37.2542 114.579C37.7246 114.376 37.9415 113.83 37.7387 113.36Z" fill="#F1648F"/>
<path d="M34.6333 108.739L34.1308 107.574C33.9281 107.103 33.3823 106.886 32.9119 107.089L27.2392 109.535C26.7688 109.737 26.5518 110.283 26.7546 110.754L27.257 111.919C27.4598 112.389 28.0055 112.606 28.4759 112.404L34.1487 109.958C34.6191 109.755 34.8361 109.21 34.6333 108.739Z" fill="#F1648F"/>
</g>
<g opacity="0.3">
<path d="M127.202 117.921L127.704 116.756C127.907 116.285 127.69 115.739 127.22 115.537L118.36 111.717C117.89 111.515 117.344 111.732 117.141 112.202L116.639 113.368C116.436 113.838 116.653 114.384 117.123 114.586L125.983 118.406C126.453 118.608 126.999 118.391 127.202 117.921Z" fill="#F1648F"/>
<path d="M127.12 111.932L127.622 110.767C127.825 110.296 127.608 109.751 127.138 109.548L121.465 107.102C120.995 106.9 120.449 107.116 120.246 107.587L119.744 108.752C119.541 109.223 119.758 109.769 120.228 109.971L125.901 112.417C126.371 112.62 126.917 112.403 127.12 111.932Z" fill="#F1648F"/>
</g>
<g opacity="0.7">
<path d="M64.5727 122.909C63.8893 122.785 63.2325 123.237 63.1038 123.921C62.9795 124.604 63.4322 125.261 64.1156 125.39C64.799 125.514 65.4602 125.061 65.5845 124.378C65.7088 123.694 65.2561 123.038 64.5727 122.909Z" fill="#F0C897"/>
<path d="M60.9111 120.924C60.2276 120.8 59.5709 121.253 59.4422 121.936C59.3179 122.619 59.7706 123.276 60.454 123.405C61.1374 123.529 61.7942 123.077 61.9229 122.393C62.0471 121.71 61.5945 121.053 60.9111 120.924Z" fill="#F0C897"/>
<path d="M57.0776 122.135C56.3942 122.011 55.7329 122.464 55.6087 123.147C55.4844 123.831 55.9371 124.487 56.6205 124.616C57.3039 124.74 57.9607 124.288 58.0894 123.604C58.2136 122.921 57.761 122.264 57.0776 122.135Z" fill="#F0C897"/>
<path d="M60.7519 125.156C60.0685 125.032 59.4117 125.485 59.283 126.168C59.1587 126.851 59.6114 127.508 60.2948 127.637C60.9782 127.761 61.635 127.308 61.7637 126.625C61.888 125.942 61.4353 125.285 60.7519 125.156Z" fill="#F0C897"/>
</g>
<g opacity="0.7">
<path d="M87.4713 122.909C88.1547 122.785 88.8115 123.237 88.9402 123.921C89.0645 124.604 88.6118 125.261 87.9284 125.39C87.245 125.514 86.5838 125.061 86.4595 124.378C86.3352 123.694 86.7879 123.038 87.4713 122.909Z" fill="#F0C897"/>
<path d="M91.1324 120.924C91.8159 120.8 92.4727 121.253 92.6014 121.936C92.7256 122.619 92.273 123.276 91.5895 123.405C90.9061 123.529 90.2493 123.077 90.1206 122.393C89.9964 121.71 90.449 121.053 91.1324 120.924Z" fill="#F0C897"/>
<path d="M94.9669 122.135C95.6503 122.011 96.3116 122.464 96.4358 123.147C96.5601 123.831 96.1074 124.487 95.424 124.616C94.7406 124.74 94.0838 124.288 93.9551 123.604C93.8308 122.921 94.2835 122.264 94.9669 122.135Z" fill="#F0C897"/>
<path d="M91.2967 125.156C91.9802 125.032 92.637 125.485 92.7657 126.168C92.8899 126.851 92.4373 127.508 91.7538 127.637C91.0704 127.761 90.4136 127.308 90.2849 126.625C90.1607 125.942 90.6133 125.285 91.2967 125.156Z" fill="#F0C897"/>
</g>
<path d="M85.3014 135.077C80.6639 141.028 82.4257 144.645 76.053 144.654C68.4955 144.667 70.5591 141.113 65.9792 135.273C65.9792 135.273 71.4067 132.796 72.0812 132.126C72.7558 131.456 75.8356 129.455 75.8356 129.455C75.8356 129.455 79.5012 133.249 81.3385 133.888C83.1757 134.527 85.3014 135.082 85.3014 135.082V135.077Z" fill="#6D1022"/>
<path d="M82.6077 140.16C81.7468 142.902 80.5708 144.251 77.9613 144.46C73.1818 144.837 70.8254 144.753 69.0813 141.038C69.0813 141.038 70.1774 138.069 73.315 137.932C74.5176 137.879 75.7557 138.917 75.7557 138.917C75.7557 138.917 76.8519 137.883 78.1433 137.883C81.0367 137.883 82.6033 140.16 82.6033 140.16H82.6077Z" fill="#F1648F"/>
<path d="M85.5905 135.301C84.9293 136.295 84.3124 137.307 83.8198 138.381C82.6971 140.533 82.2489 143.679 79.6394 144.656C77.1188 145.53 72.1618 145.517 70.2047 143.493C68.8467 142.1 68.3719 140.16 67.5198 138.545C67.0095 137.471 66.3926 136.459 65.727 135.465C65.6249 135.319 65.6648 135.114 65.8113 135.017C65.9444 134.924 66.1264 134.95 66.2329 135.07C67.0583 135.984 67.7772 137.001 68.4251 138.057C69.6677 139.925 70.1692 142.512 72.4546 143.284C74.4339 143.857 77.1543 143.923 79.1158 143.311C80.1587 142.943 80.7134 142.117 81.206 141.132C82.1956 138.962 83.3627 136.641 85.0136 134.848C85.3065 134.515 85.8524 134.928 85.595 135.301H85.5905Z" fill="black"/>
<path d="M99.8303 129.088C92.5212 137.781 83.0155 138.54 75.1739 130.042C74.8366 129.687 74.8544 129.123 75.2094 128.786C75.5733 128.44 76.1591 128.471 76.4875 128.848C77.9519 130.526 79.6294 132.012 81.5288 133.099C87.755 136.818 94.8023 133.645 99.1912 128.591C99.5152 128.169 100.168 128.657 99.8303 129.092V129.088Z" fill="black"/>
<path d="M52.2577 128.59C55.8035 132.651 61.4395 135.882 66.9158 134.351C70.1287 133.49 72.7692 131.333 74.9571 128.852C75.7559 127.978 77.0695 129.154 76.2707 130.046C70.9719 135.815 63.8848 138.154 56.8908 133.752C54.876 132.496 53.1098 130.943 51.6143 129.092C51.2859 128.67 51.916 128.164 52.2533 128.59H52.2577Z" fill="black"/>
<path d="M75.0503 129.448L75.6183 118.167C75.636 117.772 76.2351 117.767 76.2573 118.167L76.8254 129.448C76.8476 130.677 75.0281 130.681 75.0503 129.448Z" fill="black"/>
<path d="M97.1464 127.595C98.9171 126.512 101.469 127.795 101.815 129.792C101.837 129.907 101.762 130.018 101.646 130.04C101.58 130.053 101.522 130.036 101.473 129.996C100.785 129.508 100.217 129.055 99.4807 128.744C98.7618 128.416 98.0074 128.265 97.2174 128.056C97.0044 128.008 96.96 127.697 97.1464 127.59V127.595Z" fill="black"/>
<path d="M54.0998 128.067C52.5022 128.391 51.1665 128.959 49.8928 129.993C49.7464 130.118 49.5067 129.976 49.5467 129.785C49.8085 128.302 51.2952 127.171 52.7863 127.197C53.1368 127.189 54.5525 127.393 54.2951 127.943C54.2507 128.018 54.1753 128.05 54.0954 128.067H54.0998Z" fill="black"/>
<path d="M61.0132 107.098C60.4895 111.948 68.8459 120.988 75.7555 121.361C82.6652 121.733 91.1858 112.303 91.2745 107.311C91.3633 102.318 82.6741 99.4246 76.186 99.5089C69.698 99.5888 61.5635 101.994 61.0132 107.102V107.098Z" fill="#211F1C"/>
<path d="M61.0132 107.096C60.4895 111.946 68.8459 120.986 75.7555 121.359C82.6652 121.731 91.1858 112.301 91.2745 107.309C91.2745 107.309 84.5601 111.662 75.8576 111.627C67.9095 111.596 61.0132 107.096 61.0132 107.096Z" fill="black"/>
<g style="mix-blend-mode:screen" opacity="0.5">
<path d="M65.6463 104.002C65.6463 105.466 70.59 106.061 76.3591 105.977C81.7067 105.897 86.7391 105.249 86.6459 104.135C86.4995 102.373 80.0159 101.455 75.9198 101.508C70.8651 101.574 65.6418 102.608 65.6418 104.002H65.6463Z" fill="white"/>
</g>
<path opacity="0.2" d="M70.3464 119.585C72.0194 120.531 73.2576 121.325 76.0845 121.352C79.0134 121.378 80.5178 120.326 81.9024 119.559C82.2841 119.346 78.9779 118.569 76.2975 118.556C73.617 118.542 69.9692 119.372 70.3464 119.585Z" fill="white"/>
<path d="M67.4227 97.1166C71.9182 93.0826 78.9388 92.914 83.8337 96.3133C84.0023 96.4376 84.384 96.7482 84.5526 96.8814C84.8677 97.1343 85.1783 97.3917 85.4845 97.6535C85.5911 97.7423 85.5999 97.9021 85.5112 98.0041C85.4313 98.0973 85.2982 98.1151 85.1916 98.0574C84.6724 97.8222 84.1133 97.5515 83.6074 97.2941C78.5128 94.8089 72.8235 95.0841 67.7911 97.6003C67.4893 97.7822 67.1565 97.3562 67.4227 97.1121V97.1166Z" fill="#442723"/>
</svg>
