<svg class="paint-actions__button-icon" xmlns="http://www.w3.org/2000/svg" viewBox="-555.3 252.3 23.9 24">
<path fill="#FFFFFF" d="M-543.4,274.6l-2.2-2.2h8.9c3,0,5.4-2.4,5.4-5.4c0-3-2.4-5.4-5.4-5.4c0,0,0,0,0,0h-0.5c-0.5,0-1,0.4-1,0.9
	s0.4,1,0.9,1c0,0,0,0,0.1,0h0.5c1.9,0,3.4,1.5,3.4,3.4s-1.5,3.4-3.4,3.4h-8.9l2.2-2.2c0.4-0.4,0.4-1,0-1.4s-1-0.4-1.4,0l-3.9,3.9
	c-0.4,0.4-0.4,1,0,1.4c0,0,0,0,0,0l3.9,3.9c0.4,0.4,1,0.4,1.4,0C-543,275.6-543,275-543.4,274.6L-543.4,274.6z"/>
<path fill="#FFFFFF" d="M-543.4,252.6c-0.4,0.4-0.4,1,0,1.4c0,0,0,0,0,0l2.2,2.2h-8.9c-3,0-5.3,2.5-5.3,5.4c0,2.9,2.4,5.2,5.3,5.3
	h0.5c0.5,0,1-0.4,1-0.9c0-0.5-0.4-1-0.9-1c0,0,0,0-0.1,0h-0.5c-1.9,0-3.4-1.5-3.4-3.4s1.5-3.4,3.4-3.4h8.9l-2.2,2.2
	c-0.4,0.4-0.4,1,0,1.4s1,0.4,1.4,0l3.9-3.9c0.4-0.4,0.4-1,0-1.4c0,0,0,0,0,0l-3.9-3.9C-542.4,252.2-543,252.2-543.4,252.6
	C-543.4,252.6-543.4,252.6-543.4,252.6L-543.4,252.6z"/>
</svg>
