<svg width="38" height="38" viewBox="0 0 38 38" fill="none" xmlns="http://www.w3.org/2000/svg">
<g clip-path="url(#clip0_237_31468)">
<rect width="38" height="38" rx="19" fill="#FFF500"/>
<path fill-rule="evenodd" clip-rule="evenodd" d="M18.9998 17C21.2089 17 22.9998 15.2091 22.9998 13C22.9998 10.7909 21.2089 9 18.9998 9C16.7907 9 14.9998 10.7909 14.9998 13C14.9998 15.2091 16.7907 17 18.9998 17ZM25.0001 28C26.1047 28 27.022 27.0943 26.7921 26.0139C25.938 21.9989 22.5497 19 18.4998 19C14.4499 19 11.0616 21.9989 10.2075 26.0139C9.97764 27.0943 10.8941 28 11.9987 28H25.0001Z" fill="#8AD60E"/>
</g>
<defs>
<clipPath id="clip0_237_31468">
<rect width="38" height="38" rx="19" fill="white"/>
</clipPath>
</defs>
</svg>
