<svg width="38" height="38" viewBox="0 0 38 38" fill="none" xmlns="http://www.w3.org/2000/svg">
<rect width="38" height="38" rx="19" fill="#FFF500"/>
<path d="M18.407 6.39745C18.4318 6.29576 18.5827 6.29186 18.6123 6.39228C18.9942 7.6884 20.292 11.7922 21.6153 12.5159C22.9184 13.2284 26.7914 11.6925 28.0924 11.1398C28.192 11.0975 28.288 11.2287 28.2195 11.3125C27.3739 12.3469 25.0865 15.3844 25.5 17.5124C25.8981 19.5613 29.0817 21.2149 30.4154 21.8247C30.5192 21.8722 30.4783 22.0575 30.3642 22.0556C28.8569 22.0308 25.1174 22.1372 24.1136 23.743C23.0751 25.404 23.7057 29.2205 23.9664 30.5406C23.9873 30.6466 23.8409 30.7157 23.7731 30.6316C22.9096 29.5612 20.303 26.5264 18.5 26.5159C16.6912 26.5053 14.0737 29.5734 13.2187 30.6399C13.1514 30.7238 13.0067 30.6574 13.0267 30.5518C13.2827 29.1974 13.9339 25.1535 12.8864 23.743C11.85 22.3472 7.89517 22.1206 6.49496 22.0843C6.38583 22.0815 6.35234 21.9171 6.45071 21.8698C7.65461 21.2906 10.8952 19.5649 11.5 17.5124C12.1078 15.4497 9.71649 12.3917 8.8106 11.3305C8.73945 11.2472 8.83833 11.1108 8.93926 11.1535C10.2289 11.6989 13.8641 13.1211 15.3847 12.5159C16.9517 11.8922 18.085 7.71517 18.407 6.39745Z" fill="#8AD60E"/>
</svg>
