<svg width="38" height="38" viewBox="0 0 38 38" fill="none" xmlns="http://www.w3.org/2000/svg">
<g clip-path="url(#clip0_227_20821)">
<rect width="38" height="38" rx="19" fill="#FFF500"/>
<path d="M18.9192 22.896C18.5085 22.896 18.1818 22.7653 17.9392 22.504C17.7152 22.224 17.6032 21.8507 17.6032 21.384C17.6032 20.8427 17.6685 20.3387 17.7992 19.872C17.9298 19.3867 18.1352 18.9013 18.4152 18.416C18.7138 17.9307 19.1058 17.436 19.5912 16.932C19.9272 16.54 20.1978 16.204 20.4032 15.924C20.6272 15.6253 20.7765 15.3453 20.8512 15.084C20.9445 14.804 20.9912 14.524 20.9912 14.244C20.9912 13.7213 20.7952 13.3107 20.4032 13.012C20.0298 12.7133 19.4885 12.564 18.7792 12.564C18.1072 12.564 17.4818 12.648 16.9032 12.816C16.3432 12.984 15.7925 13.2267 15.2512 13.544C14.7658 13.8053 14.3272 13.908 13.9352 13.852C13.5618 13.7773 13.2632 13.6093 13.0392 13.348C12.8152 13.068 12.6845 12.7413 12.6472 12.368C12.6098 11.9947 12.6938 11.6307 12.8992 11.276C13.1045 10.9027 13.4498 10.576 13.9352 10.296C14.7005 9.848 15.5498 9.512 16.4832 9.288C17.4165 9.064 18.2845 8.952 19.0872 8.952C20.3192 8.952 21.4018 9.15733 22.3352 9.568C23.2685 9.97866 23.9872 10.5387 24.4912 11.248C25.0138 11.9573 25.2752 12.788 25.2752 13.74C25.2752 14.3187 25.1912 14.86 25.0232 15.364C24.8552 15.868 24.5845 16.372 24.2112 16.876C23.8378 17.3613 23.3245 17.8747 22.6712 18.416C22.0925 18.9013 21.6352 19.34 21.2992 19.732C20.9632 20.1053 20.7205 20.4693 20.5712 20.824C20.4218 21.16 20.3192 21.524 20.2632 21.916C20.2072 22.196 20.0672 22.4293 19.8432 22.616C19.6378 22.8027 19.3298 22.896 18.9192 22.896ZM18.8632 29.14C18.1165 29.14 17.5192 28.916 17.0712 28.468C16.6418 28.02 16.4272 27.4413 16.4272 26.732C16.4272 26.0413 16.6418 25.4813 17.0712 25.052C17.5192 24.604 18.1165 24.38 18.8632 24.38C19.6098 24.38 20.1885 24.604 20.5992 25.052C21.0285 25.4813 21.2432 26.0413 21.2432 26.732C21.2432 27.4413 21.0285 28.02 20.5992 28.468C20.1885 28.916 19.6098 29.14 18.8632 29.14Z" fill="#8AD60E"/>
</g>
<defs>
<clipPath id="clip0_227_20821">
<rect width="38" height="38" fill="white"/>
</clipPath>
</defs>
</svg>
