<svg width="38" height="38" viewBox="0 0 38 38" fill="none" xmlns="http://www.w3.org/2000/svg">
<rect width="38" height="38" rx="19" fill="#FFF500"/>
<path d="M27.8643 22.8723C27.516 23.175 27 22.9056 27 22.421C27 16.6931 27 22.4721 27 15.579C27 15.0944 27.516 14.825 27.8643 15.1277L31.8004 18.5487C32.0665 18.7801 32.0665 19.2199 31.8004 19.4513L27.8643 22.8723Z" fill="#8AD60E"/>
<path d="M26 11.6667C24.1944 10.0118 21.7767 9 19.1198 9C13.5308 9 9 13.4772 9 19C9 24.5228 13.5308 29 19.1198 29C21.7767 29 24.1944 27.9882 26 26.3333" stroke="#8AD60E" stroke-width="2" stroke-linecap="round"/>
<path d="M19 19H28" stroke="#8AD60E" stroke-width="2" stroke-linecap="round"/>
</svg>
