<svg width="24" height="24" viewBox="0 0 24 24" fill="none" xmlns="http://www.w3.org/2000/svg">
<path fill-rule="evenodd" clip-rule="evenodd" d="M14.4333 3.73465C14.5937 3.2936 15.0128 3 15.4821 3C16.4284 3 16.9453 4.10362 16.3395 4.83053L14.5316 7H13.2459L14.4333 3.73465ZM9.56672 3.73465L10.7541 7H9.46838L7.66048 4.83053C7.05472 4.10362 7.57163 3 8.51786 3C8.98717 3 9.40633 3.2936 9.56672 3.73465ZM12.5537 3.05116L12 4.57382L11.4463 3.05116C10.9985 1.81973 9.82818 1 8.51786 1C5.87595 1 4.43273 4.08133 6.12404 6.1109L6.86496 7H5C3.89543 7 3 7.89543 3 9C3 10.1046 3.89543 11 5 11H19C20.1046 11 21 10.1046 21 9C21 7.89543 20.1046 7 19 7H17.135L17.876 6.1109C19.5673 4.08133 18.124 1 15.4821 1C14.1718 1 13.0015 1.81973 12.5537 3.05116ZM5 13C4.44772 13 4 13.4477 4 14V21C4 22.1046 4.89543 23 6 23H18C19.1046 23 20 22.1046 20 21V14C20 13.4477 19.5523 13 19 13H5Z" fill="#3C5604"/>
</svg>
