<svg width="56" height="56" viewBox="0 0 56 56" fill="none" xmlns="http://www.w3.org/2000/svg">
<path d="M20.1 23.1472C18.9402 23.1472 18 24.0874 18 25.2472V32.8072C18 33.967 18.9402 34.9072 20.1 34.9072H23.9607C24.3971 34.9072 24.8226 35.0431 25.1782 35.2961L33.251 41.04C34.6413 42.0293 36.5684 41.0353 36.5684 39.329V18.2553C36.5684 16.5148 34.5727 15.5297 33.1911 16.5884L25.1968 22.7141C24.8302 22.9949 24.3813 23.1472 23.9195 23.1472H20.1Z" fill="#3C5604"/>
<path d="M18.917 17.9315L18.917 17.9315C18.02 18.8366 18.0266 20.2975 18.9317 21.1944L37.8331 39.927C38.7382 40.8239 40.1991 40.8174 41.096 39.9123C41.993 39.0073 41.9865 37.5464 41.0814 36.6494L22.1799 17.9169C21.2748 17.0199 19.814 17.0265 18.917 17.9315Z" fill="#3C5604"/>
<path d="M18.917 17.9315L18.917 17.9315C19.814 17.0265 21.2748 17.0199 22.1799 17.9169L41.0814 36.6494C41.9865 37.5464 41.993 39.0073 41.096 39.9123L41.096 39.9123C40.1991 40.8174 38.7382 40.8239 37.8331 39.927L18.9317 21.1944C18.0266 20.2975 18.02 18.8366 18.917 17.9315Z" stroke="url(#paint0_linear_4207_29667)"/>
<defs>
<linearGradient id="paint0_linear_4207_29667" x1="19.0606" y1="17.7823" x2="40.5292" y2="39.0591" gradientUnits="userSpaceOnUse">
<stop stop-color="#FFE600"/>
<stop offset="1" stop-color="#FFE600"/>
</linearGradient>
</defs>
</svg>
