<svg viewBox="0 0 56 56" fill="none" xmlns="http://www.w3.org/2000/svg">
  <path d="M17.4999 22.4465C16.3401 22.4465 15.3999 23.3867 15.3999 24.5465V32.1065C15.3999 33.2663 16.3401 34.2065 17.4999 34.2065H21.3606C21.797 34.2065 22.2225 34.3424 22.5781 34.5954L30.6509 40.3394C32.0412 41.3286 33.9683 40.3346 33.9683 38.6283V17.5546C33.9683 15.8141 31.9726 14.829 30.5911 15.8877L22.5967 22.0134C22.2301 22.2943 21.7812 22.4465 21.3194 22.4465H17.4999ZM40.5999 32.217C40.5999 33.3157 39.7092 34.2064 38.6104 34.2064C37.5117 34.2064 36.621 33.3157 36.621 32.217V24.4359C36.621 23.3371 37.5117 22.4464 38.6104 22.4464C39.7092 22.4464 40.5999 23.3371 40.5999 24.4359V32.217Z" fill="#3C5604"/>
</svg>
