<svg width="24" height="24" viewBox="0 0 24 24" fill="none" xmlns="http://www.w3.org/2000/svg">
<path fill-rule="evenodd" clip-rule="evenodd" d="M6 2C6 1.44772 6.44772 1 7 1H17C17.5523 1 18 1.44772 18 2V3.5H19.25C21.3211 3.5 23 5.17893 23 7.25C23 9.32107 21.3211 11 19.25 11H17.917C17.5533 13.1684 16.0265 14.9423 14 15.6586V19H14.5714C16.465 19 18 20.535 18 22.4286C18 22.7442 17.7442 23 17.4286 23H6.57143C6.25584 23 6 22.7442 6 22.4286C6 20.535 7.53502 19 9.42857 19H10V15.6586C7.97354 14.9423 6.44674 13.1684 6.08296 11H5.25C3.17893 11 1.5 9.32107 1.5 7.25C1.5 5.17893 3.17893 3.5 5.25 3.5H6V2ZM6 5.5H5.25C4.2835 5.5 3.5 6.2835 3.5 7.25C3.5 8.2165 4.2835 9 5.25 9H6V5.5ZM19.25 9H18V5.5H19.25C20.2165 5.5 21 6.2835 21 7.25C21 8.2165 20.2165 9 19.25 9Z" fill="#3C5604"/>
</svg>
