<svg width="24" height="24" viewBox="0 0 24 24" fill="none" xmlns="http://www.w3.org/2000/svg">
<path fill-rule="evenodd" clip-rule="evenodd" d="M19.3865 2.08482L20.2439 8.21585C20.3006 8.62642 19.9531 8.97775 19.5576 8.91685L13.5553 8.04107C13.0604 7.96869 12.8609 7.34899 13.2124 6.9899L14.4162 5.76031C13.5943 5.40288 12.7049 5.216 11.8049 5.216C8.08826 5.216 5.08561 8.32448 5.13586 12.1218C5.14087 12.5077 4.80484 12.7974 4.44362 12.7435L2.02067 12.3897C1.71633 12.345 1.49251 12.0752 1.50019 11.7607C1.6411 6.0071 6.16731 1.5 11.8049 1.5C13.6796 1.5 15.5027 2.02074 17.1086 3.01022L18.3574 1.73464C18.7112 1.37328 19.316 1.58216 19.3865 2.08482ZM19.5621 11.254L21.98 11.6088C22.2851 11.6538 22.5086 11.9272 22.4997 12.2437C22.3324 17.9949 17.813 22.5 12.2102 22.5C10.3328 22.5 8.51328 21.9818 6.91731 20.9969L5.64005 22.3086C5.28631 22.6708 4.68281 22.4623 4.61233 21.9569L3.75614 15.798C3.69914 15.3829 4.04779 15.036 4.4415 15.0938L10.4357 15.9741C10.9299 16.0469 11.1291 16.6694 10.7781 17.0301L9.61434 18.2258C10.4321 18.5812 11.3162 18.7671 12.2102 18.7671C15.8829 18.7671 18.8708 15.6971 18.8708 11.9235C18.8708 11.4884 19.2497 11.2133 19.5621 11.254Z" fill="black"/>
</svg>
