<svg width="135" height="281" viewBox="0 0 135 281" fill="none" xmlns="http://www.w3.org/2000/svg">
<g clip-path="url(#clip0_497_21531)">
<path d="M51.6439 34.3806C36.274 21.7706 35.2051 13.5027 21.7944 5.60785C14.1328 1.09875 6.57617 0.531229 4.58206 4.80321C2.44412 9.38617 6.3235 12.9507 6.3235 12.9507C1.17691 14.0546 1.71334 20.379 4.6598 22.9912C2.59183 46.2675 12.9744 64.6576 22.2531 67.9034C28.0216 58.0417 31.6172 52.0866 34.8008 48.4715C41.8443 40.4795 51.64 34.3806 51.64 34.3806H51.6439Z" fill="#442723"/>
<path d="M52.3867 35.3194C38.2258 22.97 37.2695 14.838 24.9006 7.12202C17.8337 2.71398 10.8485 2.18533 8.98658 6.39901C6.98858 10.9198 10.5648 14.4104 10.5648 14.4104C5.79911 15.5183 6.26946 21.7416 8.98658 24.2994C6.98081 47.218 13.9932 65.2156 22.5605 68.3719C27.9365 58.6424 33.7944 52.8272 36.7564 49.2549C43.3024 41.364 52.3828 35.3194 52.3828 35.3194H52.3867Z" fill="#ECAFA9"/>
<path d="M51.6443 34.3812C36.6788 23.0152 35.3844 12.7453 22.5218 5.88451C15.1751 1.96237 9.72527 1.90795 8.15097 6.23824C6.46394 10.8834 10.2656 14.1214 10.2656 14.1214C5.58545 15.548 6.47561 21.7247 9.35987 24.0919C8.90508 47.0922 17.1186 64.5767 25.8803 67.15C30.5876 57.0783 36.0413 50.8822 38.7545 47.1195C44.7524 38.8009 51.6443 34.3812 51.6443 34.3812Z" fill="#EDC5C3"/>
<path d="M19.9643 4.60519C17.8652 3.68394 18.1179 3.2719 16.3726 3.05811C26.6852 7.20181 27.4548 14.8478 29.7949 25.0361C32.0961 35.0649 30.1292 39.9356 28.7376 42.6877C27.3382 42.3456 25.5773 42.2873 24.2907 44.2153C23.2062 45.8401 23.6882 47.1112 24.1508 48.5067C20.0692 48.6389 19.7544 52.0751 19.7077 55.8768C19.665 59.3325 19.4473 65.0621 18.6349 64.8172C18.8526 64.9105 18.9575 64.7395 19.1752 64.8172C27.7852 60.9767 29.7133 56.6892 29.7133 56.6892L50.5912 33.8832C36.4264 18.7583 28.5743 8.39128 19.9682 4.60908L19.9643 4.60519Z" fill="#694E4A"/>
<path d="M18.9141 3.92778C17.1221 3.01819 13.853 2.52452 12.3564 2.32239C21.1764 6.40001 25.2501 14.186 27.151 24.4442C29.0246 34.543 27.287 39.4797 26.0626 42.2707C24.8614 41.9403 23.3532 41.8975 22.2259 43.8566C21.2775 45.5087 21.6778 46.7837 22.0627 48.1908C18.5526 48.3657 19.7848 52.0313 19.7032 55.8718C19.6293 59.3586 18.5254 65.5081 17.8296 65.2671C18.0161 65.3565 17.4292 64.6335 17.6158 64.7073C25.0558 60.7463 26.7545 56.3927 26.7545 56.3927L45.6266 34.8929C35.279 20.5881 26.2686 7.65168 18.9102 3.9239L18.9141 3.92778Z" fill="#442723"/>
<path d="M21.6787 9.94182C27.2723 16.5305 30.1255 30.0384 28.0809 38.4308C27.7155 39.8535 27.214 41.249 26.5571 42.5434C26.4366 42.7844 26.1567 42.8971 25.9079 42.8194C25.2005 42.7883 24.6057 42.8582 24.1743 43.107C23.2958 43.6201 22.6077 44.9301 22.53 45.9719C22.4795 46.5627 22.5844 47.2585 22.6388 48.0321L22.6544 48.2614C22.6738 48.5374 22.4678 48.7745 22.1918 48.7939C20.7497 48.9922 20.4698 50.2594 20.3454 51.6082C20.221 53.0581 20.085 54.6791 20.0422 56.3C19.9528 59.1493 19.5175 63.052 19.2687 65.9091C19.2337 66.3444 18.8489 66.6632 18.4135 66.6243C17.9509 66.5854 17.6205 66.1384 17.7177 65.6875C18.0248 64.1404 18.2386 62.5622 18.4252 60.9957C18.6001 59.4253 18.7361 57.8432 18.7245 56.2961C18.7089 54.7335 18.293 53.1709 18.4213 51.445C18.4835 49.4897 19.6885 47.2663 22.0286 47.5967L21.4805 48.3547C21.1384 47.6822 20.8158 46.9164 20.7497 45.9913C20.5437 43.1381 23.3657 40.2072 26.2111 41.7271L25.5387 42.0458C26.561 39.4842 27.0585 36.8021 27.1557 34.0616C27.3034 28.5652 26.355 22.9793 24.839 17.6928C24.0304 15.0418 22.9887 12.4529 21.5621 10.0234C21.5155 9.95736 21.6243 9.87573 21.6748 9.94182H21.6787Z" fill="black"/>
<path d="M50.7617 34.3197C50.0854 34.1137 49.9649 34.1837 49.3973 33.6628C47.722 32.244 46.0933 30.7708 44.5228 29.2392C40.3286 25.2121 36.7408 20.5359 32.9469 16.1939C29.2191 11.8908 24.7489 8.28745 19.7306 5.63641C16.2244 3.73559 7.62986 0.645301 5.37919 5.36819C4.39963 7.4245 4.95161 9.83842 6.316 11.5876C6.50647 11.8403 6.7397 12.1124 6.92628 12.2951C7.28001 12.645 7.28779 13.2164 6.93794 13.5701C6.81744 13.6906 6.66584 13.7722 6.51424 13.815C4.70283 14.1648 3.46671 15.5487 3.35399 17.3912C3.21016 19.1559 3.93706 21.1423 5.2548 22.3279C5.47249 22.5222 5.57355 22.7982 5.55023 23.0703C4.60565 37.1146 7.63763 53.2813 17.6976 63.6755C19.1164 65.071 20.7373 66.2916 22.5565 67.0651L21.4992 67.4538C23.4039 64.2042 25.3086 60.9506 27.2833 57.7321C29.293 54.4941 31.2987 51.2716 33.7671 48.3329C38.4705 42.9375 44.068 38.4207 49.9765 34.4169L50.5713 34.0243C50.5907 34.0165 50.9833 33.7522 51.0261 33.7328L51.0649 33.7094C50.8628 33.8183 50.7384 34.1215 50.7695 34.3275L50.7617 34.3197ZM52.5304 34.4363C52.4876 34.7162 52.2505 35.0777 51.9745 35.2215L51.8307 35.3148C51.6713 35.412 51.131 35.7774 50.96 35.8863C45.1992 39.789 39.6989 44.2242 35.1159 49.4757C32.7409 52.3056 30.7468 55.5047 28.7915 58.6572C26.8285 61.8563 24.9277 65.0982 23.0269 68.3479C22.817 68.7249 22.3622 68.8843 21.9696 68.7366C17.6509 67.3761 14.3896 63.866 11.8941 60.2587C4.7106 49.328 2.48715 35.7541 3.78546 22.9109L4.08088 23.6534C2.29668 22.013 1.42596 19.6379 1.58922 17.2435C1.72916 14.6857 3.62997 12.5439 6.14496 12.0852L5.73292 13.6051C5.39474 13.2824 5.15763 13.0065 4.90496 12.6838C3.10521 10.472 2.41718 7.26513 3.63386 4.61797C5.8301 -0.307052 12.4111 0.598655 16.5509 2.04079C20.784 3.50236 24.6012 5.94349 28.0918 8.70726C32.7098 12.3651 36.286 17.1152 40.0371 21.5543C42.8242 24.8506 45.7745 27.9759 48.962 30.8718C50.1592 31.9991 51.5975 33.0098 52.5304 34.4441V34.4363Z" fill="black"/>
<path d="M82.4111 34.3748C97.7809 21.7649 98.8499 13.4969 112.261 5.60212C119.922 1.09302 127.479 0.525492 129.473 4.79748C131.611 9.38043 127.731 12.945 127.731 12.945C132.878 14.0489 132.342 20.3733 129.395 22.9855C131.463 46.2618 121.081 64.6519 111.802 67.8977C106.033 58.036 102.438 52.0808 99.2542 48.4658C92.2106 40.4738 82.415 34.3748 82.415 34.3748H82.4111Z" fill="#442723"/>
<path d="M81.6694 35.3136C95.8303 22.9641 96.7866 14.8322 109.156 7.11616C116.222 2.70812 123.208 2.17947 125.07 6.39315C127.068 10.9139 123.491 14.4046 123.491 14.4046C128.257 15.5124 127.787 21.7358 125.07 24.2935C127.075 47.2122 120.063 65.2097 111.496 68.3661C106.12 58.6365 100.262 52.8213 97.2997 49.249C90.7537 41.3581 81.6733 35.3136 81.6733 35.3136H81.6694Z" fill="#ECAFA9"/>
<path d="M82.4111 34.3722C97.3767 23.0062 98.6711 12.7363 111.534 5.87548C118.88 1.95334 124.33 1.89892 125.905 6.22921C127.592 10.8744 123.79 14.1124 123.79 14.1124C128.47 15.5389 127.58 21.7156 124.696 24.0829C125.15 47.0832 116.937 64.5676 108.175 67.1409C103.468 57.0693 98.0142 50.8732 95.3009 47.1104C89.3031 38.7919 82.4111 34.3722 82.4111 34.3722Z" fill="#EDC5C3"/>
<path d="M114.091 4.59946C116.19 3.6782 115.938 3.26616 117.683 3.05237C107.37 7.19608 106.601 14.8421 104.261 25.0303C101.959 35.0592 103.926 39.9298 105.318 42.6819C106.717 42.3398 108.478 42.2815 109.765 44.2096C110.849 45.8344 110.367 47.1055 109.905 48.501C113.986 48.6332 114.301 52.0694 114.348 55.871C114.391 59.3267 114.608 65.0564 115.421 64.8115C115.203 64.9048 115.098 64.7337 114.88 64.8115C106.27 60.971 104.342 56.6835 104.342 56.6835L83.4644 33.8775C97.6291 18.7526 105.481 8.38555 114.087 4.60334L114.091 4.59946Z" fill="#694E4A"/>
<path d="M115.141 3.91899C116.933 3.0094 120.202 2.51573 121.699 2.3136C112.879 6.39122 108.805 14.1772 106.904 24.4354C105.031 34.5342 106.768 39.4709 107.993 42.2619C109.194 41.9315 110.702 41.8887 111.829 43.8478C112.778 45.4999 112.377 46.7749 111.993 48.182C115.503 48.3569 114.271 52.0225 114.352 55.863C114.426 59.3498 115.53 65.4993 116.226 65.2583C116.039 65.3477 116.626 64.6247 116.44 64.6985C109 60.7375 107.301 56.3839 107.301 56.3839L88.4287 34.8841C98.7763 20.5793 107.787 7.64289 115.145 3.91511L115.141 3.91899Z" fill="#442723"/>
<path d="M112.49 10.0117C109.652 14.8629 108.28 20.3088 107.444 25.8091C106.636 31.2356 106.437 36.8758 108.517 42.0341L107.845 41.7154C110.208 40.4715 112.564 42.2285 113.174 44.5957C113.539 45.8396 113.131 47.3323 112.571 48.343L112.023 47.585C113.007 47.4139 114.192 47.892 114.779 48.7472C116.334 51.1067 115.358 53.8472 115.327 56.2844C115.312 58.6167 115.607 61.0112 115.934 63.3396C116.062 64.1209 116.179 64.9061 116.338 65.6758C116.424 66.0995 116.151 66.5154 115.728 66.6009C115.273 66.6981 114.826 66.3638 114.787 65.8974C114.531 63.0131 114.103 59.1493 114.014 56.2883C113.971 54.6674 113.839 53.0464 113.71 51.5965C113.578 50.2516 113.349 49.1126 111.965 48.7783C111.658 48.825 111.378 48.5645 111.401 48.2536L111.417 48.0203C111.471 47.2429 111.576 46.551 111.526 45.9601C111.448 44.9145 110.76 43.6084 109.881 43.0953C109.45 42.8465 108.855 42.7766 108.148 42.8076C107.887 42.8854 107.615 42.7649 107.499 42.5317C106.842 41.2372 106.34 39.8417 105.975 38.419C104.381 31.5427 105.804 23.8578 108.156 17.3157C109.174 14.653 110.566 12.1108 112.377 9.93009C112.428 9.86401 112.536 9.94175 112.49 10.0117Z" fill="black"/>
<path d="M81.5249 34.4321C82.4617 32.9978 83.8961 31.9871 85.0933 30.8598C88.2847 27.9639 91.235 24.8386 94.0182 21.5423C97.7693 17.1071 101.346 12.357 105.963 8.69526C109.454 5.93149 113.271 3.49425 117.504 2.02879C121.648 0.578879 128.229 -0.319053 130.421 4.60597C131.634 7.25701 130.95 10.46 129.15 12.6718C128.898 12.9906 128.661 13.2704 128.322 13.5931L127.91 12.0732C130.414 12.5319 132.33 14.6737 132.466 17.2315C132.629 19.6259 131.759 22.001 129.974 23.6414L130.27 22.8989C131.568 35.7421 129.341 49.316 122.161 60.2467C119.67 63.8579 116.404 67.3641 112.086 68.7246C111.681 68.8762 111.231 68.7013 111.028 68.3359C109.128 65.0901 107.223 61.8443 105.264 58.6452C103.309 55.4927 101.314 52.2936 98.9394 49.4637C94.3603 44.2122 88.8561 39.777 83.0953 35.8742L82.5161 35.4894L82.2246 35.299L82.0808 35.2057C81.8087 35.0618 81.5599 34.7003 81.5249 34.4205V34.4321ZM83.2936 34.3155C83.3285 34.1056 83.1886 33.8063 82.9981 33.6974L83.037 33.7208C83.2819 33.884 83.83 34.2339 84.0865 34.4088C89.995 38.4126 95.5925 42.9294 100.296 48.3248C102.76 51.2674 104.77 54.4898 106.78 57.7239C108.754 60.9464 110.663 64.1961 112.564 67.4457L111.507 67.057C113.326 66.2796 114.947 65.059 116.365 63.6674C126.425 53.2732 129.457 37.1065 128.513 23.0622C128.486 22.7745 128.606 22.4985 128.808 22.3197C130.126 21.1342 130.853 19.1517 130.709 17.3831C130.592 15.5444 129.36 14.1567 127.549 13.8069C127.067 13.6864 126.771 13.1966 126.892 12.7146C127.04 12.2365 127.463 12.0227 127.747 11.5834C129.111 9.83808 129.667 7.42027 128.684 5.36397C126.437 0.6333 117.811 3.73914 114.332 5.63218C109.314 8.28322 104.848 11.8827 101.116 16.1897C97.3184 20.5355 93.7306 25.2079 89.5402 29.235C87.9659 30.7665 86.3411 32.2436 84.6657 33.6586C84.0943 34.1794 83.9699 34.1095 83.3013 34.3155H83.2936Z" fill="black"/>
<path fill-rule="evenodd" clip-rule="evenodd" d="M108.614 138.227C117.421 145.519 127.105 162.985 131.218 181.658C137.331 209.42 129.908 237.311 118.167 253.27C123.496 258.426 125.502 270.731 123.091 275.165C120.874 279.24 87.9072 277.163 87.9072 277.163C78.4886 275.165 62.006 273.238 44.335 275.9C44.335 275.9 13.296 279.24 11.0794 275.165C8.66786 270.731 10.6742 258.426 16.0029 253.27C5.59299 237.286 0.736492 209.586 5.20383 181.658C8.63392 160.215 26.6454 139.008 26.6454 139.008C30.2816 131.231 30.5942 124.668 31.0278 115.566C31.182 112.331 31.3514 108.774 31.6909 104.728L102.946 105.334C103.258 109.049 103.42 112.245 103.565 115.11C104.021 124.14 104.311 129.879 108.614 138.227Z" fill="#442723"/>
<path d="M123.315 186.072C121.473 161.785 102.717 138.754 102.717 138.754C96.6883 128.441 102.966 123.283 101.835 107.855L32.4453 107.898C34.556 124.262 39.4383 128.826 33.4093 139.139C33.4093 139.139 13.7479 161.785 12.4187 185.983C11.0895 210.18 25.1419 257.886 66.715 258.326C108.288 258.765 125.158 210.359 123.315 186.072Z" fill="#F0C897"/>
<path fill-rule="evenodd" clip-rule="evenodd" d="M103.622 141.114C103.622 141.114 120.771 168.291 120.872 187.686C120.942 201.085 115.263 214.007 112.928 221.065C107.338 237.962 92.7753 260.717 92.7753 260.717C92.7753 260.717 100.509 261.625 99.7726 268.383C98.561 279.479 80.0771 278.155 72.5642 276.802C70.2256 276.39 68.6236 275.809 68.41 275.162C46.3081 280.302 34.521 276.049 33.743 268.383C32.9651 260.717 42.0192 260.717 42.0192 260.717C42.0192 260.717 27.4609 237.962 22.3641 221.065C20.3173 214.28 14.8173 200.696 15.1273 187.161C15.5711 167.788 32.6079 140.721 32.6079 140.721C35.7649 135.345 34.5838 131.896 33.0605 127.447C31.8135 123.806 30.3373 119.494 30.8237 112.909L102.654 110.436C103.089 116.34 102.396 120.882 101.791 124.842C100.897 130.696 100.198 135.28 103.622 141.114Z" fill="#FBDFB5"/>
<path d="M68.9305 230.365C68.9305 230.365 69.4718 270.908 72.5764 276.79C70.2379 276.378 68.6358 275.798 68.4222 275.15C67.7593 275.603 66.231 276.018 64.2055 276.349C68.4222 265.654 65.3103 230.589 65.3103 230.589C65.3103 230.589 58.313 222.979 57.4438 218.824C57.4438 218.824 61.8853 223.059 66.5367 223.971C71.188 224.883 77.7876 219.644 77.7876 219.644C77.7876 219.644 72.86 226.6 68.9305 230.365Z" fill="#F0C897"/>
<path fill-rule="evenodd" clip-rule="evenodd" d="M25.079 139.203C4.11758 161.394 -0.4486 193.18 3.92418 223.791C5.41919 234.256 10.2033 246.552 13.3428 253.616C10.1763 258.317 6.93746 264.094 6.29075 268.529C5.94019 270.933 5.94289 273.238 6.40207 275.19C7.84884 278.732 14.5695 279.425 19.6221 279.517C36.2762 279.822 50.9852 279.314 67.3556 276.416C78.3836 278.357 92.2426 279.692 102.82 279.888C113.446 280.085 128.922 283.169 126.14 267.241C125.46 263.343 122.477 258.579 119.302 253.48C121.349 250.507 125.982 242.995 130.291 230.07C133.169 221.434 135.05 210.664 134.753 201.347C133.992 177.516 126.207 155.558 109.217 137.666C104.373 127.669 102.768 122.343 101.508 106.705C101.466 106.173 100.999 105.78 100.463 105.815C99.9301 105.858 99.5298 106.324 99.5725 106.861C100.855 122.763 102.597 128.473 107.537 138.65C107.584 138.747 107.642 138.832 107.716 138.906L107.719 138.909C135.568 167.856 140.305 221.447 114.678 253.48L115.616 254.909C119.114 260.238 120.906 264.644 121.501 268.052C122.094 271.446 121.473 273.622 120.47 274.889C120.474 274.884 120.475 274.88 120.475 274.88C114.055 275.875 108.631 276.699 101.93 276.575C91.4494 276.381 78.6232 276.784 67.7658 274.845L67.3454 274.77L66.9254 274.847C60.1639 276.093 48.4074 275.666 36.1666 276.214C28.5602 276.555 20.0631 277.542 12.5061 276.01C12.1499 275.938 11.985 275.88 11.9437 275.866C11.9307 275.861 11.93 275.861 11.9393 275.866C11.7235 275.752 11.2769 275.347 10.9862 274.111C10.7035 272.91 10.6553 271.234 10.9508 269.208C11.7438 263.77 14.3467 258.949 17.5563 254.578C-1.29314 220.649 -1.22581 168.878 26.5639 140.458C26.6261 140.396 26.6766 140.326 26.7194 140.252C30.5133 133.391 30.832 126.756 31.2712 117.578L31.2742 117.517C31.4251 114.379 31.5961 110.824 31.9282 106.865C31.9748 106.329 31.5783 105.863 31.0419 105.816C30.5094 105.773 30.039 106.166 29.9924 106.702C29.6556 110.704 29.4846 114.283 29.3335 117.444L29.3316 117.485L29.3307 117.504C28.888 126.69 28.5945 132.782 25.079 139.203Z" fill="black"/>
<path d="M85.3021 138.501C98.087 135.418 111.179 125.537 117.569 116.41C123.342 108.162 127.851 99.917 124.333 90.0359C112.78 57.5509 98.4757 29.5012 66.601 29.5012C34.7263 29.5012 20.3167 62.1106 8.89621 90.0359C5.30448 98.8209 10.004 106.397 14.7114 114.113C18.6918 120.639 24.4098 126.326 31.2318 130.785C34.0189 132.608 40.1062 135.613 46.3606 137.521C46.3606 137.521 61.5011 144.242 85.3021 138.501Z" fill="#694E4A"/>
<path d="M84.6499 138.6C96.9683 135.638 109.582 126.146 115.739 117.376C121.302 109.454 125.644 101.532 122.258 92.0361C111.125 60.8261 97.3453 33.8765 66.629 33.8765C35.9127 33.8765 22.0317 65.2069 11.0311 92.0361C7.56761 100.479 12.1 107.756 16.6325 115.165C20.4691 121.435 25.9772 126.9 32.5504 131.184C35.2364 132.937 41.1021 135.821 47.1272 137.656C47.1272 137.656 61.7157 144.112 84.6499 138.596V138.6Z" fill="#442723"/>
<path d="M98.5695 89.9965C81.7731 90.2608 72.1601 82.4904 70.8735 71.237C69.5868 59.9837 73.4584 30.8534 73.4584 30.8534H59.5308C59.5308 30.8534 63.4024 59.9876 62.1157 71.237C60.8291 82.4904 54.2831 92.6553 37.6539 90.2491C24.6824 88.3716 16.6477 91.3531 14.6963 99.279C12.4184 108.523 15.9907 122.582 39.8695 134.893C54.8895 142.64 76.8364 144.728 94.4763 134.578C117.764 121.179 123.451 107.839 120.827 99.2751C118.421 91.4269 111.759 89.7866 98.5733 89.9926L98.5695 89.9965Z" fill="#FBDFB5"/>
<path opacity="0.7" d="M18.0825 116.505C21.787 123.413 28.2163 129.434 40.5542 135.918C48.0331 139.848 56.3943 144.221 66.6292 144.221C76.8641 144.221 83.9232 139.995 91.6003 136.466C105.384 130.13 111.122 124.384 116.591 116.035C116.591 116.035 96.6147 135.762 66.9402 135.754C37.0907 135.743 18.0825 116.509 18.0825 116.509V116.505Z" fill="#F0C897"/>
<path d="M72.7473 78.294C78.4186 91.2188 93.0965 92.5404 100.575 90.247C109.061 87.6426 112.206 74.4729 105.489 61.5326C97.9594 47.0218 86.8032 44.4757 79.7442 47.7837C72.689 51.0956 66.8816 64.9377 72.7434 78.294H72.7473Z" fill="#F0C897"/>
<path d="M52.9571 49.7544C52.9571 49.7544 52.9921 49.7933 52.9571 49.7894H52.895C52.0825 49.7389 51.2546 49.5989 50.4422 49.5562C49.2099 49.459 47.9116 49.494 46.6716 49.7622C46.4423 49.8322 45.8242 49.9915 45.5871 50.0576C45.2411 50.1976 44.833 50.3375 44.4754 50.4619C43.4686 50.9011 42.5473 51.4298 41.525 51.9157C40.6815 52.3083 39.6786 51.939 39.2899 51.0994C38.8545 50.2053 39.4182 49.3968 39.8691 48.6621C42.1159 44.9382 46.4306 42.501 50.8114 42.6992C52.5334 42.7731 54.2399 43.2512 55.7054 44.1803C59.3321 46.151 56.7277 51.4337 52.9533 49.7583L52.9571 49.7544Z" fill="black"/>
<path d="M77.4851 44.171C81.4383 41.6637 86.7598 42.5034 90.336 45.2943C91.8015 46.4605 93.0142 47.9259 93.8616 49.5896C94.6235 50.989 93.0959 52.5866 91.6732 51.9103C90.6509 51.4244 89.7257 50.8918 88.7151 50.4526C88.3535 50.3282 87.9493 50.1883 87.6033 50.0483C87.3623 49.9784 86.7482 49.8268 86.5188 49.7529C85.2788 49.4847 83.9805 49.4497 82.7483 49.5469C81.9359 49.5897 81.1079 49.7296 80.2955 49.7801H80.2333C80.1983 49.784 80.2372 49.7568 80.2333 49.7451C76.4666 51.4244 73.8545 46.1417 77.4812 44.1671L77.4851 44.171Z" fill="black"/>
<path d="M57.8784 75.5326C55.791 85.5964 47.3093 87.1979 40.4057 86.5565C32.5731 85.8296 26.5791 78.0398 29.1718 68.0925C32.0794 56.9403 40.9421 53.7101 47.7291 55.1172C54.5161 56.5244 59.9697 65.4648 57.8823 75.5287L57.8784 75.5326Z" fill="#320F06"/>
<path d="M57.4274 76.9881C55.3749 86.8848 47.1731 88.4902 40.5027 87.8838C32.9383 87.1997 27.1698 79.5614 29.712 69.7774C32.5612 58.8079 41.1363 55.601 47.69 56.9615C54.2438 58.322 59.4798 67.0875 57.4274 76.9881Z" fill="white"/>
<path d="M55.4611 76.9451C53.4593 83.802 47.5547 86.0177 42.9756 84.9837C37.5103 83.7515 33.1411 78.8459 35.0147 71.6274C37.1177 63.5344 43.4421 61.1671 48.2777 62.17C53.1133 63.1729 57.5524 69.7849 55.4611 76.9451Z" fill="#009245"/>
<path d="M54.6985 78.9636L36.4521 67.9046C39.2431 62.6336 44.4519 61.3897 48.5295 62.2332C53.3652 63.2361 58.3252 70.0814 54.6946 78.9597L54.6985 78.9636Z" fill="#00682F"/>
<path d="M52.5807 75.9756C51.5 81.1922 47.1775 82.0357 43.6635 81.717C39.6792 81.3555 36.6394 77.3323 37.9766 72.1779C39.4771 66.3977 43.9978 64.7068 47.4496 65.422C50.9053 66.1373 53.6613 70.7591 52.5807 75.9756Z" fill="#1A1A1A"/>
<path d="M42.7186 70.8297C42.2327 71.7471 39.7916 71.4128 37.2688 70.0756C34.746 68.7384 33.094 66.9115 33.5799 65.9941C34.0658 65.0767 36.5069 65.4149 39.0297 66.7482C41.5525 68.0815 43.2045 69.9123 42.7186 70.8297Z" fill="white"/>
<path d="M53.8169 77.6919C53.4321 78.7026 52.3165 79.2118 51.3214 78.8347C50.3263 78.4577 49.8326 77.3343 50.2136 76.3236C50.5984 75.313 51.714 74.8038 52.7091 75.1808C53.7042 75.5579 54.1979 76.6813 53.8169 77.6919Z" fill="white"/>
<path d="M75.2614 75.5326C77.3488 85.5964 85.8306 87.1979 92.7342 86.5565C100.567 85.8296 106.561 78.0398 103.968 68.0925C101.06 56.9403 92.1978 53.7101 85.4108 55.1172C78.6238 56.5244 73.1702 65.4648 75.2576 75.5287L75.2614 75.5326Z" fill="#320F06"/>
<path d="M75.7125 76.9881C77.7649 86.8848 85.9668 88.4902 92.6372 87.8838C100.202 87.1997 105.97 79.5614 103.428 69.7774C100.579 58.8079 92.0036 55.601 85.4498 56.9615C78.8961 58.322 73.6601 67.0875 75.7125 76.9881Z" fill="white"/>
<path d="M77.6793 76.9451C79.6811 83.802 85.5857 86.0177 90.1648 84.9837C95.6302 83.7515 99.9993 78.8459 98.1257 71.6274C96.0227 63.5344 89.6983 61.1671 84.8627 62.17C80.0271 63.1729 75.588 69.7849 77.6793 76.9451Z" fill="#009245"/>
<path d="M78.4371 78.9615L96.6795 67.8986C93.8885 62.6316 88.6836 61.3877 84.6021 62.2351C79.7665 63.238 74.8065 70.0832 78.4371 78.9615Z" fill="#00682F"/>
<path d="M80.5602 75.9756C81.6408 81.1922 85.9633 82.0357 89.4773 81.717C93.4616 81.3555 96.5014 77.3323 95.1642 72.1779C93.6638 66.3977 89.143 64.7068 85.6912 65.422C82.2355 66.1373 79.4795 70.7591 80.5602 75.9756Z" fill="#1A1A1A"/>
<path d="M90.3674 70.7277C90.8222 71.5907 93.24 71.2097 95.7628 69.8725C98.2856 68.5354 99.9609 66.755 99.5061 65.8921C99.0475 65.0291 96.6335 65.4101 94.1108 66.7473C91.588 68.0844 89.9126 69.8648 90.3674 70.7277Z" fill="white"/>
<path d="M79.3244 77.6919C79.7092 78.7026 80.8248 79.2118 81.82 78.8347C82.8151 78.4577 83.3087 77.3343 82.9278 76.3236C82.543 75.313 81.4273 74.8038 80.4322 75.1808C79.4371 75.5579 78.9435 76.6813 79.3244 77.6919Z" fill="white"/>
<g opacity="0.8">
<path d="M73.455 30.0711C71.0489 29.6979 69.2375 29.5074 66.5981 29.5074C63.9587 29.5074 61.9801 29.7407 59.5273 30.1838L60.0638 34.3781C62.1628 34.0476 64.3474 33.8766 66.6292 33.8766C68.9109 33.8766 70.8856 34.0127 72.8914 34.2731L73.455 30.0711Z" fill="#F0C897"/>
</g>
<path d="M49.0398 139.563C44.2197 138.179 39.6717 136.014 35.2326 133.713C27.7693 129.865 20.959 124.582 15.9717 117.709C13.9737 114.961 12.3139 112.096 10.6386 109.15C9.01762 106.203 7.54827 103.055 6.92244 99.5992C6.36269 96.5828 6.59592 93.3837 7.64157 90.4877C9.00984 86.9776 10.4753 83.5297 11.9485 80.0585C21.9463 56.2574 37.9108 27.4342 67.5582 28.5226C74.3335 28.6353 81.1438 30.1435 87.2038 33.2222C108.035 43.8613 117.839 69.6914 125.279 90.5344C128.668 100.909 122.799 110.573 116.645 118.526C112.327 123.68 107.001 127.839 101.404 131.489C95.7828 135.058 89.7966 138.14 83.4216 140.099C83.3595 140.119 83.3283 140.022 83.3905 140.002C95.0559 135.843 107.934 127.443 115.817 117.857C117.765 115.288 119.638 112.404 121.201 109.589C125.034 102.763 126.173 95.9958 123.047 88.6608C113.722 62.9084 99.4173 30.4817 67.5232 30.5167C38.731 29.7004 23.7383 57.8279 13.8532 80.8748C12.5394 83.9184 11.2605 86.9776 10.0011 90.0524C8.72997 92.9444 8.32959 96.1319 8.901 99.2494C9.91944 104.781 13.2468 109.784 16.1506 114.576C21.8841 123.591 30.5252 130.502 40.0721 135.244C43.0108 136.768 45.9961 138.226 49.1292 139.307C49.1991 139.33 49.238 139.408 49.2147 139.478C49.1914 139.548 49.1175 139.583 49.0514 139.563H49.0398Z" fill="black"/>
<path opacity="0.7" d="M105.232 129.384C105.232 129.384 91.6304 143.922 67.4718 143.817C43.6629 143.712 30.0074 130.655 30.0074 130.655C25.9686 143.144 48.0982 151.894 66.9781 151.875C84.8823 151.855 109.931 142.106 105.232 129.384Z" fill="#F0C897"/>
<path d="M106.476 127.823C106.476 127.823 91.5916 142.101 67.1259 141.778C42.6951 141.456 28.2115 129.437 28.2115 129.437C23.2127 141.697 46.936 150.14 66.6089 150.12C85.2672 150.101 110.355 141.642 106.476 127.827V127.823Z" fill="#FC8A3D"/>
<path d="M106.623 127.971C106.623 127.971 88.0739 143.111 65.2408 143.69C43.7254 144.238 28.1612 129.432 28.1612 129.432C26.3964 144.025 48.2772 150.135 67.783 150.112C88.3111 150.088 109.5 137.024 106.623 127.967V127.971Z" fill="#FF6927"/>
<g opacity="0.6">
<path d="M66.7657 153.035C61.6696 153.035 57.5376 156.992 57.5376 161.874C57.5376 166.756 61.6696 170.713 66.7696 170.713C71.8695 170.713 75.9977 166.756 75.9977 161.874C75.9977 156.992 71.8657 153.035 66.7657 153.035ZM66.7735 155.658C66.3459 155.658 65.996 155.324 65.996 154.916C65.996 154.508 66.342 154.174 66.7735 154.174C67.205 154.174 67.5509 154.508 67.5509 154.916C67.5509 155.324 67.205 155.658 66.7735 155.658Z" fill="#F0C897"/>
<mask id="mask0_497_21531" style="mask-type:luminance" maskUnits="userSpaceOnUse" x="57" y="153" width="19" height="18">
<path d="M66.7647 153.034C61.6687 153.034 57.5366 156.991 57.5366 161.874C57.5366 166.756 61.6687 170.713 66.7686 170.713C71.8686 170.713 75.9967 166.756 75.9967 161.874C75.9967 156.991 71.8647 153.034 66.7647 153.034ZM66.7725 155.658C66.3449 155.658 65.9951 155.324 65.9951 154.916C65.9951 154.508 66.341 154.173 66.7725 154.173C67.204 154.173 67.5499 154.508 67.5499 154.916C67.5499 155.324 67.204 155.658 66.7725 155.658Z" fill="white"/>
</mask>
<g mask="url(#mask0_497_21531)">
<path d="M75.9932 153.035H66.7651V170.612H75.9932V153.035Z" fill="#F0C897"/>
<path d="M66.7647 153.035H57.5366V170.612H66.7647V153.035Z" fill="#F0C897"/>
<path d="M70.4923 161.612C70.1697 161.452 70.1153 161.149 70.4496 160.974C70.6284 160.912 71.1337 160.822 71.639 160.725C72.6769 160.527 73.0073 159.773 72.984 158.817C72.984 158.704 72.7935 158.603 72.673 158.615C71.4214 158.65 70.5351 158.964 70.1852 157.798C69.9598 157.141 69.5983 156.815 69.4078 156.842C69.1551 156.842 69.3067 157.538 69.2368 157.802C69.2018 157.802 68.8442 156.795 68.4943 156.838C68.2222 156.889 68.335 157.258 68.3077 158.272C68.2922 158.766 68.2455 160.224 67.2271 160.566C66.5391 160.807 65.3691 160.698 64.4167 160.558C63.9036 160.465 63.0951 159.925 62.6947 159.132C62.6286 158.999 62.5042 159.015 62.4615 159.155C62.2982 159.703 62.4964 160.539 62.9901 161.11C62.3138 161.604 60.7045 162.809 60.1914 164.08C60.1253 164.282 60.755 164.714 60.9377 164.597C61.7695 163.913 63.0562 162.863 63.546 162.863C63.6198 162.956 62.0961 163.648 61.0893 165.518C61.031 165.72 61.7618 166.257 61.9406 166.132C62.7919 165.332 63.235 164.826 64.4322 164.286C65.2796 163.932 66.7723 163.718 68.1523 164.041C69.334 164.317 70.1775 164.78 71.4836 165.701C71.95 166.047 72.3465 165.417 72.2299 165.11C71.6313 163.893 69.4972 162.96 69.575 162.774C69.6333 162.63 71.0132 163.334 72.2027 164.022C72.5214 164.138 73.0306 163.59 72.879 163.345C72.1677 162.447 71.2542 162.012 70.4923 161.604" fill="#F0C897"/>
</g>
</g>
<mask id="mask1_497_21531" style="mask-type:luminance" maskUnits="userSpaceOnUse" x="57" y="151" width="20" height="19">
<path d="M66.8702 151.894C61.7741 151.894 57.6421 155.851 57.6421 160.733C57.6421 165.616 61.7741 169.573 66.8741 169.573C71.974 169.573 76.1022 165.616 76.1022 160.733C76.1022 155.851 71.9701 151.894 66.8702 151.894ZM66.878 154.518C66.4504 154.518 66.1005 154.183 66.1005 153.775C66.1005 153.367 66.4465 153.033 66.878 153.033C67.3095 153.033 67.6554 153.367 67.6554 153.775C67.6554 154.183 67.3095 154.518 66.878 154.518Z" fill="white"/>
</mask>
<g mask="url(#mask1_497_21531)">
<path d="M76.0977 151.894H66.8696V169.472H76.0977V151.894Z" fill="#F4BDC7"/>
<path d="M66.8702 151.897H57.6421V169.475H66.8702V151.897Z" fill="#FF6927"/>
<path d="M70.5978 160.468C70.2752 160.309 70.2207 160.006 70.555 159.831C70.7338 159.769 71.2392 159.679 71.7445 159.582C72.7824 159.384 73.1128 158.63 73.0895 157.673C73.0895 157.561 72.899 157.46 72.7785 157.471C71.5268 157.506 70.6406 157.821 70.2907 156.655C70.0653 155.998 69.7037 155.671 69.5133 155.699C69.2606 155.699 69.4122 156.394 69.3422 156.659C69.3073 156.659 68.9496 155.652 68.5998 155.695C68.3277 155.745 68.4404 156.115 68.4132 157.129C68.3977 157.623 68.351 159.081 67.3326 159.423C66.6446 159.664 65.4745 159.555 64.5222 159.415C64.0091 159.322 63.2005 158.781 62.8002 157.988C62.7341 157.856 62.6097 157.872 62.5669 158.012C62.4037 158.56 62.6019 159.395 63.0956 159.967C62.4192 160.46 60.8099 161.665 60.2968 162.937C60.2307 163.139 60.8605 163.57 61.0432 163.454C61.875 162.769 63.1617 161.72 63.6514 161.72C63.7253 161.813 62.2015 162.505 61.1948 164.375C61.1365 164.577 61.8672 165.113 62.046 164.989C62.8973 164.188 63.3405 163.683 64.5377 163.143C65.3851 162.789 66.8778 162.575 68.2577 162.898C69.4394 163.174 70.2829 163.636 71.589 164.558C72.0555 164.903 72.452 164.274 72.3353 163.967C71.7367 162.75 69.6027 161.817 69.6804 161.63C69.7387 161.487 71.1187 162.19 72.3081 162.878C72.6269 162.995 73.1361 162.447 72.9845 162.202C72.2732 161.304 71.3597 160.869 70.5978 160.46" fill="black"/>
</g>
<path d="M67.2695 149.861H66.4688V153.196H67.2695V149.861Z" fill="black"/>
<g opacity="0.3">
<path d="M33.0561 100.179L32.616 99.158C32.4384 98.746 31.9604 98.556 31.5484 98.7336L23.7881 102.079C23.376 102.257 23.186 102.735 23.3636 103.147L23.8037 104.167C23.9813 104.58 24.4593 104.77 24.8714 104.592L32.6317 101.247C33.0437 101.069 33.2338 100.591 33.0561 100.179Z" fill="#F1648F"/>
<path d="M30.3359 96.1315L29.8958 95.1106C29.7182 94.6985 29.2402 94.5085 28.8282 94.6861L23.8593 96.8281C23.4472 97.0057 23.2572 97.4837 23.4348 97.8958L23.8749 98.9167C24.0526 99.3287 24.5306 99.5187 24.9426 99.3411L29.9115 97.1991C30.3235 97.0215 30.5135 96.5435 30.3359 96.1315Z" fill="#F1648F"/>
</g>
<g opacity="0.3">
<path d="M111.419 104.174L111.859 103.153C112.037 102.741 111.847 102.263 111.435 102.085L103.674 98.7399C103.262 98.5623 102.784 98.7523 102.607 99.1644L102.167 100.185C101.989 100.597 102.179 101.075 102.591 101.253L110.351 104.598C110.763 104.776 111.241 104.586 111.419 104.174Z" fill="#F1648F"/>
<path d="M111.347 98.9289L111.787 97.908C111.965 97.496 111.775 97.018 111.363 96.8404L106.394 94.6984C105.982 94.5208 105.504 94.7108 105.326 95.1228L104.886 96.1437C104.709 96.5558 104.899 97.0338 105.311 97.2114L110.28 99.3534C110.692 99.531 111.17 99.341 111.347 98.9289Z" fill="#F1648F"/>
</g>
<g opacity="0.7">
<path d="M55.8652 91.102C55.8652 95.0281 60.798 98.2116 66.8814 98.2116C72.9648 98.2116 77.8976 95.0281 77.8976 91.102C77.8976 87.176 72.9648 83.9924 66.8814 83.9924C60.798 83.9924 55.8652 87.176 55.8652 91.102Z" fill="#F0C897"/>
</g>
<g opacity="0.7">
<path d="M56.5605 108.542C55.9619 108.433 55.3866 108.829 55.2738 109.428C55.165 110.026 55.5615 110.602 56.1601 110.714C56.7587 110.823 57.3379 110.427 57.4468 109.828C57.5556 109.23 57.1591 108.654 56.5605 108.542Z" fill="#F0C897"/>
<path d="M53.3535 106.803C52.7548 106.694 52.1795 107.09 52.0668 107.689C51.958 108.288 52.3545 108.863 52.9531 108.976C53.5517 109.085 54.127 108.688 54.2397 108.089C54.3486 107.491 53.9521 106.915 53.3535 106.803Z" fill="#F0C897"/>
<path d="M49.9951 107.863C49.3964 107.754 48.8173 108.151 48.7084 108.749C48.5996 109.348 48.9961 109.923 49.5947 110.036C50.1933 110.145 50.7686 109.748 50.8813 109.15C50.9902 108.551 50.5937 107.976 49.9951 107.863Z" fill="#F0C897"/>
<path d="M53.2138 110.509C52.6152 110.401 52.0399 110.797 51.9272 111.396C51.8183 111.994 52.2148 112.57 52.8134 112.682C53.4121 112.791 53.9874 112.395 54.1001 111.796C54.2089 111.197 53.8124 110.622 53.2138 110.509Z" fill="#F0C897"/>
</g>
<g opacity="0.7">
<path d="M76.6181 108.542C77.2167 108.433 77.792 108.829 77.9048 109.428C78.0136 110.026 77.6171 110.602 77.0185 110.714C76.4199 110.823 75.8407 110.427 75.7318 109.828C75.623 109.23 76.0195 108.654 76.6181 108.542Z" fill="#F0C897"/>
<path d="M79.8251 106.803C80.4238 106.694 80.9991 107.09 81.1118 107.689C81.2206 108.288 80.8241 108.863 80.2255 108.976C79.6269 109.085 79.0516 108.688 78.9389 108.089C78.83 107.491 79.2265 106.915 79.8251 106.803Z" fill="#F0C897"/>
<path d="M83.1835 107.863C83.7822 107.754 84.3614 108.151 84.4702 108.749C84.579 109.348 84.1825 109.923 83.5839 110.036C82.9853 110.145 82.41 109.748 82.2973 109.15C82.1884 108.551 82.5849 107.976 83.1835 107.863Z" fill="#F0C897"/>
<path d="M79.9682 110.509C80.5668 110.401 81.1421 110.797 81.2549 111.396C81.3637 111.994 80.9672 112.57 80.3686 112.682C79.77 112.791 79.1947 112.395 79.0819 111.796C78.9731 111.197 79.3696 110.622 79.9682 110.509Z" fill="#F0C897"/>
</g>
<path d="M74.7181 119.199C70.656 124.412 72.1993 127.58 66.6173 127.588C59.9975 127.599 61.805 124.486 57.7935 119.37C57.7935 119.37 62.5474 117.201 63.1383 116.614C63.7291 116.027 66.4268 114.274 66.4268 114.274C66.4268 114.274 69.6376 117.598 71.2469 118.158C72.8562 118.717 74.7181 119.203 74.7181 119.203V119.199Z" fill="#6D1022"/>
<path d="M72.3583 123.653C71.6042 126.055 70.5741 127.237 68.2885 127.42C64.102 127.75 62.0379 127.676 60.5103 124.423C60.5103 124.423 61.4704 121.822 64.2186 121.702C65.272 121.655 66.3565 122.565 66.3565 122.565C66.3565 122.565 67.3167 121.659 68.4478 121.659C70.9822 121.659 72.3544 123.653 72.3544 123.653H72.3583Z" fill="#F1648F"/>
<path d="M74.9711 119.395C74.3919 120.266 73.8516 121.152 73.4201 122.093C72.4367 123.978 72.0441 126.734 69.7584 127.589C67.5505 128.355 63.2086 128.344 61.4943 126.571C60.3049 125.35 59.8889 123.652 59.1426 122.237C58.6956 121.296 58.1553 120.41 57.5722 119.539C57.4828 119.411 57.5178 119.232 57.6461 119.146C57.7627 119.065 57.922 119.088 58.0153 119.193C58.7384 119.994 59.3681 120.884 59.9356 121.809C61.024 123.446 61.4632 125.712 63.4651 126.388C65.1988 126.89 67.5816 126.948 69.2997 126.412C70.2132 126.089 70.6991 125.366 71.1306 124.503C71.9974 122.602 73.0198 120.569 74.4658 118.999C74.7223 118.707 75.2004 119.069 74.975 119.395H74.9711Z" fill="black"/>
<path d="M87.444 113.955C81.0418 121.57 72.7156 122.235 65.847 114.791C65.5515 114.48 65.5671 113.986 65.878 113.691C66.1968 113.388 66.7099 113.415 66.9975 113.745C68.2803 115.215 69.7496 116.517 71.4134 117.469C76.867 120.727 83.0398 117.947 86.8842 113.52C87.168 113.151 87.7394 113.578 87.444 113.959V113.955Z" fill="black"/>
<path d="M45.7741 113.52C48.88 117.077 53.8167 119.906 58.6134 118.565C61.4277 117.811 63.7406 115.922 65.6569 113.749C66.3566 112.983 67.5072 114.013 66.8075 114.795C62.1663 119.848 55.9585 121.897 49.8323 118.041C48.0676 116.941 46.5205 115.58 45.2105 113.959C44.9229 113.59 45.4748 113.147 45.7703 113.52H45.7741Z" fill="black"/>
<path d="M65.7385 114.27L66.236 104.389C66.2516 104.043 66.7763 104.039 66.7958 104.389L67.2933 114.27C67.3128 115.346 65.719 115.35 65.7385 114.27Z" fill="black"/>
<path d="M85.093 112.646C86.644 111.697 88.8791 112.82 89.1823 114.57C89.2018 114.671 89.1357 114.768 89.0346 114.787C88.9763 114.799 88.9258 114.783 88.883 114.748C88.2805 114.321 87.783 113.924 87.1377 113.652C86.508 113.365 85.8472 113.232 85.1552 113.05C84.9687 113.007 84.9298 112.735 85.093 112.642V112.646Z" fill="black"/>
<path d="M47.3876 113.059C45.9882 113.343 44.8182 113.84 43.7026 114.746C43.5743 114.855 43.3644 114.731 43.3994 114.563C43.6287 113.265 44.9309 112.274 46.237 112.297C46.5441 112.289 47.7841 112.468 47.5586 112.95C47.5198 113.016 47.4537 113.043 47.3837 113.059H47.3876Z" fill="black"/>
<path d="M53.4434 94.6912C52.9847 98.9399 60.3042 106.858 66.3565 107.185C72.4088 107.511 79.8722 99.2508 79.9499 94.8778C80.0276 90.5047 72.4166 87.9703 66.7336 88.0442C61.0505 88.1141 53.9254 90.221 53.4434 94.6951V94.6912Z" fill="#211F1C"/>
<path d="M53.4434 94.6885C52.9847 98.9371 60.3042 106.855 66.3565 107.182C72.4088 107.508 79.8722 99.2481 79.9499 94.8751C79.9499 94.8751 74.0686 98.6884 66.4459 98.6573C59.484 98.63 53.4434 94.6885 53.4434 94.6885Z" fill="black"/>
<g style="mix-blend-mode:screen" opacity="0.5">
<path d="M57.5019 91.9806C57.5019 93.2633 61.8322 93.7842 66.8855 93.7103C71.5695 93.6404 75.9776 93.0729 75.8959 92.0972C75.7677 90.554 70.0885 89.7493 66.5007 89.796C62.0732 89.8543 57.498 90.76 57.498 91.9806H57.5019Z" fill="white"/>
</g>
<path opacity="0.2" d="M61.6184 105.631C63.0839 106.459 64.1684 107.155 66.6445 107.178C69.21 107.201 70.5278 106.28 71.7406 105.608C72.0749 105.421 69.1789 104.741 66.8311 104.729C64.4833 104.717 61.288 105.444 61.6184 105.631Z" fill="white"/>
<path d="M59.0569 85.9501C62.9946 82.4167 69.1441 82.269 73.4316 85.2465C73.5793 85.3554 73.9136 85.6275 74.0613 85.7441C74.3373 85.9656 74.6094 86.1911 74.8776 86.4204C74.9709 86.4982 74.9787 86.6381 74.9009 86.7275C74.831 86.8092 74.7143 86.8247 74.6211 86.7742C74.1663 86.5681 73.6765 86.331 73.2333 86.1056C68.7709 83.9288 63.7876 84.1698 59.3795 86.3738C59.1152 86.5332 58.8237 86.16 59.0569 85.9462V85.9501Z" fill="#442723"/>
</g>
<defs>
<clipPath id="clip0_497_21531">
<rect width="135" height="279.419" fill="white" transform="translate(0 0.883667)"/>
</clipPath>
</defs>
</svg>
