<svg width="159" height="278" viewBox="0 0 159 278" fill="none" xmlns="http://www.w3.org/2000/svg">
<g clip-path="url(#clip0_497_21755)">
<path fill-rule="evenodd" clip-rule="evenodd" d="M38.0795 134.039C33.864 140.055 18.0597 160.312 13.9559 178.947C7.85484 206.651 16.829 237.618 28.5459 253.544C23.2283 258.688 21.226 270.968 23.6325 275.393C25.8446 279.46 58.7432 277.387 58.7432 277.387C68.1423 275.393 84.5908 273.47 102.225 276.127C102.225 276.127 134.766 279.46 136.979 275.393C139.385 270.968 137.383 258.688 132.065 253.544C142.454 237.592 148.866 206.816 144.408 178.947C140.985 157.548 128.535 143.181 123.011 134.819C117.488 126.456 115.938 120.508 115.505 111.425C115.351 108.196 115.182 104.647 114.843 100.609L46.8682 101.214C46.5571 104.922 46.3959 108.111 46.2514 110.97C45.7957 119.981 42.2949 128.023 38.0795 134.039Z" fill="#333333"/>
<path d="M15.33 182.639C15.33 151.097 36.0436 128.847 36.0436 128.847C43.2065 116.187 42.8147 109.185 44.1587 90.243H114.322C115.67 109.185 115.274 116.187 122.437 128.847C122.437 128.847 143.75 147.181 144.717 182.639C145.685 218.098 125.32 235.33 77.5412 235.33C29.7624 235.33 15.33 214.182 15.33 182.639Z" fill="#4D4D4D"/>
<path d="M20.7611 185.674C21.9456 152.466 39.6566 128.845 39.6566 128.845C46.2356 116.185 39.6096 109.182 40.8478 90.2407L117.966 91.6082C119.204 110.55 112.422 116.181 119.001 128.845C119.001 128.845 138.727 152.662 139.463 185.772C140.198 218.882 126.103 270.577 79.1079 270.577C32.1126 270.577 19.5766 218.882 20.7611 185.674Z" fill="#333333"/>
<path d="M50.6693 200.759C53.4348 220.234 65.9187 240.815 81.0163 240.815C96.1138 240.815 110.008 218.664 111.852 199.976C113.697 181.287 98.4638 163.929 81.0164 164.383C63.569 164.836 47.9038 181.284 50.6693 200.759Z" fill="#FCE1B4"/>
<path d="M95.3256 235.27C94.6088 249.503 107.837 273.544 117.835 266.1C117.835 266.1 129.844 239.729 131.586 225.146C136.322 185.564 96.5358 211.24 95.3256 235.27Z" fill="black"/>
<path d="M95.2627 224.302C90.2701 252.44 90.6837 259.033 90.6837 259.033C83.6806 269.081 122.367 273.488 118.861 262.18C118.861 262.18 128.457 228.45 130.199 213.867C133.882 183.062 100.255 196.164 95.2627 224.302Z" fill="#333333"/>
<path d="M87.7231 263.527C86.1564 268.227 87.723 278.409 104.955 277.626C122.187 276.842 121.404 265.876 119.837 263.527C118.27 261.177 116.501 257.48 105.637 256.587C94.7724 255.694 89.2898 258.827 87.7231 263.527Z" fill="#FCE1B4"/>
<path fill-rule="evenodd" clip-rule="evenodd" d="M113.469 269.154C113.613 270.471 113.35 272.118 112.777 273.625C112.18 275.212 111.2 276.629 110.054 277.421C109.481 277.82 108.692 277.675 108.286 277.098C107.904 276.521 108.048 275.73 108.621 275.332C109.385 274.795 109.982 273.796 110.412 272.721C110.818 271.605 111.033 270.39 110.938 269.415C110.866 268.718 111.368 268.093 112.084 268.021C112.777 267.949 113.398 268.457 113.469 269.154Z" fill="#1A1A1A"/>
<path fill-rule="evenodd" clip-rule="evenodd" d="M105.061 270.64C104.75 271.632 104.535 272.579 104.392 273.489C104.225 274.496 104.153 275.458 104.153 276.383C104.153 277.084 103.58 277.649 102.887 277.645C102.171 277.641 101.621 277.068 101.621 276.367C101.621 275.319 101.717 274.23 101.884 273.09C102.051 272.072 102.29 271.013 102.625 269.905C102.84 269.234 103.532 268.854 104.201 269.057C104.87 269.26 105.252 269.97 105.061 270.64Z" fill="#1A1A1A"/>
<path fill-rule="evenodd" clip-rule="evenodd" d="M97.3455 268.848C96.9633 269.618 96.8439 270.809 96.8678 271.944C96.8678 272.651 96.9395 273.339 97.0828 273.905C97.1545 274.241 97.2022 274.529 97.3455 274.672C97.847 275.176 97.8232 275.98 97.3217 276.467C96.8201 276.954 96.008 276.939 95.5304 276.435C94.9571 275.859 94.4793 274.452 94.3599 272.807C94.2166 271.029 94.4556 268.99 95.0527 267.744C95.3632 267.113 96.1274 266.848 96.7484 267.153C97.3932 267.457 97.656 268.217 97.3455 268.848Z" fill="#1A1A1A"/>
<path d="M64.771 235.27C65.4878 249.503 52.2601 273.544 42.2621 266.1C42.2621 266.1 30.2531 239.729 28.5105 225.146C23.7744 185.564 63.5608 211.24 64.771 235.27Z" fill="black"/>
<path d="M64.834 224.302C69.8266 252.44 69.4129 259.033 69.4129 259.033C76.4161 269.081 37.7299 273.488 41.2355 262.18C41.2355 262.18 31.6398 228.45 29.8973 213.867C26.2151 183.062 59.8413 196.164 64.834 224.302Z" fill="#333333"/>
<path d="M72.3736 263.527C73.9402 268.227 72.3736 278.409 55.1419 277.626C37.9101 276.842 38.6931 265.876 40.2597 263.527C41.8264 261.177 43.5952 257.48 54.4597 256.587C65.3242 255.694 70.8069 258.827 72.3736 263.527Z" fill="#FCE1B4"/>
<path fill-rule="evenodd" clip-rule="evenodd" d="M46.6278 269.154C46.4845 270.471 46.7471 272.118 47.3203 273.625C47.9175 275.212 48.8968 276.629 50.0433 277.421C50.6165 277.82 51.4048 277.675 51.8108 277.098C52.1929 276.521 52.0495 275.73 51.4763 275.332C50.712 274.795 50.1149 273.796 49.685 272.721C49.279 271.605 49.064 270.39 49.1595 269.415C49.2311 268.718 48.7296 268.093 48.0131 268.021C47.3204 267.949 46.6995 268.457 46.6278 269.154Z" fill="#1A1A1A"/>
<path fill-rule="evenodd" clip-rule="evenodd" d="M55.036 270.64C55.3465 271.632 55.5614 272.579 55.7047 273.489C55.8719 274.496 55.9436 275.458 55.9436 276.383C55.9436 277.084 56.5167 277.649 57.2094 277.645C57.9259 277.641 58.4752 277.068 58.4752 276.367C58.4752 275.319 58.3798 274.23 58.2126 273.09C58.0454 272.072 57.8064 271.013 57.472 269.905C57.2571 269.234 56.5645 268.854 55.8958 269.057C55.227 269.26 54.8449 269.97 55.036 270.64Z" fill="#1A1A1A"/>
<path fill-rule="evenodd" clip-rule="evenodd" d="M62.7517 268.848C63.1339 269.618 63.2533 270.809 63.2294 271.944C63.2294 272.651 63.1576 273.339 63.0143 273.905C62.9427 274.241 62.895 274.529 62.7517 274.672C62.2501 275.176 62.2739 275.98 62.7755 276.467C63.2771 276.954 64.0891 276.939 64.5668 276.435C65.14 275.859 65.6178 274.452 65.7372 272.807C65.8805 271.029 65.6416 268.99 65.0445 267.744C64.734 267.113 63.9698 266.848 63.3488 267.153C62.7039 267.457 62.4412 268.217 62.7517 268.848Z" fill="#1A1A1A"/>
<path d="M55.9722 124.081C33.2767 115.488 16.0984 95.8962 20.0089 73.3692C25.483 41.8377 46.7443 18.3507 79.7257 18.3507C112.707 18.3507 136.022 46.0226 139.438 73.3692C142.107 94.7285 127.573 113.439 107.147 122.53C107.147 122.53 79.4514 132.972 55.9722 124.081Z" fill="#4D4D4D"/>
<path d="M56.4351 124.268C34.8759 116.114 18.5557 97.5168 22.2704 76.1379C27.4701 46.2129 47.6656 23.9249 78.9973 23.9249C110.329 23.9249 132.48 50.1862 135.724 76.1379C138.259 96.4118 124.847 114.597 105.443 123.226C105.443 123.226 78.7426 132.704 56.439 124.268H56.4351Z" fill="#333333"/>
<path d="M126.535 41.147C126.535 41.147 114.693 25.9357 91.8645 19.6467C91.8645 19.6467 108.557 0.313172 117.467 1.16739C129.332 2.30373 126.147 41.8327 126.147 41.8327" fill="#4D4D4D"/>
<path d="M124.274 39.0462C124.274 39.0462 113.679 25.7549 93.2523 20.2613C93.2523 20.2613 108.189 3.36901 116.159 4.11351C126.774 5.10878 123.926 39.6457 123.926 39.6457" fill="#333333"/>
<path d="M100.889 23.1533C100.889 23.1533 109.972 9.78368 116.328 6.36682C116.328 6.36682 116.653 11.2413 118.279 18.3493C120.117 26.3821 120.477 33.447 119.216 34.2111C117.954 34.9752 109.827 22.5499 100.889 23.1533Z" fill="#FFB7E0"/>
<path d="M126.931 41.8954C126.939 41.7974 127.723 31.8407 127.041 21.8723C126.1 8.12646 122.903 0.896978 117.543 0.383665C108.338 -0.501898 91.9632 18.33 91.2696 19.1333L92.4608 20.1638C92.6254 19.9718 108.993 1.15168 117.39 1.95495C126.488 2.82876 126.23 30.9944 125.36 41.7739L126.931 41.8993V41.8954Z" fill="black"/>
<path d="M101.865 23.8155C103.851 20.6064 106.018 17.4403 108.33 14.4466C110.689 11.4843 113.115 8.45142 116.328 6.36682C114.596 7.20144 113.071 8.42007 111.606 9.66613C107.241 13.4983 103.479 17.9144 99.9095 22.4872L101.865 23.8155Z" fill="black"/>
<path d="M32.2698 41.1503C32.2698 41.1503 44.1112 25.939 66.9399 19.6499C66.9399 19.6499 50.2475 0.316468 41.337 1.17068C29.472 2.30703 32.6577 41.836 32.6577 41.836" fill="#4D4D4D"/>
<path d="M34.5306 39.0494C34.5306 39.0494 45.126 25.7581 65.5527 20.2645C65.5527 20.2645 50.6157 3.37218 42.6456 4.11668C32.0307 5.11196 34.8793 39.6489 34.8793 39.6489" fill="#333333"/>
<path d="M57.9155 23.1564C57.9155 23.1564 48.8326 9.78673 42.477 6.36987C42.477 6.36987 42.1517 11.2444 40.5256 18.3524C38.6878 26.3852 38.3274 33.4501 39.5891 34.2142C40.8508 34.9782 48.9776 22.5529 57.9155 23.1564Z" fill="#FFB7E0"/>
<path d="M31.8736 41.8977L33.441 41.7724C32.575 30.9928 32.3164 2.82327 41.4111 1.95338C49.8004 1.15402 66.1755 19.9742 66.34 20.1623L67.5312 19.1317C66.8377 18.3285 50.4822 -0.507389 41.2583 0.382092C35.8979 0.895405 32.7004 8.12489 31.76 21.8707C31.0782 31.8392 31.8619 41.7959 31.8697 41.8938L31.8736 41.8977Z" fill="black"/>
<path d="M58.8911 22.4902C56.5166 19.4143 54.0362 16.4872 51.3638 13.6777C48.6915 10.9466 45.9055 8.12532 42.4729 6.36987C44.1069 7.37691 45.4744 8.72484 46.7871 10.0963C50.6585 14.2655 53.9265 19.0107 56.9358 23.8186L58.8911 22.4902Z" fill="black"/>
<mask id="mask0_497_21755" style="mask-type:luminance" maskUnits="userSpaceOnUse" x="61" y="17" width="38" height="31">
<path d="M79.7415 47.0888C69.5487 47.0888 61.2858 40.5679 61.2858 32.524C61.2858 24.4801 69.5487 17.9592 79.7415 17.9592C89.9343 17.9592 98.1973 24.4801 98.1973 32.524C98.1973 40.5679 89.9343 47.0888 79.7415 47.0888Z" fill="white"/>
</mask>
<g mask="url(#mask0_497_21755)">
<path d="M84.6778 35.9225H85.4811C87.5343 35.9225 89.2349 34.2572 89.1997 32.2039C89.0664 24.422 89.1997 17.4589 89.1997 17.4589C89.1997 15.4057 87.5343 13.7404 85.4811 13.7404H84.6778C82.6245 13.7404 80.9592 15.4057 80.9592 17.4589V32.2039C80.9592 34.2572 82.6245 35.9225 84.6778 35.9225Z" fill="#FCE1B4"/>
<path d="M73.9256 15.3477H74.917C76.9187 15.3477 78.5415 16.9704 78.5415 18.9722V33.9053C78.5415 35.9071 76.9187 37.5298 74.917 37.5298H73.9256C71.9238 37.5298 70.3011 35.9071 70.3011 33.9053V18.9722C70.3011 16.9704 71.9238 15.3477 73.9256 15.3477Z" fill="#FCE1B4"/>
</g>
<path d="M124.318 63.8417C123.33 73.3165 113.895 77.8697 104.416 76.8783C94.9373 75.887 89.0126 69.735 90.0001 60.2603C90.9875 50.7856 98.409 42.2748 107.884 43.2622C117.358 44.2496 125.305 54.3631 124.314 63.8378L124.318 63.8417Z" fill="#FFE60B"/>
<path d="M113.949 62.7395C113.279 69.15 107.354 72.371 100.944 71.7009C94.5334 71.0309 91.2811 66.4581 91.9512 60.0515C92.6212 53.6409 96.5357 49.1896 102.946 49.8557C109.357 50.5258 114.619 56.329 113.949 62.7395Z" fill="black"/>
<g opacity="0.5">
<path d="M96.4299 68.5053C94.9174 67.2123 93.4598 64.9357 94.2787 64.4772C94.6706 64.2578 94.7764 65.1159 96.2889 66.4129C97.8014 67.706 99.647 67.9333 99.4589 68.8541C99.2199 70.0218 97.9425 69.8023 96.4299 68.5053Z" fill="white"/>
</g>
<path d="M113.491 54.4099C114.153 55.6481 113.319 57.384 111.63 58.2852C109.941 59.1904 108.033 58.92 107.374 57.6818C106.716 56.4436 107.547 54.7077 109.236 53.8065C110.924 52.9013 112.829 53.1717 113.491 54.4099Z" fill="white"/>
<path d="M35.4515 63.8417C36.4389 73.3165 45.8745 77.8697 55.3531 76.8783C64.8279 75.8909 70.7564 69.735 69.769 60.2603C68.7815 50.7856 61.3601 42.2748 51.8853 43.2622C42.4106 44.2496 34.464 54.3631 35.4554 63.8378L35.4515 63.8417Z" fill="#FFE60B"/>
<path d="M45.0319 63.1329C45.7019 69.5435 51.6266 72.7644 58.0371 72.0943C64.4476 71.4243 67.6999 66.8515 67.0299 60.4449C66.3598 54.0344 62.4453 49.583 56.0348 50.2492C49.6243 50.9192 44.3618 56.7224 45.0319 63.1329Z" fill="black"/>
<g opacity="0.5">
<path d="M48.1041 67.3718C46.8776 65.8044 45.898 63.2849 46.7914 62.9988C47.2185 62.8617 47.1519 63.7237 48.3784 65.295C49.6048 66.8624 51.372 67.4502 51.0037 68.3161C50.5374 69.4133 49.3305 68.9431 48.1041 67.3757V67.3718Z" fill="white"/>
</g>
<path d="M66.7322 54.8009C67.3945 56.0391 66.5598 57.775 64.871 58.6762C63.1822 59.5774 61.2739 59.311 60.6156 58.0728C59.9534 56.8346 60.788 55.0987 62.4768 54.1975C64.1657 53.2923 66.07 53.5627 66.7322 54.8009Z" fill="white"/>
<g opacity="0.8">
<path d="M125.441 77.5578L126.173 78.1219C126.532 78.3978 126.599 78.912 126.323 79.2704L121.571 85.443C121.295 85.8014 120.781 85.8683 120.422 85.5924L119.69 85.0283C119.331 84.7524 119.264 84.2382 119.54 83.8798L124.292 77.7072C124.568 77.3488 125.082 77.2819 125.441 77.5578Z" fill="#F4BDC7"/>
<path d="M120.662 76.4119L121.395 76.976C121.753 77.2519 121.82 77.7661 121.544 78.1245L118.525 82.0461C118.25 82.4045 117.735 82.4713 117.377 82.1954L116.644 81.6313C116.286 81.3554 116.219 80.8412 116.495 80.4828L119.514 76.5613C119.79 76.2029 120.304 76.136 120.662 76.4119Z" fill="#F4BDC7"/>
</g>
<g opacity="0.8">
<path d="M33.253 76.6651L38.0048 82.8378C38.2807 83.1962 38.2139 83.7104 37.8555 83.9863L37.1227 84.5504C36.7643 84.8263 36.2501 84.7594 35.9742 84.401L31.2224 78.2284C30.9465 77.87 31.0133 77.3558 31.3717 77.0799L32.1045 76.5158C32.4629 76.2399 32.9771 76.3067 33.253 76.6651Z" fill="#F4BDC7"/>
<path d="M38.0265 75.5175L41.0454 79.4391C41.3213 79.7975 41.2544 80.3117 40.896 80.5876L40.1632 81.1517C39.8048 81.4276 39.2906 81.3607 39.0147 81.0023L35.9958 77.0808C35.7199 76.7224 35.7868 76.2082 36.1452 75.9323L36.878 75.3682C37.2364 75.0923 37.7506 75.1591 38.0265 75.5175Z" fill="#F4BDC7"/>
</g>
<path opacity="0.6" d="M26.6589 99.561C26.6589 99.561 50.33 118.969 81.6617 118.969C112.993 118.969 132.1 97.8369 132.1 97.8369C127.523 108.475 119.506 115.787 108.174 121.488C103.323 125.995 92.3041 134.611 79.2754 134.266C66.5719 133.933 58.1865 127.307 54.1858 123.193C42.2424 118.095 32.1682 109.753 26.6589 99.5571V99.561Z" fill="#1A1A1A"/>
<path opacity="0.6" d="M42.4147 117.701C42.4147 117.701 53.3588 129.816 79.7415 130.89C104.823 131.909 117.868 117.701 117.868 117.701C121.367 127.939 96.2929 137.982 79.8787 138.131C61.2858 138.3 39.4641 125.224 42.4147 117.701Z" fill="#1A1A1A"/>
<path d="M100.725 124.664C106.368 123.124 111.916 120.992 116.947 117.967C129.247 110.585 138.898 97.9321 140.638 83.4144C142.703 63.3795 131.7 42.3102 116.23 29.9711C100.329 16.9423 77.6808 13.741 58.508 20.8333C39.057 27.7376 25.7069 45.9582 20.7971 65.5072C19.0652 72.0275 17.9014 78.8612 19.0926 85.5773C21.3065 99.4799 30.6559 109.954 42.2544 117.195C47.9047 120.741 53.9783 123.66 60.3653 125.577C60.3967 125.584 60.4319 125.569 60.4437 125.533C48.23 120.898 36.267 113.727 28.2029 103.214C22.4272 95.3342 19.2768 85.3775 20.562 75.6089C20.997 72.3605 21.7219 69.1435 22.5643 65.9774C30.6245 35.2296 55.9963 15.5356 88.19 20.2142C111.066 23.5801 129.717 42.1221 136.175 63.9202C138.013 70.1192 139.071 76.6629 138.256 83.1205C136.633 97.023 127.355 108.837 116.171 116.791C111.371 119.993 106.046 122.371 100.627 124.346C100.431 124.401 100.529 124.711 100.721 124.656L100.725 124.664Z" fill="black"/>
<g opacity="0.7">
<path d="M85.6306 74.3896C85.7482 76.8582 82.9975 78.9898 79.4866 79.1583C75.9757 79.3229 73.0368 77.4577 72.9193 74.9931C72.8017 72.5244 75.5525 70.3928 79.0634 70.2243C82.5743 70.0598 85.5131 71.9249 85.6306 74.3935V74.3896Z" fill="#1A1A1A"/>
</g>
<path d="M127.809 82.9908C128.122 83.222 128.506 83.3474 128.879 83.4688C131.688 84.3857 134.49 85.2752 137.237 86.3724C140.512 87.6772 143.796 89.178 146.852 91C148.412 91.9287 149.917 92.9475 151.347 94.0642C152.005 94.5815 152.679 95.1065 153.263 95.7021C153.886 96.3369 154.391 97.0932 155.112 97.63C155.496 97.9121 155.935 97.9082 156.343 97.6457C158.294 96.3839 154.309 93.2766 153.463 92.5792C150.947 90.5181 148.243 88.8371 145.301 87.4304C140.144 84.9657 134.556 83.4061 128.871 82.8654C128.502 82.8301 128.111 82.8027 127.781 82.9673C127.793 82.9751 127.801 82.983 127.813 82.9908H127.809Z" fill="black"/>
<path d="M131.723 79.4897C132.096 79.6112 132.495 79.6073 132.887 79.6073C135.842 79.5877 138.784 79.5446 141.735 79.7131C145.254 79.9129 148.843 80.2969 152.319 81.0571C154.09 81.445 155.841 81.9309 157.55 82.5422C158.337 82.8243 159.144 83.1064 159.889 83.4865C160.68 83.8901 161.398 84.4504 162.256 84.7286C162.706 84.8736 163.122 84.7326 163.427 84.3525C164.877 82.5382 160.116 80.8494 159.09 80.4615C156.053 79.3016 152.953 78.565 149.721 78.1614C144.051 77.4561 138.255 77.746 132.687 79.0313C132.327 79.1135 131.947 79.2115 131.684 79.474C131.696 79.478 131.712 79.4819 131.723 79.4858V79.4897Z" fill="black"/>
<path d="M130.614 75.9504C131.01 75.9308 131.39 75.7898 131.758 75.6487C134.552 74.5868 137.326 73.5014 140.183 72.6198C143.592 71.5657 147.134 70.6566 150.696 70.1512C152.514 69.8926 154.348 69.7319 156.186 69.7084C157.032 69.6966 157.898 69.681 158.736 69.7789C159.63 69.8847 160.511 70.159 161.421 70.1198C161.903 70.1002 162.243 69.8181 162.4 69.3479C163.133 67.1144 158.019 67.2006 156.91 67.1928C153.619 67.1693 150.418 67.565 147.212 68.3291C141.586 69.6653 136.194 71.9928 131.37 75.1824C131.057 75.3901 130.731 75.6174 130.575 75.9543C130.587 75.9543 130.602 75.9543 130.614 75.9543V75.9504Z" fill="black"/>
<path d="M31.0702 82.9908C30.7568 83.222 30.3728 83.3474 30.0005 83.4688C27.191 84.3857 24.3893 85.2752 21.6425 86.3724C18.3667 87.6772 15.0831 89.178 12.0267 91C10.4672 91.9287 8.96251 92.9475 7.53229 94.0642C6.87399 94.5815 6.20002 95.1065 5.61618 95.7021C4.99315 96.3369 4.48767 97.0932 3.76668 97.63C3.38268 97.9121 2.94382 97.9082 2.5363 97.6457C0.584932 96.3839 4.56997 93.2766 5.41635 92.5792C7.93197 90.5181 10.6357 88.8371 13.5784 87.4304C18.735 84.9657 24.3227 83.4061 30.0083 82.8654C30.3767 82.8301 30.7685 82.8027 31.0977 82.9673C31.0859 82.9751 31.0781 82.983 31.0663 82.9908H31.0702Z" fill="black"/>
<path d="M27.1522 79.4897C26.78 79.6112 26.3803 79.6073 25.9885 79.6073C23.034 79.5877 20.0912 79.5446 17.1407 79.7131C13.6219 79.9129 10.0327 80.2969 6.55702 81.0571C4.7859 81.445 3.03436 81.9309 1.32593 82.5422C0.53833 82.8243 -0.268866 83.1064 -1.01336 83.4865C-1.80489 83.8901 -2.52196 84.4504 -3.38009 84.7286C-3.83071 84.8736 -4.24606 84.7326 -4.5517 84.3525C-6.00151 82.5382 -1.24064 80.8494 -0.214016 80.4615C2.82276 79.3016 5.92223 78.565 9.15492 78.1614C14.8249 77.4561 20.6202 77.746 26.1883 79.0313C26.5488 79.1135 26.9289 79.2115 27.1914 79.474C27.1797 79.478 27.164 79.4819 27.1522 79.4858V79.4897Z" fill="black"/>
<path d="M28.2616 75.9504C27.8658 75.9308 27.4857 75.7898 27.1174 75.6487C24.3236 74.5868 21.5493 73.5014 18.6928 72.6198C15.2838 71.5657 11.7415 70.6566 8.1797 70.1512C6.36155 69.8926 4.52773 69.7319 2.68999 69.7084C1.84361 69.6966 0.977646 69.681 0.139105 69.7789C-0.754295 69.8847 -1.63594 70.159 -2.54502 70.1198C-3.02698 70.1002 -3.36788 69.8181 -3.52462 69.3479C-4.25736 67.1144 0.856176 67.2006 1.96509 67.1928C5.25656 67.1693 8.45791 67.565 11.6632 68.3291C17.29 69.6653 22.6818 71.9928 27.5053 75.1824C27.8188 75.3901 28.144 75.6174 28.3008 75.9543C28.289 75.9543 28.2733 75.9543 28.2616 75.9543V75.9504Z" fill="black"/>
<path d="M59.3736 34.9137C58.6644 31.9475 57.7866 29.0283 56.4073 26.301C56.3368 26.1639 56.1683 26.113 56.0312 26.1835C55.9019 26.2501 55.847 26.4029 55.9019 26.5322C56.9285 29.2947 57.4653 32.257 57.8219 35.1723C57.9747 36.2578 59.5813 35.9913 59.3736 34.9137Z" fill="black"/>
<path d="M55.346 34.5922C54.3194 32.8485 53.1047 31.2341 51.549 29.9332C51.2904 29.7216 50.9417 30.0781 51.1611 30.3289C52.3758 31.7631 53.2614 33.4989 53.9158 35.2465C54.335 36.3006 55.8711 35.5992 55.346 34.5922Z" fill="black"/>
<path d="M50.9253 35.7207C49.9653 34.7646 48.8211 34.071 47.5555 33.64C47.2538 33.5381 47.0461 33.9613 47.3086 34.1376C47.8063 34.4746 48.2569 34.8626 48.6566 35.2975C49.0249 35.6972 49.4167 36.1987 49.6636 36.6572C49.8634 37.049 50.3454 37.2018 50.7372 37.002C51.2192 36.7669 51.3172 36.0851 50.9292 35.7207H50.9253Z" fill="black"/>
<path d="M102.343 35.7385C102.696 32.8232 103.232 29.8648 104.259 27.1062C104.318 26.9612 104.243 26.8006 104.098 26.7457C103.965 26.6948 103.816 26.7536 103.754 26.879C102.711 28.9126 101.983 31.0795 101.356 33.2699C101.152 34.0026 100.96 34.7276 100.787 35.4877C100.689 35.9109 100.956 36.3341 101.383 36.4321C101.841 36.5379 102.3 36.2087 102.343 35.7424V35.7385Z" fill="black"/>
<path d="M106.25 35.8145C106.9 34.0708 107.786 32.3389 108.997 30.9087C109.099 30.7911 109.087 30.6148 108.969 30.5129C108.863 30.4228 108.715 30.4267 108.613 30.5129C107.837 31.1477 107.151 31.8883 106.524 32.668C105.889 33.4713 105.333 34.2707 104.816 35.168C104.6 35.5481 104.733 36.03 105.114 36.2456C105.537 36.4924 106.097 36.2808 106.25 35.8184V35.8145Z" fill="black"/>
<path d="M110.501 37.2322C111.058 36.2487 111.896 35.3631 112.844 34.7166C112.978 34.6304 113.013 34.4541 112.927 34.3247C112.856 34.2189 112.723 34.1798 112.605 34.215C111.681 34.5207 110.795 35.0065 110.015 35.6061C109.741 35.8216 109.49 36.0253 109.216 36.3114C108.417 37.2205 109.898 38.2784 110.501 37.2283V37.2322Z" fill="black"/>
<path d="M40.7414 116.062C40.7414 116.062 52.1322 127.206 79.6003 128.193C105.713 129.134 119.29 116.062 119.29 116.062C122.934 125.478 96.8296 134.718 79.7414 134.855C60.3883 135.008 37.6693 122.982 40.7414 116.062Z" fill="#FC8A3D"/>
<path d="M41.8157 116.967C41.8157 116.967 57.8656 129.631 79.605 130.211C104.965 130.889 117.868 117.37 117.868 117.37C121.407 126.128 96.0623 134.725 79.4717 134.85C60.679 134.995 38.8338 123.401 41.8196 116.963L41.8157 116.967Z" fill="#FF6927"/>
<g opacity="0.6">
<path d="M79.7219 137.966C84.7257 137.966 88.7812 141.85 88.7812 146.642C88.7812 151.434 84.7257 155.317 79.7219 155.317C74.718 155.317 70.6625 151.434 70.6625 146.642C70.6625 141.85 74.718 137.966 79.7219 137.966ZM79.714 140.541C80.1333 140.541 80.4781 140.216 80.4781 139.812C80.4781 139.408 80.1372 139.083 79.714 139.083C79.2908 139.083 78.9499 139.408 78.9499 139.812C78.9499 140.216 79.2908 140.541 79.714 140.541Z" fill="#1A1A1A"/>
<mask id="mask1_497_21755" style="mask-type:luminance" maskUnits="userSpaceOnUse" x="70" y="137" width="19" height="19">
<path d="M79.7209 137.969C84.7247 137.969 88.7803 141.852 88.7803 146.645C88.7803 151.437 84.7247 155.32 79.7209 155.32C74.7171 155.32 70.6615 151.437 70.6615 146.645C70.6615 141.852 74.7171 137.969 79.7209 137.969ZM79.7131 140.544C80.1323 140.544 80.4771 140.218 80.4771 139.815C80.4771 139.411 80.1362 139.086 79.7131 139.086C79.2899 139.086 78.949 139.411 78.949 139.815C78.949 140.218 79.2899 140.544 79.7131 140.544Z" fill="white"/>
</mask>
<g mask="url(#mask1_497_21755)">
<path d="M70.6613 137.971H79.7207V155.227H70.6613V137.971Z" fill="#1A1A1A"/>
<path d="M79.7209 137.971H88.7803V155.227H79.7209V137.971Z" fill="#1A1A1A"/>
<path d="M76.0613 146.386C76.3787 146.23 76.4336 145.932 76.1044 145.763C75.9281 145.704 75.4304 145.614 74.9367 145.52C73.9179 145.324 73.5927 144.584 73.6162 143.647C73.6162 143.538 73.8043 143.44 73.9218 143.447C75.1483 143.483 76.0221 143.792 76.363 142.648C76.5864 142.002 76.939 141.68 77.1271 141.708C77.374 141.708 77.229 142.393 77.2956 142.648C77.327 142.648 77.6796 141.657 78.0244 141.704C78.2909 141.751 78.1812 142.115 78.2086 143.11C78.2243 143.592 78.2674 145.023 79.2705 145.364C79.9445 145.599 81.0926 145.493 82.0291 145.356C82.5345 145.262 83.3261 144.733 83.7179 143.957C83.7845 143.828 83.906 143.843 83.9452 143.98C84.1058 144.521 83.9099 145.34 83.424 145.9C84.0901 146.382 85.6693 147.566 86.1708 148.816C86.2335 149.012 85.6183 149.439 85.4381 149.321C84.6191 148.651 83.3574 147.617 82.8794 147.621C82.8088 147.715 84.3017 148.393 85.2892 150.226C85.348 150.426 84.6309 150.951 84.4546 150.83C83.6199 150.046 83.185 149.548 82.0095 149.019C81.1788 148.675 79.7133 148.463 78.3575 148.777C77.1937 149.047 76.3709 149.501 75.0856 150.407C74.6311 150.744 74.2392 150.128 74.3529 149.827C74.9406 148.632 77.037 147.715 76.9625 147.53C76.9038 147.389 75.548 148.079 74.3842 148.757C74.0707 148.871 73.5692 148.334 73.722 148.095C74.4195 147.213 75.3168 146.786 76.0652 146.386" fill="#1A1A1A"/>
</g>
</g>
<mask id="mask2_497_21755" style="mask-type:luminance" maskUnits="userSpaceOnUse" x="70" y="136" width="19" height="19">
<path d="M79.6183 136.853C84.6222 136.853 88.6777 140.736 88.6777 145.528C88.6777 150.32 84.6222 154.203 79.6183 154.203C74.6145 154.203 70.559 150.32 70.559 145.528C70.559 140.736 74.6145 136.853 79.6183 136.853ZM79.6105 139.427C80.0298 139.427 80.3746 139.102 80.3746 138.698C80.3746 138.295 80.0337 137.969 79.6105 137.969C79.1873 137.969 78.8464 138.295 78.8464 138.698C78.8464 139.102 79.1873 139.427 79.6105 139.427Z" fill="white"/>
</mask>
<g mask="url(#mask2_497_21755)">
<path d="M70.5583 136.853H79.6177V154.11H70.5583V136.853Z" fill="#F4BDC7"/>
<path d="M79.6183 136.853H88.6777V154.11H79.6183V136.853Z" fill="#FF6927"/>
<path d="M75.9578 145.274C76.2752 145.117 76.33 144.819 76.0009 144.651C75.8246 144.592 75.3269 144.502 74.8332 144.408C73.8144 144.212 73.4892 143.471 73.5127 142.535C73.5127 142.425 73.7008 142.327 73.8183 142.335C75.0448 142.37 75.9186 142.68 76.2595 141.536C76.4829 140.889 76.8355 140.568 77.0236 140.595C77.2705 140.595 77.1255 141.281 77.1921 141.536C77.2234 141.536 77.5761 140.544 77.9209 140.591C78.1874 140.638 78.0777 141.003 78.1051 141.998C78.1208 142.48 78.1639 143.91 79.167 144.251C79.8409 144.486 80.989 144.38 81.9255 144.243C82.431 144.149 83.2225 143.62 83.6144 142.844C83.681 142.715 83.8025 142.731 83.8416 142.868C84.0023 143.409 83.8064 144.228 83.3205 144.788C83.9866 145.27 85.5658 146.453 86.0673 147.703C86.13 147.899 85.5148 148.326 85.3346 148.209C84.5156 147.539 83.2539 146.504 82.7758 146.508C82.7053 146.602 84.1982 147.28 85.1857 149.114C85.2444 149.314 84.5274 149.839 84.351 149.717C83.5164 148.934 83.0815 148.436 81.9059 147.907C81.0752 147.562 79.6098 147.351 78.254 147.664C77.0902 147.934 76.2673 148.389 74.9821 149.294C74.5276 149.631 74.1357 149.016 74.2494 148.714C74.8371 147.519 76.9335 146.602 76.859 146.418C76.8002 146.277 75.4445 146.967 74.2807 147.644C73.9672 147.758 73.4657 147.221 73.6185 146.982C74.316 146.101 75.2133 145.674 75.9617 145.274" fill="black"/>
</g>
<path d="M79.2266 134.855H80.0142V138.131H79.2266V134.855Z" fill="black"/>
<path d="M72.5316 96.2692C72.5316 96.2692 78.4444 106.488 86.9004 96.6572C86.9004 96.6572 81.4146 94.9566 79.5063 91.9982C79.5063 91.9982 77.6529 95.9127 72.5316 96.2692Z" fill="#74294E"/>
<path d="M74.3226 98.5029C76.4542 100.591 80.3452 102.782 85.251 98.3579C85.6938 97.9582 84.0167 96.3752 81.3718 96.2929C80.3569 96.2616 79.6007 96.8807 79.6007 96.8807C79.6007 96.8807 78.7857 96.2694 77.9902 96.2616C75.549 96.242 73.3743 97.5742 74.3187 98.5029H74.3226Z" fill="#E4587F"/>
<path d="M75.6979 94.9267C75.9055 95.2167 75.8899 95.5223 75.6704 96.0866C75.5686 96.3452 75.549 97.2151 75.3491 97.219C74.9573 97.2308 74.7574 96.4157 74.5694 95.969C74.4479 95.6791 74.2363 95.3578 74.5459 95.1697C75.0317 94.8797 75.5019 94.6524 75.6979 94.9267Z" fill="#F2F2F2"/>
<path d="M83.5658 95.1158C83.3581 95.4058 83.3738 95.7114 83.5932 96.2757C83.6951 96.5343 83.7147 97.4042 83.9145 97.4081C84.3064 97.4199 84.5062 96.6048 84.6943 96.1581C84.8158 95.8682 84.8824 95.684 84.7178 95.3588C84.4749 94.8846 83.7617 94.8415 83.5658 95.1158Z" fill="#F2F2F2"/>
<path d="M76.8653 100.277C77.073 99.9789 77.0573 99.6655 76.8379 99.0855C76.736 98.823 76.7164 97.9296 76.5166 97.9218C76.1248 97.91 75.9249 98.7485 75.7368 99.2031C75.6154 99.5009 75.5488 99.6929 75.7133 100.022C75.9563 100.508 76.6694 100.555 76.8653 100.273V100.277Z" fill="#F2F2F2"/>
<path d="M82.5512 100.277C82.3435 99.9789 82.3592 99.6655 82.5786 99.0855C82.6805 98.823 82.7001 97.9296 82.8999 97.9218C83.2917 97.91 83.4916 98.7485 83.6797 99.2031C83.8011 99.5009 83.8677 99.6929 83.7032 100.022C83.4602 100.508 82.7471 100.555 82.5512 100.273V100.277Z" fill="#F2F2F2"/>
<path d="M94.3375 91.4199C92.3782 94.3117 88.7067 96.6431 85.1958 95.3109C83.1582 94.5742 81.5086 93.1048 80.0862 91.463C79.373 90.6832 78.2092 91.7333 78.9224 92.5249C82.3079 96.2199 87.2569 98.5553 91.7591 95.2364C93.0483 94.296 94.1102 93.144 94.9526 91.796C95.0584 91.6275 95.0075 91.4042 94.839 91.3023C94.6666 91.1926 94.4432 91.2514 94.3375 91.4238V91.4199Z" fill="black"/>
<path d="M64.1539 91.7963C68.5817 98.5516 74.9688 98.1951 80.1842 92.5251C80.4859 92.2116 80.4742 91.714 80.1607 91.4123C79.8355 91.0988 79.3104 91.1262 79.0204 91.4671C78.0604 92.5721 77.0063 93.5909 75.8034 94.3629C71.74 97.1606 67.3631 95.1661 64.773 91.4201C64.5262 91.0165 63.911 91.3809 64.1579 91.7963H64.1539Z" fill="black"/>
<path d="M80.29 91.9958L79.7846 81.7727C79.7767 81.6159 79.6435 81.4945 79.4868 81.5023C79.3418 81.5101 79.2242 81.6277 79.2164 81.7727L78.7109 91.9958C78.6913 93.0812 80.3018 93.0891 80.2861 91.9958H80.29Z" fill="black"/>
<path d="M79.4509 82.6852C80.4305 82.6852 81.2691 81.6155 82.28 80.6163C83.2479 79.6602 84.4077 78.7864 84.7525 78.1164C85.3677 76.9252 84.4743 74.6877 79.447 74.6877C74.4197 74.6877 73.3186 76.9212 73.7927 78.1124C74.0592 78.7786 75.3601 79.7112 76.3436 80.6163C77.5074 81.69 78.4243 82.6892 79.4431 82.6852H79.4509Z" fill="#FFB7E0"/>
<path opacity="0.5" d="M82.6801 76.4899C83.3227 76.2156 82.4293 75.2242 79.2672 75.2242C76.105 75.2242 75.286 76.1686 75.7876 76.4899C76.25 76.7838 77.6998 76.6114 79.2672 76.6074C80.4975 76.6074 81.818 76.8621 82.6801 76.4899Z" fill="white"/>
<path d="M79.5846 101.522C82.1826 101.522 84.7883 100.017 87.347 97.043C87.5586 96.7962 87.5312 96.4239 87.2843 96.2123C87.0375 96.0007 86.6652 96.0282 86.4536 96.275C83.9576 99.1786 81.4772 100.538 79.0792 100.319C75.4115 99.9818 73.0683 96.0164 73.0448 95.9772C72.8802 95.6951 72.5197 95.601 72.2376 95.7617C71.9555 95.9224 71.8575 96.2868 72.0221 96.5689C72.1279 96.7531 74.6866 101.095 78.9655 101.494C79.1732 101.514 79.3809 101.522 79.5925 101.522H79.5846Z" fill="black"/>
<path fill-rule="evenodd" clip-rule="evenodd" d="M134.719 252.561C137.879 257.253 141.111 263.017 141.756 267.443C142.106 269.842 142.104 272.142 141.645 274.09C140.202 277.625 133.495 278.316 128.453 278.409C111.833 278.713 95.5879 278.206 79.2514 275.313C68.2462 277.25 54.4159 278.583 43.8607 278.779C42.509 278.804 41.0786 278.876 39.6174 278.949C29.6151 279.451 18.1662 280.026 20.5883 266.158C21.2612 262.305 24.1879 257.604 27.3214 252.571L27.4123 252.425C6.25589 221.701 6.77844 174.938 26.3951 143.639C32.0102 134.682 35.9843 129.071 36.9287 128.142C38.6413 124.964 40.8153 119.407 40.8153 119.407L42.4367 121.757C42.4367 121.757 40.3759 126.661 38.8918 129.4C38.8369 129.506 38.7625 129.604 38.6763 129.686C6.81104 161.473 10.2191 215.685 32.0268 252.425L31.0911 253.851C27.6007 259.169 25.8116 263.566 25.2178 266.967C24.6262 270.354 25.2463 272.525 26.2472 273.79C26.2434 273.785 26.2423 273.781 26.2423 273.781C32.649 274.773 38.0614 275.596 44.7483 275.472C46.9065 275.432 49.1643 275.418 51.484 275.403H51.4858C60.4074 275.345 70.2435 275.282 78.8421 273.746L79.2616 273.671L79.6807 273.748C84.009 274.545 91.0328 274.656 98.7373 274.777C103.044 274.845 107.563 274.916 111.942 275.112C113.416 275.178 114.923 275.268 116.45 275.36L116.452 275.36C122.792 275.74 129.477 276.141 135.554 274.909C135.909 274.837 136.074 274.779 136.115 274.764C136.128 274.76 136.129 274.759 136.119 274.764C136.335 274.651 136.781 274.247 137.071 273.013C137.353 271.815 137.401 270.143 137.106 268.121C136.315 262.694 133.717 257.883 130.514 253.521C145.75 221.231 151.95 167.186 121.594 129.654C121.527 129.584 121.469 129.505 121.422 129.419C119.976 126.865 117.915 122.266 117.915 122.266L119.054 120.19C119.054 120.19 121.753 125.269 123.377 128.15C154.478 161.194 152.734 223.58 134.719 252.561Z" fill="black"/>
</g>
<defs>
<clipPath id="clip0_497_21755">
<rect width="159" height="277.3" fill="white" transform="matrix(-1 0 0 1 159 0.351562)"/>
</clipPath>
</defs>
</svg>
