<svg class="paint__tab-icon" xmlns="http://www.w3.org/2000/svg"  viewBox="0 0 24 24"><g transform="translate(-2 -2)"><path d="M15.015,14H6a4,4,0,0,0-4,4V31.02a4,4,0,0,0,4,4H19.02a4,4,0,0,0,4-4v-9.01a1,1,0,0,0-2,0V26.6l-3.3-3.3a1,1,0,0,0-1.417,0l-2.3,2.3-3.3-3.3a1,1,0,0,0-1.417,0L4,27.6V18a2,2,0,0,1,2-2h9.01a1,1,0,0,0,0-2ZM10.009,24.427l3.3,3.3a1,1,0,0,0,1.414,0h0l2.3-2.3,4,4V31.02a2,2,0,0,1-2,2H6a2,2,0,0,1-2-2v-.586Z" transform="translate(0 -9.024)" fill="#fff"/><path d="M72.944,4.976H70.96V2.992a.992.992,0,1,0-1.984,0V4.976H66.992a.992.992,0,1,0,0,1.984h1.984V8.944a.992.992,0,1,0,1.984,0V6.96h1.984a.992.992,0,1,0,0-1.984Z" transform="translate(-47.935)" fill="#fff"/><ellipse cx="1.2" cy="1.6" rx="1.2" ry="1.6" transform="translate(13.204 9.17)" fill="#fff"/></g></svg>
