<svg class="paint__tab-icon" xmlns="http://www.w3.org/2000/svg" viewBox="0 0 23.98 22"><g transform="translate(-2.079 -6)"><path d="M2.559,24.436a2.223,2.223,0,0,0-.25,2.365,2.2,2.2,0,0,0,2,1.25H8.058a5,5,0,0,0,4.959-5.532l10.81-9.907a3.78,3.78,0,1,0-5.344-5.34L8.58,18.083a5,5,0,0,0-5.521,4.967A2.178,2.178,0,0,1,2.559,24.436Zm17.4-15.812a1.782,1.782,0,1,1,2.52,2.517l-10.156,9.3a4.94,4.94,0,0,0-1.665-1.667ZM4.126,25.671a4.153,4.153,0,0,0,.932-2.62A2.985,2.985,0,0,1,6.191,20.7a2.954,2.954,0,0,1,1.852-.653,3.306,3.306,0,0,1,.725.083,3,3,0,0,1-.71,5.917H4.309a.2.2,0,0,1-.2-.122A.23.23,0,0,1,4.126,25.671Z" transform="translate(0 -0.051)" fill="#fff"/><path d="M9.012,18a1,1,0,0,0-1,1v1H7a1,1,0,1,0,0,2.008h1v1a1,1,0,1,0,2.008,0v-1h1a1,1,0,0,0,0-2.008h-1V19A1,1,0,0,0,9.012,18Z" transform="translate(-2.937 -8.988)" fill="#fff"/><path d="M74.033,58.017a1,1,0,0,0-1-1H71.021V55a1,1,0,0,0-2.008,0v2.008H67a1,1,0,0,0,0,2.008h2.008v2.008a1,1,0,1,0,2.008,0V59.021h2.008A1,1,0,0,0,74.033,58.017Z" transform="translate(-47.974 -36.041)" fill="#fff"/><circle cx="1.506" cy="1.506" r="1.506" transform="translate(11.044 6)" fill="#fff"/></g></svg>
