<svg class="paint__dnd-icon" xmlns="http://www.w3.org/2000/svg" viewBox="0 0 23.287 32.001">
  <path d="M-207.974,377.7c.044.4.578,9.734-1.244,14.223a.911.911,0,0,1-.844.578,1.045,1.045,0,0,1-.356-.089.935.935,0,0,1-.533-1.2c1.689-4.089,1.111-13.289,1.111-13.378-.044-.4-.489-1.067-.978-1.067a.986.986,0,0,0-.978.978v1.867a.911.911,0,0,1-.933.933.911.911,0,0,1-.933-.933v-3.556a.987.987,0,0,0-.978-.978.986.986,0,0,0-.978.978v2.667a.911.911,0,0,1-.933.933.911.911,0,0,1-.933-.933V367.389a.987.987,0,0,0-.978-.978.987.987,0,0,0-.978.978v11.956a.911.911,0,0,1-.933.933.911.911,0,0,1-.933-.933V368.411a.163.163,0,0,1-.044-.133.963.963,0,0,0-.933-.622.987.987,0,0,0-.978.978v15.423a.866.866,0,0,1-.711.889,1.02,1.02,0,0,1-1.067-.444l-2.8-4.845a.9.9,0,0,0-.578-.489.977.977,0,0,0-.622.089c-.311.178-.311.889-.089,1.645.133.311,2.711,7.556,5.556,10.4a.966.966,0,0,1,0,1.333.9.9,0,0,1-.667.267.98.98,0,0,1-.667-.267c-3.2-3.2-5.867-10.8-6-11.112h0c-.533-1.645-.178-3.111.844-3.822a2.67,2.67,0,0,1,2.089-.356,2.787,2.787,0,0,1,1.733,1.378l1.022,1.778V368.545a2.865,2.865,0,0,1,2.845-2.845,3.233,3.233,0,0,1,1.289.311,2.838,2.838,0,0,1,2.533-1.556,2.864,2.864,0,0,1,2.845,2.845v6.089a2.392,2.392,0,0,1,.978-.178,2.887,2.887,0,0,1,2.711,1.956,3.339,3.339,0,0,1,1.156-.222A3.057,3.057,0,0,1-207.974,377.7Zm-19.556-6.356a.755.755,0,0,0,.311-.044,1.031,1.031,0,0,0,.622-.845.866.866,0,0,0-.044-.356,5.107,5.107,0,0,1-.311-1.6,4.571,4.571,0,0,1,4.578-4.578h.4a1.157,1.157,0,0,0,.667-.178,4.561,4.561,0,0,1,2.8-.978,4.571,4.571,0,0,1,4.578,4.578,4.11,4.11,0,0,1-.178,1.289.936.936,0,0,0,.622,1.156.936.936,0,0,0,1.156-.622,6.234,6.234,0,0,0,.267-1.822,6.449,6.449,0,0,0-6.445-6.445,6.234,6.234,0,0,0-3.645,1.156h-.222a6.449,6.449,0,0,0-6.445,6.445,6.4,6.4,0,0,0,.4,2.267A1.022,1.022,0,0,0-227.53,371.345Z" transform="translate(231.154 -360.9)" fill="#f28f2c"/>
</svg>
