<svg width="140" height="17" viewBox="0 0 140 17" fill="none" xmlns="http://www.w3.org/2000/svg">
<mask id="mask0_437_1812" style="mask-type:luminance" maskUnits="userSpaceOnUse" x="0" y="0" width="140" height="17">
<path d="M140 0H0V16.7924H140V0Z" fill="white"/>
</mask>
<g mask="url(#mask0_437_1812)">
<mask id="mask1_437_1812" style="mask-type:luminance" maskUnits="userSpaceOnUse" x="0" y="0" width="141" height="17">
<path d="M140.001 0.00240326H0V16.7948H140.001V0.00240326Z" fill="white"/>
</mask>
<g mask="url(#mask1_437_1812)">
<path d="M28.8927 7.62926C28.5386 7.94787 27.5816 8.40974 26.4332 8.40974C25.7983 8.40974 25.3307 8.26305 24.9972 7.9834C24.4998 7.56508 24.3829 7.00809 24.3829 6.16228V3.02775H22.265V6.65624C22.265 8.1748 22.8735 9.15584 23.9428 9.84349C24.5594 10.24 25.3468 10.4268 26.2258 10.4268C27.5816 10.4268 28.6177 9.90882 28.8927 9.70138V14.2009H31.0118V3.02775H28.8927V7.62926Z" fill="black"/>
<path d="M95.7564 10.5793C95.5272 11.6268 95.1696 11.9867 94.7387 12.1838C94.4325 12.3074 94.105 12.3697 93.7748 12.3672C93.7748 12.3672 93.7863 13.2485 93.8069 14.3155C94.7238 14.327 95.5891 14.1596 96.1862 13.7528C96.8429 13.3035 97.4159 12.6216 97.7288 11.205C98.0417 9.78848 98.1952 7.9834 98.3202 5.0162H101.616V14.2204H103.742V3.02775H96.318C96.2469 5.80699 96.1392 8.85672 95.7564 10.5793Z" fill="black"/>
<path d="M114.648 14.2191V7.42632C114.658 5.79659 114.19 4.68375 113.457 3.96515C112.7 3.22364 111.662 2.76979 110.121 2.76979C107.398 2.76979 105.836 4.48891 105.899 6.62521L107.99 6.6126C108.02 5.38515 108.738 4.66426 110.189 4.66426C111.64 4.66426 112.532 5.42985 112.533 7.31515C112.533 7.31515 110.424 7.27847 108.894 7.6498C106.639 8.19649 105.413 9.3483 105.413 11.2256C105.413 13.1281 106.8 14.4759 109.01 14.4759C110.65 14.4759 111.776 13.857 112.648 12.9126C112.692 13.3511 112.76 13.7869 112.852 14.218H114.654M112.522 8.99187V9.55344C112.522 11.5511 110.701 12.6078 109.428 12.6078C108.268 12.6078 107.639 12.0187 107.639 11.1442C107.639 10.3649 108.24 9.62106 109.783 9.24286C110.738 9.01364 111.756 8.99187 112.527 8.99187" fill="black"/>
<path d="M65.3595 3.02775H63.2015V14.2009H65.3595V3.02775Z" fill="black"/>
<path d="M52.5881 3.02775H43.69V5.01276H47.0606V14.1986H47.0801H49.198H49.2187V5.01276H52.5881V3.02775Z" fill="black"/>
<path d="M116.836 14.2066H118.954V5.00588H123.814V14.2066H125.932V3.02775H116.836V14.2066Z" fill="black"/>
<path d="M58.4409 6.65624H55.9665V3.02775H53.8474V14.2009H54.7895H58.4409C60.5153 14.2009 62.1083 12.4543 62.1083 10.397C62.1083 8.3639 60.4843 6.6528 58.4409 6.6528M58.1589 12.1907H55.9665V8.63781H58.1589C58.6301 8.63781 59.0819 8.82497 59.4151 9.15812C59.7482 9.49126 59.9354 9.9431 59.9354 10.4142C59.9354 10.8854 59.7482 11.3372 59.4151 11.6704C59.0819 12.0035 58.6301 12.1907 58.1589 12.1907Z" fill="black"/>
<path d="M140.001 3.02775H137.843V14.2009H140.001V3.02775Z" fill="black"/>
<path d="M133.081 6.65624H130.606V3.02775H128.488V14.2009H129.429H133.081C135.155 14.2009 136.749 12.4543 136.749 10.397C136.749 8.3639 135.125 6.6528 133.081 6.6528M132.798 12.1907H130.606V8.63781H132.798C133.269 8.63781 133.721 8.82497 134.054 9.15812C134.388 9.49126 134.575 9.9431 134.575 10.4142C134.575 10.8854 134.388 11.3372 134.054 11.6704C133.721 12.0035 133.269 12.1907 132.798 12.1907Z" fill="black"/>
<path d="M72.316 3.02775H68.793H67.8463V14.2009H69.9643V11.4079H72.316C72.8713 11.4126 73.422 11.3074 73.9365 11.0985C74.451 10.8896 74.9192 10.5811 75.314 10.1906C75.7088 9.80014 76.0226 9.33547 76.2372 8.82332C76.4518 8.31118 76.5631 7.76166 76.5646 7.20636C76.5646 4.86377 74.6586 3.02775 72.316 3.02775ZM72.2312 9.40684H69.9689V5.02193H72.2071C72.7839 5.02434 73.3364 5.25454 73.7443 5.66239C74.1521 6.07023 74.3823 6.6227 74.3847 7.19948C74.3847 8.38568 73.4312 9.40798 72.2358 9.40798" fill="black"/>
<path d="M82.9546 2.82597C82.2462 2.80773 81.5412 2.93079 80.8808 3.18798C80.2204 3.44516 79.6179 3.83131 79.1084 4.32389C78.0448 5.3737 77.3893 6.78797 77.3893 8.6194C77.3893 12.0141 79.7811 14.414 83.0406 14.414C83.9179 14.4139 84.783 14.2087 85.5669 13.8147C86.3507 13.4206 87.0315 12.8488 87.555 12.1447L85.884 10.9139C85.217 11.8124 84.2302 12.4038 83.0406 12.4038C81.2401 12.4038 79.8453 11.0846 79.6986 9.64171H88.5074C88.5234 9.34373 88.5475 9.07669 88.5475 8.74547C88.5475 7.17763 88.081 5.63501 87.0576 4.52216C85.9894 3.36806 84.5087 2.83055 82.9626 2.82138M79.6654 7.64409C79.7135 6.88309 80.7427 4.84536 82.9489 4.84536C83.7502 4.82646 84.5309 5.10019 85.145 5.61533C85.7591 6.13046 86.1644 6.85171 86.2851 7.64409H79.6654Z" fill="black"/>
<path d="M38.2524 2.82597C37.5439 2.80786 36.839 2.93098 36.1786 3.18816C35.5183 3.44533 34.9157 3.83142 34.4061 4.32389C33.3426 5.3737 32.687 6.78797 32.687 8.6194C32.687 12.0141 35.0789 14.414 38.3372 14.414C39.2147 14.4139 40.0799 14.2087 40.864 13.8147C41.648 13.4207 42.3291 12.8488 42.8528 12.1447L41.1818 10.9139C40.5136 11.8124 39.528 12.4038 38.3372 12.4038C36.5378 12.4038 35.1419 11.0846 34.9964 9.64171H43.8017C43.8178 9.34373 43.843 9.07669 43.843 8.74547C43.843 7.17763 43.3765 5.63501 42.3473 4.52216C41.2792 3.36806 39.7984 2.83055 38.2524 2.82138M34.954 7.64867C35.0021 6.88768 36.0301 4.84994 38.2363 4.84994C39.0378 4.83101 39.8187 5.1047 40.4329 5.61982C41.0472 6.13494 41.4527 6.85619 41.5737 7.64867H34.954Z" fill="black"/>
<path d="M16.7927 0.00240707H8.39655V16.7948H16.7927V0.00240707Z" fill="#F3B5BE"/>
<path d="M8.39619 0.00240326H0V16.7948H8.39619V0.00240326Z" fill="#ED6A1D"/>
<path d="M11.0664 9.48135C11.0555 9.47255 11.0481 9.46015 11.0456 9.44639C11.0431 9.43263 11.0457 9.41843 11.0527 9.40637C11.0598 9.39431 11.071 9.38518 11.0842 9.38064C11.0974 9.3761 11.1118 9.37646 11.1248 9.38164C11.5191 9.5249 12.4119 10.0234 13.2359 10.5357C13.2744 10.5601 13.3176 10.5757 13.3628 10.5817C13.4079 10.5876 13.4538 10.5837 13.4972 10.5701C13.5948 10.5363 13.6861 10.4868 13.7677 10.4234C13.8638 10.3486 13.9378 10.2492 13.982 10.1358C14.0023 10.0817 14.0074 10.0232 13.9969 9.96646C13.9864 9.90972 13.9607 9.85691 13.9224 9.81372C13.3012 9.09856 12.4841 8.62867 11.8193 8.24588C11.7548 8.21804 11.7004 8.1711 11.6633 8.11138C11.6263 8.05166 11.6085 7.98202 11.6122 7.91185C11.616 7.84168 11.6411 7.77434 11.6843 7.7189C11.7275 7.66347 11.7866 7.62259 11.8537 7.60178C12.0222 7.54333 12.4268 7.48717 12.9001 7.39434C13.8708 7.2144 14.1871 6.50383 14.1791 5.56863C14.1779 5.53712 14.1705 5.50615 14.1573 5.47752C14.1441 5.44889 14.1253 5.42318 14.1021 5.40186C14.0788 5.38054 14.0516 5.36404 14.0219 5.35332C13.9923 5.3426 13.9608 5.33788 13.9293 5.33941C13.4433 5.34858 13.0124 5.39557 12.6422 5.37151C12.1299 5.33827 11.9019 5.20303 11.6256 4.58988C11.4136 4.1154 11.1982 3.7647 11.0297 3.62832C11.0075 3.60987 10.9811 3.59714 10.9529 3.59124C10.9247 3.58534 10.8954 3.58646 10.8677 3.59449C10.84 3.60252 10.8147 3.61722 10.794 3.6373C10.7732 3.65738 10.7578 3.68224 10.7489 3.70969C10.695 3.90681 10.7111 4.5257 10.7111 4.5257C10.7111 4.5257 10.4131 3.95266 10.2137 3.65353C10.1942 3.62478 10.1665 3.60247 10.1343 3.58945C10.1021 3.57643 10.0667 3.57329 10.0327 3.58041C9.99866 3.58753 9.96752 3.60461 9.94322 3.62946C9.91893 3.65431 9.90256 3.68583 9.89621 3.72C9.86183 3.93203 9.85495 4.37327 9.83089 4.95089C9.82751 5.4163 9.75014 5.87821 9.60167 6.31931C9.52189 6.56986 9.37116 6.79188 9.16774 6.95849C8.96432 7.12509 8.71694 7.22911 8.45559 7.25795C7.7413 7.34856 7.01715 7.32535 6.31013 7.18919C5.68437 7.02874 4.95087 6.4832 4.591 5.69928C4.58148 5.67992 4.56629 5.66391 4.54746 5.65336C4.52863 5.64281 4.50705 5.63823 4.48556 5.64022C4.46407 5.6422 4.44369 5.65067 4.42711 5.66449C4.41054 5.67831 4.39855 5.69684 4.39273 5.71762C4.23457 6.25284 4.39961 7.09292 4.85116 7.65794C4.23457 8.11637 2.74925 9.17076 2.20372 10.3581C2.18412 10.4008 2.17513 10.4476 2.17753 10.4945C2.17992 10.5414 2.19363 10.587 2.21747 10.6274C2.27257 10.7275 2.34823 10.8148 2.4395 10.8836C2.53076 10.9523 2.63555 11.0009 2.74696 11.0263C2.78975 11.0354 2.83409 11.0345 2.87646 11.0236C2.91883 11.0126 2.95807 10.992 2.99108 10.9632C3.67872 10.3902 4.67123 9.57877 5.16863 9.40227C5.18179 9.39682 5.19649 9.39637 5.20997 9.401C5.22344 9.40563 5.23476 9.41502 5.2418 9.42741C5.24884 9.43979 5.25111 9.45432 5.24819 9.46827C5.24527 9.48221 5.23735 9.49461 5.22593 9.50313C4.88211 9.76558 3.85064 10.4464 3.07359 11.84C3.05083 11.8809 3.03804 11.9266 3.03625 11.9734C3.03445 12.0202 3.04371 12.0668 3.06328 12.1093C3.11642 12.2165 3.19514 12.309 3.2925 12.3786C3.36348 12.4339 3.44035 12.4812 3.52171 12.5196C3.57717 12.5443 3.63871 12.5519 3.6985 12.5415C3.7583 12.5311 3.81365 12.5031 3.85751 12.4612C4.591 11.7552 5.08038 11.2704 6.14395 10.7833C6.93818 10.4486 8.33067 10.2572 9.60969 10.5896C10.6721 10.8647 11.4343 11.3071 12.5712 12.1632C12.6091 12.1922 12.6534 12.2119 12.7004 12.2206C12.7474 12.2294 12.7958 12.227 12.8416 12.2136C12.962 12.1832 13.0733 12.1243 13.166 12.0417C13.234 11.9745 13.2912 11.8971 13.3356 11.8125C13.3623 11.7631 13.3747 11.7072 13.3715 11.6511C13.3683 11.5951 13.3495 11.541 13.3173 11.495C12.6995 10.5988 11.6589 9.85154 11.0652 9.46874" fill="#010101"/>
</g>
</g>
</svg>
