<svg width="264" height="212" viewBox="0 0 264 212" fill="none" xmlns="http://www.w3.org/2000/svg">
<path d="M164.646 117.748C164.646 117.748 163.372 121.144 163.219 124.508C163.067 127.872 164.522 132.869 164.522 132.869L164.877 125.02C165.08 120.535 164.646 117.748 164.646 117.748Z" fill="#4D2F1F"/>
<path d="M181.081 125.304C181.081 125.304 175.993 124.964 172.75 126.801C169.508 128.637 166.797 134.109 166.797 134.109C166.797 134.109 169.293 130.778 173.616 128.329C177.939 125.88 181.081 125.304 181.081 125.304Z" fill="#4D2F1F"/>
<path d="M172.995 117.545C172.995 117.545 170.035 120.126 168.145 123.338C166.255 126.55 165.027 132.312 165.027 132.312L169.436 124.818C171.956 120.536 172.995 117.545 172.995 117.545Z" fill="#4D2F1F"/>
<path d="M149.401 132.745C149.401 132.745 152.817 131.527 156.183 131.43C159.549 131.333 164.522 132.869 164.522 132.869L156.668 133.096C152.18 133.225 149.401 132.745 149.401 132.745Z" fill="#4D2F1F"/>
<path d="M205.164 146.884C205.164 146.884 201.089 145.355 197.052 145.172C193.015 144.99 187.019 146.735 187.019 146.735L196.437 147.162C201.819 147.405 205.164 146.884 205.164 146.884Z" fill="#4D2F1F"/>
<path d="M177.722 173.88C177.722 173.88 176.26 169.78 176.144 165.741C176.027 161.702 177.871 155.735 177.871 155.735L178.142 165.16C178.298 170.545 177.722 173.88 177.722 173.88Z" fill="#4D2F1F"/>
<path d="M156.615 149.373C156.615 149.373 156.358 144.279 158.248 141.067C160.138 137.856 165.654 135.235 165.654 135.235C165.654 135.235 162.282 137.676 159.762 141.958C157.242 146.241 156.615 149.373 156.615 149.373Z" fill="#4D2F1F"/>
<path d="M148.987 141.159C148.987 141.159 151.617 138.241 154.86 136.405C158.102 134.568 163.884 133.434 163.884 133.434L156.318 137.72C151.995 140.169 148.987 141.159 148.987 141.159Z" fill="#4D2F1F"/>
<path d="M163.748 126.131C165.819 128.236 166.133 131.285 164.449 132.941C162.765 134.598 159.721 134.234 157.65 132.129C155.58 130.024 155.266 126.975 156.95 125.319C158.634 123.662 161.678 124.026 163.748 126.131Z" fill="#4D2F1F"/>
<path d="M185.594 136.138C196.68 142.912 200.565 154.408 192.943 161.906C185.321 169.404 173.893 165.328 167.3 154.134C162.825 146.537 163.925 144.491 162.112 141.238C158.124 134.086 159.163 132.141 161.45 129.89C163.738 127.64 165.698 126.636 172.784 130.741C176.006 132.607 178.07 131.54 185.594 136.138Z" fill="#5E4639"/>
<path d="M167.448 135.989C164.589 138.801 164.374 142.013 164.374 142.013C166.693 137.555 169.102 135.341 173.521 133.015C173.521 133.015 170.306 133.177 167.448 135.989Z" fill="#4D2F1F"/>
<path d="M170.176 138.319C166.151 142.279 164.515 147.056 164.515 147.056C169.058 141.789 173.796 137.032 179.005 132.803C179.005 132.803 174.201 134.36 170.176 138.319Z" fill="#4D2F1F"/>
<path d="M183.639 152.01C187.664 148.05 187.704 143.26 187.704 143.26C184.457 149.621 181.237 152.788 174.823 155.93C174.823 155.93 179.614 155.969 183.639 152.01Z" fill="#4D2F1F"/>
<path d="M188.392 156.838C192.417 152.879 191.651 148.88 191.651 148.88C189.21 154.449 185.99 157.617 180.381 159.966C180.381 159.966 184.367 160.797 188.392 156.838Z" fill="#4D2F1F"/>
<path d="M179.681 147.985C183.706 144.026 185.342 139.248 185.342 139.248C180.8 144.516 176.061 149.272 170.852 153.502C170.852 153.502 175.656 151.944 179.681 147.985Z" fill="#4D2F1F"/>
<path d="M174.137 142.346C170.112 146.305 167.683 150.277 167.683 150.277C173.305 146.331 178.135 141.58 182.174 136.024C182.174 136.024 178.162 138.386 174.137 142.346Z" fill="#4D2F1F"/>
<path d="M114.847 71.8727C121.547 67.2628 130.29 67.9903 130.29 67.9903L130.749 64.775C130.749 64.775 120.422 64.6812 111.822 69.1329C103.222 73.5846 99.3583 83.2151 100.942 82.5813C102.526 81.9476 108.148 76.4825 114.847 71.8727Z" fill="#9F7575"/>
<path d="M121.72 59.1612C129.826 58.5186 137.034 63.5202 137.034 63.5202L139.039 60.9651C139.039 60.9651 130.143 55.7204 120.469 55.2757C110.796 54.8311 102.635 61.2395 104.323 61.4826C106.012 61.7256 113.613 59.8038 121.72 59.1612Z" fill="#9F7575"/>
<path d="M148.54 90.85C150.514 82.961 146.772 75.0255 146.772 75.0255L149.624 73.4703C149.624 73.4703 153.326 83.1112 152.165 92.7253C151.005 102.339 143.336 109.329 143.375 107.624C143.414 105.918 146.566 98.7389 148.54 90.85Z" fill="#9F7575"/>
<path d="M171.254 71.6254C163.148 72.2681 155.94 67.2664 155.94 67.2664L153.935 69.8215C153.935 69.8215 162.831 75.0662 172.505 75.5109C182.178 75.9556 190.339 69.5471 188.651 69.3041C186.962 69.061 179.361 70.9828 171.254 71.6254Z" fill="#9F7575"/>
<path d="M144.434 39.9364C142.46 47.8254 146.202 55.7609 146.202 55.7609L143.351 57.3161C143.351 57.3161 139.648 47.6752 140.809 38.0611C141.969 28.447 149.638 21.4574 149.599 23.1628C149.56 24.8682 146.408 32.0475 144.434 39.9364Z" fill="#9F7575"/>
<path d="M132.87 45.4822C130.897 53.3711 139.579 57.1246 139.579 57.1246L136.728 58.6799C136.728 58.6799 127.673 53.5694 128.833 43.9554C129.994 34.3413 138.898 26.3061 138.859 28.0116C138.819 29.717 134.844 37.5932 132.87 45.4822Z" fill="#9F7575"/>
<path d="M163.46 81.6294C155.354 82.272 153.087 73.0883 153.087 73.0883L151.082 75.6434C151.082 75.6434 154.625 85.4186 164.299 85.8633C173.973 86.308 183.369 78.8541 181.681 78.611C179.992 78.3679 171.567 80.9867 163.46 81.6294Z" fill="#9F7575"/>
<path d="M134.882 95.5405C140.535 89.6954 141.263 80.9523 141.263 80.9523L144.51 81.0311C144.51 81.0311 142.895 91.2314 137.084 98.9773C131.272 106.723 121.135 108.942 122.022 107.484C122.909 106.027 129.228 101.386 134.882 95.5405Z" fill="#9F7575"/>
<g filter="url(#filter0_i_782_65886)">
<path d="M158.216 84.7396C149.313 90.4172 132.707 94.2547 124.462 84.5137C116.218 74.7726 121.812 59.0415 129.59 50.9168C137.367 42.792 153.276 30.87 167.428 48.1498C181.58 65.4296 167.119 79.0619 158.216 84.7396Z" fill="#E52B2B"/>
</g>
<path d="M120.101 92.3575C121.953 93.5137 131.531 86.77 131.531 86.77C131.531 86.77 146.329 88.7744 152.07 78.013C157.811 67.2516 146.84 54.2886 135.278 58.1723C123.716 62.056 123.247 76.9819 123.247 76.9819C123.247 76.9819 114.025 85.6957 115.847 87.3317C117.668 88.9678 122.188 86.0515 122.188 86.0515C122.188 86.0515 118.249 91.2014 120.101 92.3575Z" fill="#1A1A1A"/>
<path d="M65.9451 105.95C72.7883 97.8133 86.674 88.2994 88.3263 95.0067C89.9787 101.714 68.6735 117.429 70.9269 123.402C73.1802 129.374 78.9753 127.024 89.4126 122.338C99.8499 117.652 111.571 114.753 119.473 129.769C127.375 144.785 102.64 154.016 104.067 165.532C105.494 177.048 124.202 159.809 128.267 168.037C132.332 176.264 125.689 187.502 123.61 186.163C121.531 184.823 127.121 180.611 122.164 175.379C117.208 170.147 99.7845 185.142 91.9879 168.868C84.1913 152.594 110.113 144.189 104.743 138.521C99.374 132.853 93.7573 136.85 84.7114 139.794C75.6655 142.738 64.9844 142.929 59.4981 134.228C54.0118 125.527 59.1018 114.087 65.9451 105.95Z" fill="#EB6F85"/>
<path d="M84.7102 139.792C73.5992 143.941 66.9389 141.108 65.7229 139.824C64.507 138.541 67.0041 138.609 73.2814 137.531C79.5355 136.457 79.558 136.452 89.5024 134.251L89.6132 134.227C99.6683 132.001 100.815 135.779 100.815 135.779C100.815 135.779 95.8212 135.644 84.7102 139.792Z" fill="#D64C65"/>
<path d="M98.7229 166.954C95.2809 155.618 111.818 144.825 115.73 138.683C119.643 132.54 114.357 120.044 119.474 129.768C127.375 144.784 102.641 154.015 104.068 165.531C105.495 177.047 124.203 159.808 128.267 168.035C132.332 176.263 125.69 187.501 123.611 186.161C121.531 184.822 128.51 177.856 123.554 172.624C118.598 167.392 102.165 178.291 98.7229 166.954Z" fill="#D64C65"/>
<path d="M77.873 106.425C81.7195 102.781 88.3302 95.0076 88.3302 95.0076C89.2101 102.983 69.058 117.37 70.9307 123.402C70.9307 123.402 68.717 124.829 68.1663 120.485C67.6156 116.141 74.0265 110.068 77.873 106.425Z" fill="#D64C65"/>
<defs>
<filter id="filter0_i_782_65886" x="120.392" y="39.2893" width="52.97" height="51.1965" filterUnits="userSpaceOnUse" color-interpolation-filters="sRGB">
<feFlood flood-opacity="0" result="BackgroundImageFix"/>
<feBlend mode="normal" in="SourceGraphic" in2="BackgroundImageFix" result="shape"/>
<feColorMatrix in="SourceAlpha" type="matrix" values="0 0 0 0 0 0 0 0 0 0 0 0 0 0 0 0 0 0 127 0" result="hardAlpha"/>
<feOffset dy="-20.2941"/>
<feComposite in2="hardAlpha" operator="arithmetic" k2="-1" k3="1"/>
<feColorMatrix type="matrix" values="0 0 0 0 0 0 0 0 0 0 0 0 0 0 0 0 0 0 0.25 0"/>
<feBlend mode="normal" in2="shape" result="effect1_innerShadow_782_65886"/>
</filter>
</defs>
</svg>
