<svg width="264" height="212" viewBox="0 0 264 212" fill="none" xmlns="http://www.w3.org/2000/svg">
<path d="M88.9303 66.6372H172.898L178.977 171.597H78.4344C76.0475 171.597 74.1125 169.662 74.1125 167.275V153.765C74.1125 139.765 75.6586 125.807 78.7228 112.146L88.9303 66.6372Z" fill="#FF660C"/>
<path d="M88.9283 66.6372H172.896L180.804 47.9467C182.01 45.0972 179.918 41.9408 176.824 41.9408H175.01C171.881 41.9408 168.803 42.7431 166.072 44.271C164.715 45.0301 163.028 44.8622 161.847 43.8504L159.948 42.2229C158.327 40.8335 155.934 40.8364 154.316 42.2296L153.34 43.0699C151.701 44.4814 149.27 44.4635 147.652 43.028L146.914 42.3735C145.267 40.9124 142.785 40.9232 141.15 42.3985L140.481 43.0024C138.875 44.4524 136.444 44.4909 134.792 43.0924L133.746 42.2066C132.117 40.8267 129.724 40.8436 128.114 42.2466L127.188 43.0532C125.558 44.4743 123.127 44.4711 121.501 43.0455L120.714 42.3564C119.058 40.9051 116.575 40.9312 114.95 42.417L114.33 42.9836C112.732 44.4442 110.3 44.4973 108.64 43.1078L107.545 42.1909C105.907 40.8201 103.513 40.8512 101.912 42.2641L100.225 43.7517C99.0117 44.8223 97.2584 45.0207 95.8363 44.2481C93.0488 42.734 89.927 41.9408 86.7548 41.9408H85.0016C81.9075 41.9408 79.8158 45.097 81.0213 47.9465L88.9283 66.6372Z" fill="#FF660C"/>
<path d="M130.912 66.6372H172.896L183.103 112.145C186.168 125.807 187.714 139.765 187.714 153.766V167.275C187.714 169.662 185.779 171.597 183.392 171.597H130.912V66.6372Z" fill="#F3B5BE"/>
<path d="M85.6434 81.4534H176.187L172.901 66.6355H88.9329L85.6434 81.4534Z" fill="black" fill-opacity="0.23"/>
<circle cx="131.275" cy="123.411" r="32.0041" fill="#FFCACA"/>
<path d="M152.491 127.136C154.554 130.701 153.244 135.291 149.549 137.211C148.789 137.607 147.984 137.852 147.171 137.959C145.055 138.235 143.004 138.874 141.159 139.943L140.662 140.23C138.76 141.33 137.103 142.801 135.773 144.549C135.144 145.375 134.324 146.081 133.334 146.596C130.031 148.311 125.907 147.21 123.898 144.078C122.574 142.012 122.428 139.555 123.26 137.463C124.457 134.458 124.582 131.126 123.744 128C122.769 124.37 122.853 119.901 127.534 117.193C132.164 114.512 136.091 116.68 138.77 119.332C141.091 121.63 144.095 123.097 147.322 123.599C149.415 123.924 151.347 125.158 152.492 127.135L152.491 127.136Z" fill="#FF660C"/>
<path d="M119.663 127.692C121.525 130.908 120.886 134.757 118.237 136.291C115.589 137.823 111.933 136.458 110.072 133.243C108.211 130.027 108.85 126.178 111.498 124.645C114.146 123.112 117.802 124.477 119.663 127.692Z" fill="#FF660C"/>
<path d="M121.349 109.8C123.21 113.016 122.572 116.865 119.923 118.397C117.276 119.931 113.62 118.565 111.758 115.35C109.897 112.135 110.535 108.285 113.184 106.752C115.832 105.219 119.488 106.584 121.349 109.8Z" fill="#FF660C"/>
<path d="M150.148 110.051C152.009 113.267 151.37 117.116 148.722 118.649C146.073 120.182 142.418 118.817 140.557 115.602C138.696 112.386 139.334 108.536 141.983 107.003C144.63 105.471 148.287 106.835 150.148 110.051Z" fill="#FF660C"/>
<path d="M133.794 102.597C135.655 105.814 135.017 109.662 132.368 111.196C129.72 112.729 126.064 111.364 124.203 108.148C122.342 104.932 122.981 101.083 125.629 99.5499C128.277 98.0179 131.933 99.382 133.794 102.597Z" fill="#FF660C"/>
</svg>
